<svg width="140" height="28" viewBox="0 0 140 28" fill="none" xmlns="http://www.w3.org/2000/svg">
<path d="M45.3286 13.1157V15.352H54.0963H62.8639V13.1157H45.3286ZM52.6437 14.5578V21.6639H55.4025V14.5578H52.6437ZM54.044 2.9373C49.9267 2.9373 47.0633 4.65112 47.0633 7.30545C47.0633 9.93887 49.9267 11.6318 54.044 11.6318C58.1822 11.6318 61.0456 9.93887 61.0456 7.30545C61.0456 4.65112 58.1822 2.9373 54.044 2.9373ZM54.044 5.15273C56.5938 5.15273 58.1822 5.90513 58.1822 7.30545C58.1822 8.68486 56.5938 9.43727 54.044 9.43727C51.5151 9.43727 49.9058 8.68486 49.9058 7.30545C49.9058 5.90513 51.5151 5.15273 54.044 5.15273Z" fill="white"/>
<path d="M75.0471 6.97104V9.22827H78.7255V6.97104H75.0471ZM77.9731 2.2894V13.7845H80.7528V2.2894H77.9731ZM74.1902 14.2025C70.0937 14.2025 67.5648 15.6028 67.5648 17.9437C67.5648 20.3054 70.0937 21.6639 74.1902 21.6639C78.2866 21.6639 80.8155 20.3054 80.8155 17.9437C80.8155 15.6028 78.2866 14.2025 74.1902 14.2025ZM74.1902 16.3134C76.7191 16.3134 78.0567 16.8359 78.0567 17.9437C78.0567 19.0305 76.7191 19.553 74.1902 19.553C71.6821 19.553 70.3445 19.0305 70.3445 17.9437C70.3445 16.8359 71.6821 16.3134 74.1902 16.3134ZM69.0278 4.23312V5.44533C69.0278 7.93245 67.6484 10.5032 64.4507 11.59L65.8719 13.7845C69.5712 12.5305 71.285 9.14467 71.285 5.44533V4.23312H69.0278ZM69.613 4.23312V5.44533C69.613 8.89386 71.2641 12.1125 74.859 13.3038L76.2175 11.1093C73.1661 10.0852 71.8493 7.72345 71.8493 5.44533V4.23312H69.613ZM65.2031 3.45981V5.67523H75.6114V3.45981H65.2031Z" fill="white"/>
<path d="M96.2383 2.2894V13.889H99.018V2.2894H96.2383ZM98.2447 6.99194V9.27007H101.589V6.99194H98.2447ZM86.1017 14.7459V16.9613H96.2383V21.643H99.018V14.7459H86.1017ZM84.346 3.50161V12.9067H93.6466V3.50161H90.8878V6.05144H87.1049V3.50161H84.346ZM87.1049 8.18326H90.8878V10.7331H87.1049V8.18326Z" fill="white"/>
<path d="M110.344 11.59V14.2861H113.124V11.59H110.344ZM103.008 9.95977V12.1334H120.502V9.95977H103.008ZM105.161 2.8537V8.93566H118.286V2.8537H105.161ZM115.548 5.00642V6.80384H107.899V5.00642H115.548ZM105.015 13.3456V15.4147H115.653V16.397H105.036V20.0337H107.774V18.3199H118.391V13.3456H105.015ZM105.036 19.4276V21.5176H118.892V19.4276H105.036Z" fill="white"/>
<path d="M123.092 3.68971V5.92603H131.368V3.68971H123.092ZM125.474 8.20416V13.053H128.233V8.20416H125.474ZM130.281 3.68971V4.90192C130.281 6.23954 130.281 7.91155 129.863 10.2942L132.56 10.5868C133.019 8.18326 133.019 6.26044 133.019 4.90192V3.68971H130.281ZM134.9 2.2894V16.7732H137.701V2.2894H134.9ZM136.593 8.18326V10.4614H140V8.18326H136.593ZM124.785 19.0932V21.3086H138.307V19.0932H124.785ZM124.785 15.4774V19.7829H127.564V15.4774H124.785ZM122.214 14.1816C125.537 14.1816 130.031 14.098 134.023 13.3456L133.855 11.381C129.968 11.9244 125.307 11.9871 121.963 11.9871L122.214 14.1816Z" fill="white"/>
<path d="M0.635423 9.40368C0.619604 9.40874 0.605804 9.4187 0.596012 9.43211C0.586221 9.44553 0.580944 9.46171 0.580944 9.47832C0.580944 9.49493 0.586221 9.51111 0.596012 9.52452C0.605804 9.53794 0.619604 9.5479 0.635423 9.55296L6.71888 13.5725L8.4618 5.36172L0.635423 9.40368Z" fill="white"/>
<path d="M36.6547 5.36919H35.117C35.0214 5.37292 34.9275 5.39576 34.8409 5.43637L27.1302 9.41114C27.0593 9.44473 27.0593 9.51191 27.1302 9.55669L33.1017 13.4941C33.1841 13.5403 33.276 13.5671 33.3704 13.5725H34.908C34.9864 13.5725 34.9976 13.5389 34.9304 13.4941L28.8283 9.47832L36.6659 5.43637C36.7405 5.39905 36.7331 5.36919 36.6547 5.36919Z" fill="white"/>
<path d="M33.3592 5.36919H22.6441L20.9012 13.5725H31.6162C31.6984 13.5725 31.7058 13.5389 31.6424 13.4941L25.544 9.47832L33.3816 5.43637C33.4487 5.39905 33.4376 5.36919 33.3592 5.36919Z" fill="white"/>
<path d="M39.9353 5.36919H38.4051C38.3107 5.37291 38.218 5.39576 38.1326 5.43637L30.422 9.41114C30.351 9.44473 30.3473 9.51191 30.422 9.55669L36.3934 13.4941C36.4745 13.5404 36.5652 13.5672 36.6584 13.5725H38.1961C38.2782 13.5725 38.2894 13.5389 38.2222 13.4941L32.1201 9.47832L39.9577 5.43637C40.0323 5.39905 40.0248 5.36919 39.9353 5.36919Z" fill="white"/>
<path d="M32.8852 0.0023141H7.65565C7.0576 -0.0230675 6.46942 0.160988 5.99252 0.522755C5.51561 0.884522 5.17986 1.40133 5.04313 1.9841C4.98621 2.26076 5.00896 2.5479 5.10871 2.81215C5.20847 3.07641 5.38114 3.30694 5.60669 3.47697L14.6722 9.44846L32.9001 0.0657611C32.9748 0.0321715 32.9673 0.0023141 32.8852 0.0023141Z" fill="white"/>
<path d="M28.8843 18.861L14.6647 9.47085L3.05388 15.4423C2.76311 15.5966 2.50688 15.8085 2.30088 16.0652C2.09488 16.3219 1.94344 16.6179 1.85585 16.9352C1.62072 18.0287 2.22906 18.917 3.6361 18.917H28.8619C28.9403 18.9394 28.9515 18.9058 28.8843 18.861Z" fill="white"/>
<path d="M28.847 23.2911C28.7078 23.0951 28.5183 22.9403 28.2983 22.8433C28.0309 22.7341 27.7436 22.682 27.4549 22.6902C26.8507 22.6701 26.2613 22.8795 25.8052 23.2762C25.343 23.6909 25.0319 24.2476 24.9207 24.8586C24.8394 25.123 24.8147 25.4015 24.8481 25.6761C24.8815 25.9507 24.9724 26.2151 25.1148 26.4523C25.2761 26.6611 25.4877 26.8258 25.7298 26.9308C25.9719 27.0359 26.2367 27.078 26.4994 27.0532C26.8114 27.0552 27.1212 27.0009 27.4138 26.8927C27.6887 26.7886 27.9419 26.6342 28.1602 26.4373C28.3916 26.2453 28.5874 26.0141 28.7387 25.7544C28.8899 25.4776 29.0016 25.1812 29.0709 24.8736C29.1331 24.5805 29.147 24.2791 29.112 23.9816C29.0783 23.734 28.9876 23.4976 28.847 23.2911ZM27.9923 25.4297C27.9146 25.6086 27.8101 25.7747 27.6825 25.9223C27.559 26.0653 27.408 26.1821 27.2384 26.2657C27.0636 26.3535 26.8704 26.3983 26.6748 26.3963C26.4829 26.4104 26.2912 26.3648 26.1262 26.2657C25.9948 26.1845 25.8917 26.0645 25.8314 25.9223C25.772 25.7651 25.7453 25.5975 25.753 25.4297C25.7445 25.2376 25.7634 25.0454 25.809 24.8586C25.8508 24.6658 25.9134 24.4781 25.9956 24.2988C26.0801 24.1253 26.1868 23.9635 26.3128 23.8174C26.4367 23.6731 26.5892 23.5561 26.7607 23.474C26.9322 23.3887 27.1215 23.3452 27.313 23.3471C27.4897 23.34 27.6647 23.3841 27.8169 23.474C27.9458 23.5538 28.0473 23.671 28.108 23.8099C28.1783 23.9624 28.2176 24.1273 28.2237 24.2951C28.2299 24.4844 28.2124 24.6737 28.1714 24.8586C28.1341 25.0553 28.074 25.2469 27.9923 25.4297Z" fill="white"/>
<path d="M8.00275 23.2911C7.86808 23.0954 7.68215 22.9404 7.46531 22.8433C7.19928 22.7338 6.91313 22.6816 6.62557 22.6902C6.02032 22.6703 5.42984 22.8796 4.97222 23.2762C4.51249 23.6924 4.20289 24.2486 4.09142 24.8586C4.01252 25.1232 3.98871 25.4011 4.02144 25.6752C4.05418 25.9493 4.14278 26.2138 4.28176 26.4523C4.44578 26.6629 4.66054 26.8285 4.90596 26.9336C5.15137 27.0387 5.41943 27.0798 5.68506 27.0532C5.99699 27.0547 6.30668 27.0003 6.59945 26.8927C6.87389 26.7876 7.12685 26.6333 7.34588 26.4373C7.55895 26.2395 7.73911 26.0089 7.87958 25.7544C8.03205 25.473 8.14388 25.1714 8.21175 24.8586C8.27414 24.5707 8.29176 24.2749 8.264 23.9816C8.23148 23.7343 8.14206 23.498 8.00275 23.2911ZM7.12942 25.4297C7.05118 25.6072 6.94676 25.772 6.81964 25.9186C6.69704 26.0636 6.54585 26.1817 6.37551 26.2657C6.19957 26.3539 6.00504 26.3987 5.80822 26.3963C5.62879 26.4026 5.45131 26.3573 5.29692 26.2657C5.16488 26.1835 5.0618 26.0622 5.00207 25.9186C4.93824 25.7633 4.90406 25.5975 4.9013 25.4297C4.89977 25.2377 4.9198 25.0461 4.96102 24.8586C5.00118 24.6654 5.0638 24.4775 5.14763 24.2988C5.23215 24.1244 5.34014 23.9624 5.4686 23.8174C5.59112 23.6732 5.74239 23.5563 5.91273 23.474C6.08644 23.3874 6.27846 23.3438 6.47255 23.3471C6.64567 23.34 6.81704 23.3842 6.9652 23.474C7.09783 23.5515 7.2024 23.6691 7.26377 23.8099C7.33108 23.9632 7.36906 24.1278 7.37574 24.2951C7.3825 24.4846 7.36367 24.6741 7.31976 24.8586C7.28064 25.0562 7.21669 25.2481 7.12942 25.4297Z" fill="white"/>
<path d="M32.359 22.8283L31.9857 22.735C31.7963 22.6993 31.6036 22.6842 31.411 22.6902C31.2147 22.6894 31.0191 22.7133 30.8288 22.7611C30.642 22.8092 30.4634 22.8847 30.2988 22.9851C30.1263 23.0884 29.9766 23.2255 29.8584 23.3882C29.7346 23.5654 29.6482 23.7661 29.6046 23.9778C29.5675 24.1374 29.5675 24.3034 29.6046 24.463C29.6359 24.5902 29.6974 24.7079 29.7837 24.8064C29.8701 24.8935 29.9696 24.9665 30.0786 25.0228C30.1984 25.095 30.3231 25.1586 30.4518 25.2132C30.6326 25.2815 30.8043 25.3718 30.9631 25.4819C31.0148 25.5272 31.0517 25.5871 31.069 25.6536C31.0863 25.7201 31.0832 25.7903 31.0602 25.8551C31.0421 25.9438 31.0033 26.0269 30.9469 26.0977C30.8904 26.1684 30.8179 26.2247 30.7355 26.2619C30.5613 26.344 30.3723 26.39 30.1798 26.3971C29.9874 26.4041 29.7955 26.3721 29.6158 26.303C29.5071 26.2625 29.4012 26.2151 29.2986 26.1612C29.2958 26.158 29.2923 26.1554 29.2885 26.1537C29.2846 26.152 29.2804 26.1511 29.2762 26.1511C29.2719 26.1511 29.2677 26.152 29.2639 26.1537C29.26 26.1554 29.2566 26.158 29.2538 26.1612C29.2538 26.1612 29.0373 26.8292 29.0298 26.8479C29.0274 26.8578 29.0287 26.8682 29.0336 26.8772C29.0384 26.8861 29.0464 26.893 29.056 26.8964L29.2762 26.9486C29.5433 27.0092 29.8159 27.0417 30.0898 27.0457C30.307 27.0473 30.5237 27.0235 30.7355 26.9748C30.9335 26.9289 31.1235 26.8534 31.299 26.7508C31.4654 26.6481 31.6099 26.5137 31.7245 26.3552C31.8479 26.1814 31.9354 25.9848 31.982 25.7767C32.0209 25.6098 32.0209 25.4361 31.982 25.2692C31.9484 25.1383 31.883 25.0179 31.7917 24.9183C31.7041 24.83 31.6033 24.7557 31.4931 24.6981C31.3849 24.6384 31.2468 24.5787 31.0863 24.5078C30.9155 24.4476 30.7536 24.3647 30.6048 24.2615C30.556 24.2257 30.5199 24.1753 30.5017 24.1175C30.4836 24.0598 30.4844 23.9978 30.5041 23.9405C30.5234 23.8391 30.5655 23.7434 30.6272 23.6606C30.6787 23.5876 30.7464 23.5276 30.825 23.4852C30.8994 23.4412 30.9799 23.4084 31.0639 23.3882C31.3115 23.3331 31.5694 23.346 31.8103 23.4255L32.1164 23.5225C32.1253 23.525 32.1348 23.5241 32.1431 23.5199C32.1513 23.5158 32.1578 23.5087 32.1611 23.5001L32.3701 22.8806C32.3888 22.8507 32.3739 22.8283 32.359 22.8283Z" fill="white"/>
<path d="M24.6333 23.4217C24.5788 23.2613 24.4741 23.1226 24.3348 23.0261C24.1785 22.9248 24.0033 22.8563 23.8197 22.8246C23.6056 22.7847 23.3881 22.7659 23.1703 22.7686H22.1365C22.1254 22.7683 22.1145 22.7719 22.1056 22.7787C22.0968 22.7855 22.0906 22.7951 22.088 22.8059L21.1923 26.9486C21.1923 26.971 21.1923 26.986 21.2259 26.986H21.9723C21.983 26.9861 21.9934 26.9824 22.0016 26.9756C22.0098 26.9688 22.0153 26.9592 22.0171 26.9486L22.3492 25.4558C22.7859 25.463 23.2205 25.3935 23.6331 25.2505C23.7426 25.2088 23.8476 25.1563 23.9466 25.0938C24.1288 24.9754 24.2829 24.8187 24.3982 24.6347C24.5137 24.4497 24.5935 24.2446 24.6333 24.0301C24.6895 23.8312 24.6895 23.6206 24.6333 23.4217ZM23.76 24.0749C23.7456 24.1749 23.709 24.2704 23.6528 24.3544C23.5966 24.4383 23.5223 24.5086 23.4353 24.5601C23.144 24.6874 22.8273 24.7462 22.5097 24.7317L22.7934 23.4255H23.0957C23.2899 23.4149 23.4823 23.4672 23.6443 23.5748C23.7081 23.6392 23.7526 23.7201 23.7731 23.8084C23.7935 23.8967 23.789 23.989 23.76 24.0749Z" fill="white"/>
<path d="M36.0837 23.4255C36.0936 23.4233 36.1028 23.4188 36.1106 23.4123C36.1184 23.4058 36.1245 23.3975 36.1285 23.3882L36.2553 22.7985C36.2553 22.7761 36.2553 22.7611 36.2218 22.7611H33.0457C33.0345 22.7608 33.0236 22.7644 33.0148 22.7712C33.0059 22.778 32.9997 22.7876 32.9972 22.7985L32.8777 23.3882C32.8766 23.3926 32.8765 23.3973 32.8774 23.4019C32.8784 23.4064 32.8804 23.4107 32.8833 23.4143C32.8862 23.4179 32.8899 23.4208 32.8941 23.4227C32.8983 23.4247 32.9029 23.4256 32.9076 23.4255H34.0272C34.0272 23.4255 34.0608 23.4255 34.0534 23.4591L33.3069 26.9412C33.3058 26.9454 33.3056 26.9498 33.3064 26.954C33.3072 26.9583 33.3089 26.9623 33.3113 26.9659C33.3138 26.9695 33.3171 26.9724 33.3208 26.9746C33.3246 26.9768 33.3287 26.9781 33.333 26.9785H34.1056C34.1159 26.9774 34.1257 26.9733 34.1337 26.9667C34.1417 26.96 34.1475 26.9512 34.1504 26.9412L34.8968 23.4591C34.8987 23.4488 34.9043 23.4397 34.9126 23.4335C34.9209 23.4272 34.9313 23.4244 34.9416 23.4255H36.0837Z" fill="white"/>
<path d="M11.8954 23.2687C11.8192 23.1118 11.6856 22.9902 11.5222 22.9291C11.3452 22.8505 11.1556 22.8037 10.9624 22.791C10.7646 22.7686 10.4958 22.7686 10.1749 22.7686H9.30154C9.29056 22.7689 9.27996 22.7727 9.27125 22.7794C9.26254 22.7861 9.25616 22.7954 9.25303 22.8059L8.3573 26.9486C8.35614 26.9531 8.35604 26.9578 8.35701 26.9624C8.35798 26.9669 8.36 26.9712 8.36289 26.9748C8.36579 26.9784 8.36949 26.9813 8.3737 26.9832C8.37792 26.9852 8.38252 26.9861 8.38716 26.986H9.15226C9.16259 26.9849 9.17236 26.9808 9.18034 26.9741C9.18832 26.9675 9.19413 26.9586 9.19704 26.9486L9.57026 25.2281H9.84271C9.96807 25.2179 10.0932 25.2509 10.1973 25.3214C10.2765 25.4203 10.3269 25.5391 10.3428 25.6648L10.5593 26.9486C10.5622 26.9586 10.568 26.9675 10.576 26.9741C10.584 26.9808 10.5937 26.9849 10.6041 26.986H11.4662C11.471 26.986 11.4756 26.985 11.48 26.9831C11.4843 26.9812 11.4882 26.9784 11.4914 26.9749C11.4946 26.9713 11.4969 26.9672 11.4984 26.9627C11.4998 26.9581 11.5003 26.9534 11.4998 26.9486L11.1975 25.3289C11.1755 25.2214 11.1337 25.1189 11.0743 25.0266C11.0489 24.9874 11.0148 24.9546 10.9746 24.9307C10.9345 24.9068 10.8895 24.8923 10.8429 24.8885C11.1071 24.8532 11.3543 24.7387 11.552 24.5601C11.7408 24.3845 11.8711 24.1552 11.9253 23.9032C11.9821 23.6938 11.9717 23.4718 11.8954 23.2687ZM11.0221 23.9741C11.0013 24.0871 10.9511 24.1927 10.8765 24.2801C10.8092 24.3563 10.7265 24.4174 10.6339 24.4593C10.5366 24.4979 10.4352 24.5255 10.3316 24.5414C10.2198 24.5495 10.1076 24.5495 9.99573 24.5414H9.70462L9.95094 23.4217H10.2309C10.3439 23.4135 10.4574 23.4135 10.5705 23.4217C10.6592 23.4403 10.7447 23.4717 10.8243 23.515C10.899 23.5515 10.9595 23.612 10.996 23.6867C11.0329 23.7778 11.042 23.8778 11.0221 23.9741Z" fill="white"/>
<path d="M15.6388 22.7985C15.6388 22.7761 15.6388 22.7611 15.6089 22.7611H13.1606C13.1501 22.7617 13.1401 22.7656 13.132 22.7723C13.1239 22.7791 13.1182 22.7882 13.1158 22.7985L12.2164 26.9412C12.2164 26.9636 12.2164 26.9785 12.2462 26.9785H14.7095C14.72 26.978 14.73 26.9741 14.7381 26.9673C14.7462 26.9606 14.7518 26.9514 14.7543 26.9412L14.8812 26.3552C14.8812 26.3328 14.8812 26.3142 14.8513 26.3142H13.2353L13.4928 25.1273H14.9558C14.9612 25.1279 14.9666 25.1273 14.9718 25.1257C14.977 25.1241 14.9818 25.1215 14.986 25.118C14.9901 25.1145 14.9936 25.1103 14.9961 25.1055C14.9986 25.1007 15.0001 25.0954 15.0006 25.09L15.1312 24.5041C15.1324 24.4996 15.1325 24.4949 15.1315 24.4903C15.1305 24.4858 15.1285 24.4816 15.1256 24.4779C15.1227 24.4743 15.119 24.4714 15.1148 24.4695C15.1106 24.4675 15.106 24.4666 15.1014 24.4668H13.6346L13.8585 23.4255H15.4634C15.4742 23.4246 15.4846 23.4207 15.4932 23.414C15.5018 23.4074 15.5083 23.3984 15.5119 23.3882L15.6388 22.7985Z" fill="white"/>
<path d="M4.41612 22.7686H3.29647C3.27341 22.7717 3.25155 22.7807 3.23302 22.7947L1.36693 24.5862L1.74015 22.8059C1.74068 22.8012 1.7402 22.7964 1.73875 22.7919C1.7373 22.7874 1.73491 22.7833 1.73173 22.7797C1.72856 22.7762 1.72468 22.7734 1.72034 22.7715C1.716 22.7696 1.7113 22.7686 1.70656 22.7686H0.941461C0.931133 22.7697 0.921356 22.7738 0.913379 22.7804C0.905402 22.7871 0.899587 22.796 0.896675 22.8059L0.000952022 26.9412C-0.000209962 26.9457 -0.000309697 26.9504 0.000660728 26.9549C0.00163115 26.9594 0.00364505 26.9637 0.0065427 26.9673C0.00944035 26.9709 0.0131421 26.9738 0.0173543 26.9758C0.0215665 26.9777 0.0261733 26.9787 0.0308095 26.9785H0.795906C0.806744 26.9777 0.817102 26.9737 0.825718 26.9671C0.834334 26.9604 0.840834 26.9514 0.844425 26.9412L1.26243 25.0079L2.34849 26.93C2.35356 26.9404 2.36155 26.9491 2.37149 26.9551C2.38143 26.9611 2.39289 26.964 2.40448 26.9636H3.42709C3.44949 26.9636 3.46068 26.9636 3.44949 26.93L2.24026 24.8549L4.43851 22.7873C4.43851 22.7873 4.43851 22.7686 4.41612 22.7686Z" fill="white"/>
<path d="M18.6619 22.7985C18.6589 22.7885 18.6531 22.7796 18.6451 22.773C18.6372 22.7663 18.6274 22.7622 18.6171 22.7611H17.796C17.7845 22.7611 17.7732 22.7643 17.7633 22.7702C17.7535 22.7761 17.7454 22.7846 17.74 22.7947L15.3029 26.9449C15.3029 26.9673 15.3029 26.9785 15.3029 26.9785H16.0493C16.0609 26.9789 16.0724 26.976 16.0823 26.97C16.0923 26.9641 16.1002 26.9553 16.1053 26.9449L16.7958 25.7544C16.8021 25.7454 16.8105 25.738 16.8202 25.7328C16.8299 25.7276 16.8407 25.7248 16.8517 25.7245H18.2327C18.2381 25.7213 18.2444 25.7196 18.2507 25.7195C18.2571 25.7193 18.2633 25.7208 18.269 25.7238C18.2746 25.7268 18.2793 25.7312 18.2828 25.7365C18.2862 25.7419 18.2882 25.748 18.2886 25.7544L18.4379 26.9412C18.4389 26.9514 18.4436 26.9609 18.4512 26.9678C18.4588 26.9747 18.4687 26.9785 18.479 26.9785H19.2889C19.315 26.9785 19.3299 26.9785 19.3224 26.9412L18.6619 22.7985ZM17.225 25.0378C17.2026 25.0378 17.1988 25.0378 17.2026 25.0005L17.9789 23.6158H18.0125L18.1841 24.9967C18.1847 25.0014 18.1842 25.0062 18.1827 25.0107C18.1813 25.0152 18.1789 25.0194 18.1757 25.0229C18.1725 25.0264 18.1687 25.0293 18.1643 25.0312C18.16 25.0331 18.1553 25.0341 18.1505 25.034L17.225 25.0378Z" fill="white"/>
</svg>
