<svg width="326" height="314" viewBox="0 0 326 314" fill="none" xmlns="http://www.w3.org/2000/svg">
<path d="M162.017 54.4525C203.033 54.4525 235.65 66.7572 259.869 91.3666C281.744 113.242 292.681 140.39 292.681 172.812C292.681 204.453 281.744 231.406 259.869 253.671C235.65 278.281 203.033 290.585 162.017 290.585C121.001 290.585 88.3843 278.281 64.1655 253.671C42.6812 231.406 31.939 204.453 31.939 172.812C31.939 140.39 42.6812 113.242 64.1655 91.3666C88.3843 66.7572 121.001 54.4525 162.017 54.4525ZM161.431 313.437C211.041 313.437 250.689 299.374 280.376 271.249C307.33 245.859 321.587 213.632 323.15 174.57C324.712 140.976 313.384 110.898 289.166 84.3353C262.212 55.0385 225.689 38.6322 179.595 35.1166C180.376 32.7728 181.353 30.6244 182.525 28.6713C182.916 27.4994 183.892 25.9369 185.455 23.9838C187.408 20.8588 188.384 18.515 188.384 16.9525C188.384 15.39 186.431 13.6322 182.525 11.6791L158.501 4.06189C149.517 1.71814 143.072 1.91345 139.166 4.64783C135.259 6.99158 134.673 9.14001 137.408 11.0931C143.267 13.4369 147.369 16.7572 149.712 21.0541C151.666 24.5697 152.447 29.0619 152.056 34.5306C104.009 36.0931 65.9233 51.5228 37.7983 80.8197C12.7983 106.601 0.884277 136.679 2.05615 171.054C2.44678 210.898 15.9233 243.906 42.4858 270.078C71.3921 298.984 111.041 313.437 161.431 313.437Z" fill="#EFEFEF"/>
<path d="M259.869 91.3666L257.73 93.4709L257.739 93.4794L257.747 93.4879L259.869 91.3666ZM259.869 253.671L262.007 255.776L262.009 255.774L259.869 253.671ZM64.1655 253.671L62.0067 255.754L62.0169 255.765L62.0273 255.776L64.1655 253.671ZM64.1655 91.3666L62.0273 89.2623L62.0252 89.2645L64.1655 91.3666ZM280.376 271.249L278.319 269.066L278.313 269.072L280.376 271.249ZM323.15 174.57L320.153 174.43L320.153 174.44L320.152 174.45L323.15 174.57ZM289.166 84.3353L291.382 82.314L291.373 82.3042L289.166 84.3353ZM179.595 35.1166L176.749 34.1679L175.533 37.8155L179.367 38.1079L179.595 35.1166ZM182.525 28.6713L185.097 30.2148L185.267 29.9324L185.371 29.6199L182.525 28.6713ZM185.455 23.9838L187.797 25.8578L187.906 25.7217L187.999 25.5738L185.455 23.9838ZM182.525 11.6791L183.867 8.9958L183.656 8.89053L183.432 8.81939L182.525 11.6791ZM158.501 4.06189L159.408 1.2022L159.334 1.17868L159.259 1.15904L158.501 4.06189ZM139.166 4.64783L140.709 7.22031L140.799 7.16602L140.886 7.10552L139.166 4.64783ZM137.408 11.0931L135.664 13.5343L135.958 13.7444L136.294 13.8786L137.408 11.0931ZM149.712 21.0541L147.079 22.4906L147.084 22.5008L147.09 22.511L149.712 21.0541ZM152.056 34.5306L152.154 37.5291L154.856 37.4412L155.049 34.7444L152.056 34.5306ZM37.7983 80.8197L39.952 82.9081L39.9573 82.9027L39.9625 82.8973L37.7983 80.8197ZM2.05615 171.054L5.05601 171.025L5.05565 170.988L5.05441 170.952L2.05615 171.054ZM42.4858 270.078L44.6072 267.956L44.5993 267.948L44.5914 267.941L42.4858 270.078ZM162.017 57.4525C202.391 57.4525 234.18 69.5409 257.73 93.4709L262.007 89.2623C237.12 63.9735 203.674 51.4525 162.017 51.4525V57.4525ZM257.747 93.4879C279.03 114.771 289.681 141.143 289.681 172.812H295.681C295.681 139.637 284.457 111.712 261.99 89.2453L257.747 93.4879ZM289.681 172.812C289.681 203.678 279.044 229.873 257.729 251.569L262.009 255.774C284.443 232.939 295.681 205.227 295.681 172.812H289.681ZM257.73 251.567C234.18 275.497 202.391 287.585 162.017 287.585V293.585C203.674 293.585 237.12 281.064 262.007 255.776L257.73 251.567ZM162.017 287.585C121.643 287.585 89.8539 275.497 66.3037 251.567L62.0273 255.776C86.9147 281.064 120.36 293.585 162.017 293.585V287.585ZM66.3244 251.588C45.3931 229.896 34.939 203.695 34.939 172.812H28.939C28.939 205.21 39.9692 232.916 62.0067 255.754L66.3244 251.588ZM34.939 172.812C34.939 141.126 45.4065 114.748 66.3059 93.4687L62.0252 89.2645C39.9558 111.735 28.939 139.654 28.939 172.812H34.939ZM66.3037 93.4709C89.8539 69.5409 121.643 57.4525 162.017 57.4525V51.4525C120.36 51.4525 86.9147 63.9735 62.0273 89.2623L66.3037 93.4709ZM161.431 316.437C211.635 316.437 252.081 302.188 282.44 273.427L278.313 269.072C249.297 296.561 210.446 310.437 161.431 310.437V316.437ZM282.434 273.433C309.993 247.472 324.556 214.488 326.148 174.69L320.152 174.45C318.619 212.776 304.667 244.246 278.319 269.066L282.434 273.433ZM326.147 174.709C327.749 140.262 316.097 109.42 291.382 82.3141L286.949 86.3566C310.672 112.376 321.676 141.69 320.153 174.43L326.147 174.709ZM291.373 82.3042C263.823 52.3585 226.544 35.6887 179.823 32.1253L179.367 38.1079C224.834 41.5757 260.601 57.7184 286.958 86.3665L291.373 82.3042ZM182.441 36.0653C183.159 33.9118 184.047 31.9651 185.097 30.2148L179.952 27.1278C178.659 29.2837 177.594 31.6339 176.749 34.1679L182.441 36.0653ZM185.371 29.6199C185.585 28.977 186.277 27.7584 187.797 25.8578L183.112 22.1097C181.507 24.1154 180.246 26.0218 179.679 27.7226L185.371 29.6199ZM187.999 25.5738C189.027 23.9284 189.849 22.4101 190.421 21.036C190.978 19.699 191.384 18.3008 191.384 16.9525H185.384C185.384 17.1667 185.302 17.7217 184.883 18.7284C184.479 19.6981 183.835 20.9141 182.911 22.3938L187.999 25.5738ZM191.384 16.9525C191.384 14.8906 190.123 13.309 188.926 12.2324C187.661 11.0936 185.924 10.0246 183.867 8.9958L181.183 14.3624C183.032 15.2867 184.225 16.0732 184.913 16.6922C185.669 17.3734 185.384 17.4519 185.384 16.9525H191.384ZM183.432 8.81939L159.408 1.2022L157.595 6.92158L181.618 14.5388L183.432 8.81939ZM159.259 1.15904C150.15 -1.21719 142.518 -1.3607 137.445 2.19013L140.886 7.10552C143.626 5.1876 148.884 4.65347 157.744 6.96474L159.259 1.15904ZM137.622 2.07535C135.597 3.29035 133.527 4.93586 132.902 7.22762C132.117 10.1049 133.886 12.2643 135.664 13.5343L139.151 8.65194C138.69 8.32247 138.611 8.15079 138.637 8.19965C138.705 8.32877 138.752 8.58117 138.691 8.80632C138.653 8.94269 138.639 8.8311 138.98 8.49034C139.311 8.15923 139.86 7.72962 140.709 7.22031L137.622 2.07535ZM136.294 13.8786C141.696 16.0394 145.156 18.9653 147.079 22.4906L152.346 19.6175C149.581 14.5491 144.839 10.8344 138.522 8.30771L136.294 13.8786ZM147.09 22.511C148.675 25.3636 149.428 29.2243 149.064 34.3169L155.049 34.7444C155.466 28.8994 154.656 23.7758 152.335 19.5971L147.09 22.511ZM151.959 31.5322C103.283 33.1152 64.3996 48.7782 35.6342 78.7421L39.9625 82.8973C67.4471 54.2675 104.735 39.0711 152.154 37.5291L151.959 31.5322ZM35.6446 78.7313C10.1053 105.069 -2.1431 135.927 -0.942106 171.156L5.05441 170.952C3.91165 137.431 15.4914 108.133 39.952 82.9081L35.6446 78.7313ZM-0.943703 171.083C-0.545893 211.66 13.2113 245.445 40.3803 272.214L44.5914 267.941C18.6353 242.366 5.43945 210.135 5.05601 171.025L-0.943703 171.083ZM40.3645 272.199C69.9585 301.793 110.441 316.437 161.431 316.437V310.437C111.64 310.437 72.8257 296.175 44.6072 267.956L40.3645 272.199Z" fill="#EFEFEF"/>
</svg>
