<svg width="292" height="232" viewBox="0 0 292 232" fill="none" xmlns="http://www.w3.org/2000/svg">
<mask id="path-1-outside-1_166_2" maskUnits="userSpaceOnUse" x="-0.206055" y="-0.685059" width="292" height="233" fill="black">
<rect fill="white" x="-0.206055" y="-0.685059" width="292" height="233"/>
<path d="M230.452 58.012L226.931 56.7286L196.586 47.4795C177.344 41.9156 163.378 37.7915 154.689 35.1072C140.161 30.5365 130.657 27.4345 126.177 25.8013C119.35 23.3126 113.104 20.5527 107.442 17.5216C104.261 15.6372 100.238 13.0827 95.3705 9.85834L92.4035 8.05166C89.8054 5.89609 87.7497 4.90497 86.2363 5.07839C84.7229 5.25183 84.644 6.79411 85.9998 9.70539C89.0425 13.9566 91.8139 17.6257 94.3142 20.7124C97.9969 25.197 101.622 29.1771 105.189 32.6527C108.193 35.6815 110.763 37.585 112.896 38.3627C114.39 38.9072 116.931 39.2292 120.52 39.3292C124.905 39.2356 128.96 39.3843 132.685 39.7753C138.989 40.3818 146.206 41.8037 154.333 44.0413L170.597 48.1575L178.074 50.5205C178.791 53.1986 179.108 55.9731 179.028 58.8443C178.948 61.7157 178.413 64.1792 177.422 66.2349C167.615 77.8873 154.588 89.0909 138.341 99.8456C124.152 108.934 108.226 117.147 90.5656 124.486C75.1559 130.954 59.9994 136.064 45.0965 139.816C31.4935 143.317 20.9184 145.142 13.3711 145.291C8.19091 145.578 5.58071 146.439 5.54073 147.875C5.71429 149.388 7.87663 150.418 12.0282 150.965C37.792 151.897 65.0348 147.446 93.7561 137.614C120.886 128.167 146.865 114.917 171.693 97.8641L233.149 216.706C235.823 221.306 238.11 224.315 240.01 225.733C241.561 226.781 243.239 227.152 245.044 226.843C247.877 225.7 249.286 222.83 249.27 218.232C249.274 212.916 247.049 205.095 242.596 194.77C238.257 185.454 234.324 178.341 230.797 173.429C228.375 170.13 225.127 166.77 221.056 163.353C214.891 157.722 209.599 151.684 205.181 145.239C197.74 133.825 188.781 116.299 178.303 92.6599C179.565 91.1865 181.148 89.8297 183.05 88.5896C184.292 87.8338 185.971 86.8749 188.087 85.7124C192.978 82.9031 195.823 80.0728 196.62 77.2214C197.536 72.7211 195.485 65.0852 190.469 54.3136C207.635 59.6042 223.084 64.6317 236.816 69.3958C252.759 74.7243 264.707 79.0796 272.659 82.4617C276.228 83.2794 279.167 83.5048 281.476 83.1379C284.29 82.7134 286.008 81.6478 286.63 79.941C287.35 77.3029 286.101 74.4305 282.883 71.3239C279.529 67.926 273.673 64.0993 265.314 59.8439C259.845 57.6083 255.315 56.4407 251.726 56.3409C249.36 56.2033 246.546 56.6278 243.286 57.6146C240.899 58.1949 238.988 58.465 237.552 58.4249C235.321 58.5785 232.954 58.4409 230.452 58.012Z"/>
<path d="M230.452 58.012L229.855 59.6506L230.002 59.7043L230.157 59.7309L230.452 58.012ZM226.931 56.7286L227.529 55.0901L227.485 55.0742L227.44 55.0605L226.931 56.7286ZM196.586 47.4795L197.094 45.8113L197.082 45.8077L197.07 45.8041L196.586 47.4795ZM154.689 35.1072L154.165 36.7708L154.17 36.7722L154.174 36.7736L154.689 35.1072ZM107.442 17.5216L106.553 19.022L106.585 19.0413L106.619 19.0592L107.442 17.5216ZM95.3705 9.85834L96.3337 8.40441L96.3059 8.386L96.2775 8.36872L95.3705 9.85834ZM92.4035 8.05166L91.2899 9.39384L91.3878 9.47507L91.4965 9.54121L92.4035 8.05166ZM85.9998 9.70539L84.4189 10.4417L84.4873 10.5886L84.5816 10.7204L85.9998 9.70539ZM94.3142 20.7124L92.959 21.8101L92.9627 21.8147L92.9664 21.8192L94.3142 20.7124ZM105.189 32.6527L106.427 31.4245L106.417 31.4139L106.406 31.4036L105.189 32.6527ZM120.52 39.3292L120.471 41.0724L120.514 41.0736L120.557 41.0727L120.52 39.3292ZM132.685 39.7753L132.502 41.5097L132.51 41.5105L132.518 41.5113L132.685 39.7753ZM154.333 44.0413L153.87 45.7227L153.887 45.7274L153.905 45.7319L154.333 44.0413ZM170.597 48.1575L171.123 46.4944L171.074 46.4792L171.025 46.4667L170.597 48.1575ZM178.074 50.5205L179.759 50.0703L179.512 49.1459L178.6 48.8577L178.074 50.5205ZM177.422 66.2349L178.756 67.3579L178.898 67.1901L178.993 66.9923L177.422 66.2349ZM138.341 99.8456L139.281 101.314L139.292 101.307L139.303 101.3L138.341 99.8456ZM90.5656 124.486L89.8962 122.875L89.8902 122.878L90.5656 124.486ZM45.0965 139.816L44.6707 138.125L44.6662 138.126L44.6617 138.127L45.0965 139.816ZM13.3711 145.291L13.3367 143.548L13.3058 143.548L13.2748 143.55L13.3711 145.291ZM5.54073 147.875L3.79754 147.826L3.79395 147.951L3.80819 148.073L5.54073 147.875ZM12.0282 150.965L11.8005 152.694L11.8824 152.705L11.965 152.708L12.0282 150.965ZM93.7561 137.614L94.3209 139.264L94.3252 139.262L94.3295 139.261L93.7561 137.614ZM171.693 97.8641L173.242 97.0627L172.335 95.3075L170.706 96.4265L171.693 97.8641ZM233.149 216.706L231.6 217.507L231.62 217.545L231.641 217.582L233.149 216.706ZM240.01 225.733L238.967 227.13L239 227.154L239.033 227.177L240.01 225.733ZM245.044 226.843L245.338 228.562L245.522 228.53L245.696 228.46L245.044 226.843ZM249.27 218.232L247.526 218.23L247.526 218.238L249.27 218.232ZM242.596 194.77L244.197 194.08L244.187 194.057L244.176 194.034L242.596 194.77ZM230.797 173.429L232.213 172.412L232.208 172.405L232.203 172.397L230.797 173.429ZM221.056 163.353L219.879 164.641L219.907 164.665L219.934 164.689L221.056 163.353ZM205.181 145.239L203.72 146.192L203.73 146.209L203.742 146.225L205.181 145.239ZM178.303 92.6599L176.978 91.5255L176.263 92.3612L176.709 93.3665L178.303 92.6599ZM183.05 88.5896L182.143 87.0995L182.12 87.1137L182.098 87.1286L183.05 88.5896ZM188.087 85.7124L188.927 87.2409L188.941 87.233L188.955 87.2248L188.087 85.7124ZM196.62 77.2214L198.3 77.6913L198.317 77.6307L198.329 77.5691L196.62 77.2214ZM190.469 54.3136L190.982 52.6469L187.231 51.4906L188.888 55.0498L190.469 54.3136ZM236.816 69.3958L236.245 71.0435L236.254 71.0468L236.263 71.0499L236.816 69.3958ZM272.659 82.4617L271.976 84.0665L272.119 84.1271L272.27 84.1617L272.659 82.4617ZM281.476 83.1379L281.216 81.4136L281.21 81.4146L281.202 81.4155L281.476 83.1379ZM286.63 79.941L288.269 80.5383L288.293 80.4701L288.312 80.4L286.63 79.941ZM282.883 71.3239L281.642 72.549L281.656 72.5639L281.671 72.5785L282.883 71.3239ZM265.314 59.8439L266.106 58.2897L266.041 58.2568L265.974 58.2295L265.314 59.8439ZM251.726 56.3409L251.625 58.0819L251.652 58.0836L251.678 58.0843L251.726 56.3409ZM243.286 57.6146L243.698 59.3095L243.745 59.298L243.791 59.2838L243.286 57.6146ZM237.552 58.4249L237.601 56.6818L237.516 56.6793L237.433 56.6851L237.552 58.4249ZM231.049 56.3735L227.529 55.0901L226.334 58.3672L229.855 59.6506L231.049 56.3735ZM227.44 55.0605L197.094 45.8113L196.077 49.1477L226.423 58.3969L227.44 55.0605ZM197.07 45.8041C177.83 40.2405 163.877 36.1201 155.203 33.4409L154.174 36.7736C162.88 39.4628 176.858 43.5906 196.101 49.1548L197.07 45.8041ZM155.212 33.4436C140.677 28.8705 131.211 25.7801 126.774 24.1628L125.579 27.4399C130.103 29.0888 139.646 32.2027 154.165 36.7708L155.212 33.4436ZM126.774 24.1628C120.015 21.6987 113.846 18.9715 108.265 15.984L106.619 19.0592C112.363 22.1338 118.685 24.9264 125.579 27.4399L126.774 24.1628ZM108.331 16.0212C105.185 14.1576 101.189 11.6208 96.3337 8.40441L94.4073 11.3122C99.2866 14.5447 103.337 17.1168 106.553 19.022L108.331 16.0212ZM96.2775 8.36872L93.3105 6.56204L91.4965 9.54121L94.4634 11.3479L96.2775 8.36872ZM93.5171 6.70949C92.1558 5.58001 90.871 4.69946 89.6706 4.12072C88.4838 3.54858 87.2468 3.20721 86.0378 3.34572L86.4348 6.81108C86.7393 6.77617 87.2867 6.84368 88.1558 7.26263C89.011 7.67494 90.0532 8.36774 91.2899 9.39384L93.5171 6.70949ZM86.0378 3.34572C85.3728 3.42193 84.6504 3.67698 84.0919 4.27881C83.536 4.87772 83.3342 5.6138 83.3004 6.27621C83.2377 7.5027 83.724 8.94953 84.4189 10.4417L87.5808 8.96913C87.2668 8.29488 87.0555 7.74091 86.9285 7.29793C86.798 6.84318 86.7776 6.57702 86.7838 6.45425C86.7894 6.34546 86.8063 6.48145 86.6486 6.65146C86.4881 6.82437 86.343 6.82161 86.4348 6.81108L86.0378 3.34572ZM84.5816 10.7204C87.6385 14.9916 90.4314 18.6896 92.959 21.8101L95.6695 19.6147C93.1965 16.5617 90.4464 12.9216 87.418 8.69038L84.5816 10.7204ZM92.9664 21.8192C96.6835 26.3457 100.352 30.3746 103.972 33.9018L106.406 31.4036C102.892 27.9796 99.3103 24.0483 95.6621 19.6056L92.9664 21.8192ZM103.951 33.881C107.005 36.9595 109.795 39.0885 112.299 40.0012L113.493 36.7241C111.73 36.0815 109.382 34.4038 106.427 31.4245L103.951 33.881ZM112.299 40.0012C114.081 40.6507 116.871 40.9723 120.471 41.0724L120.569 37.5858C116.991 37.4863 114.699 37.1636 113.493 36.7241L112.299 40.0012ZM120.557 41.0727C124.881 40.9805 128.861 41.1276 132.502 41.5097L132.866 38.0408C129.058 37.6409 124.929 37.4907 120.483 37.5854L120.557 41.0727ZM132.518 41.5113C138.696 42.1056 145.81 43.5037 153.87 45.7227L154.795 42.3597C146.601 40.1036 139.283 38.6578 132.851 38.0393L132.518 41.5113ZM153.905 45.7319L170.169 49.8481L171.025 46.4667L154.76 42.3505L153.905 45.7319ZM170.072 49.8204L177.549 52.1834L178.6 48.8577L171.123 46.4944L170.072 49.8204ZM176.389 50.9708C177.06 53.4804 177.36 56.0867 177.285 58.7959L180.772 58.893C180.856 55.8596 180.52 52.9166 179.759 50.0703L176.389 50.9708ZM177.285 58.7959C177.21 61.483 176.711 63.6928 175.851 65.4776L178.993 66.9923C180.115 64.6658 180.686 61.9484 180.772 58.893L177.285 58.7959ZM176.087 65.1119C166.413 76.6068 153.523 87.7046 137.378 98.3913L139.303 101.3C155.653 90.4772 168.817 79.1678 178.756 67.3579L176.087 65.1119ZM137.4 98.3772C123.307 107.403 107.475 115.57 89.8962 122.875L91.2348 126.096C108.977 118.723 124.995 110.464 139.281 101.314L137.4 98.3772ZM89.8902 122.878C74.5549 129.315 59.4816 134.396 44.6707 138.125L45.5222 141.507C60.5172 137.732 75.7569 132.593 91.2405 126.094L89.8902 122.878ZM44.6617 138.127C31.0982 141.618 20.679 143.402 13.3367 143.548L13.4058 147.035C21.1575 146.882 31.8886 145.016 45.5311 141.505L44.6617 138.127ZM13.2748 143.55C10.6415 143.695 8.50915 143.992 6.98184 144.496C6.22094 144.747 5.4864 145.089 4.91041 145.588C4.29783 146.119 3.82406 146.873 3.79754 147.826L7.28413 147.923C7.27759 148.159 7.14505 148.267 7.19491 148.224C7.28137 148.149 7.5307 147.988 8.0749 147.808C9.15758 147.451 10.9208 147.173 13.4677 147.032L13.2748 143.55ZM3.80819 148.073C3.99633 149.715 5.24505 150.739 6.5427 151.357C7.86789 151.988 9.65754 152.412 11.8005 152.694L12.2557 149.236C10.2471 148.971 8.87996 148.607 8.04261 148.208C7.17792 147.796 7.2587 147.549 7.27348 147.676L3.80819 148.073ZM11.965 152.708C37.9764 153.649 65.4329 149.154 94.3209 139.264L93.1912 135.963C64.6367 145.74 37.6076 150.145 12.091 149.222L11.965 152.708ZM94.3295 139.261C121.613 129.761 147.731 116.439 172.68 99.3014L170.706 96.4265C146 113.396 120.16 126.574 93.1827 135.967L94.3295 139.261ZM170.144 98.6652L231.6 217.507L234.698 215.905L173.242 97.0627L170.144 98.6652ZM231.641 217.582C234.322 222.195 236.758 225.482 238.967 227.13L241.053 224.335C239.462 223.148 237.323 220.417 234.657 215.829L231.641 217.582ZM239.033 227.177C240.947 228.472 243.079 228.949 245.338 228.562L244.749 225.123C243.399 225.354 242.175 225.092 240.987 224.288L239.033 227.177ZM245.696 228.46C249.508 226.923 251.031 223.119 251.014 218.226L247.526 218.238C247.541 222.54 246.246 224.477 244.392 225.225L245.696 228.46ZM251.014 218.233C251.019 212.535 248.663 204.433 244.197 194.08L240.994 195.461C245.436 205.758 247.53 213.297 247.526 218.23L251.014 218.233ZM244.176 194.034C239.819 184.678 235.833 177.452 232.213 172.412L229.38 174.447C232.815 179.23 236.695 186.231 241.015 195.507L244.176 194.034ZM232.203 172.397C229.678 168.958 226.326 165.499 222.177 162.017L219.934 164.689C223.929 168.042 227.071 171.302 229.391 174.462L232.203 172.397ZM222.232 162.065C216.159 156.518 210.957 150.58 206.619 144.253L203.742 146.225C208.241 152.787 213.623 158.925 219.879 164.641L222.232 162.065ZM206.642 144.287C199.279 132.992 190.364 115.568 179.898 91.9536L176.709 93.3665C187.197 117.03 196.201 134.658 203.72 146.192L206.642 144.287ZM179.627 93.7943C180.766 92.4662 182.216 91.2153 184.002 90.0505L182.098 87.1286C180.079 88.4442 178.365 89.9069 176.978 91.5255L179.627 93.7943ZM183.957 90.0796C185.167 89.3429 186.821 88.3978 188.927 87.2409L187.247 84.1839C185.121 85.3518 183.417 86.3247 182.143 87.0995L183.957 90.0796ZM188.955 87.2248C193.925 84.3705 197.307 81.2415 198.3 77.6913L194.941 76.7516C194.339 78.9042 192.031 81.4357 187.218 84.2L188.955 87.2248ZM198.329 77.5691C198.867 74.9272 198.505 71.583 197.454 67.667C196.392 63.716 194.582 59.014 192.05 53.5773L188.888 55.0498C191.372 60.3849 193.095 64.8865 194.085 68.5715C195.083 72.2913 195.29 75.0155 194.911 76.8738L198.329 77.5691ZM189.955 55.9801C207.106 61.2663 222.535 66.2874 236.245 71.0435L237.388 67.7481C223.632 62.976 208.164 57.9423 190.982 52.6469L189.955 55.9801ZM236.263 71.0499C252.196 76.3747 264.09 80.7124 271.976 84.0665L273.342 80.8569C265.324 77.4467 253.323 73.0739 237.369 67.7418L236.263 71.0499ZM272.27 84.1617C275.947 85.004 279.132 85.2764 281.75 84.8604L281.202 81.4155C279.203 81.7333 276.509 81.5546 273.049 80.7618L272.27 84.1617ZM281.737 84.8625C284.796 84.4008 287.321 83.1384 288.269 80.5383L284.991 79.3437C284.695 80.1571 283.784 81.0259 281.216 81.4136L281.737 84.8625ZM288.312 80.4C289.289 76.8232 287.462 73.3209 284.094 70.069L281.671 72.5785C284.739 75.5402 285.411 77.7826 284.947 79.4817L288.312 80.4ZM284.124 70.0987C280.566 66.4939 274.502 62.5647 266.106 58.2897L264.523 61.398C272.843 65.6341 278.492 69.3581 281.642 72.549L284.124 70.0987ZM265.974 58.2295C260.419 55.9591 255.666 54.7059 251.775 54.5975L251.678 58.0843C254.965 58.1756 259.271 59.2578 264.654 61.4582L265.974 58.2295ZM251.828 54.5998C249.188 54.4463 246.158 54.9228 242.78 55.9454L243.791 59.2838C246.933 58.3326 249.532 57.9602 251.625 58.0819L251.828 54.5998ZM242.874 55.92C240.547 56.4855 238.81 56.7153 237.601 56.6818L237.504 60.1684C239.165 60.2145 241.251 59.9041 243.698 59.3095L242.874 55.92ZM237.433 56.6851C235.357 56.8278 233.13 56.7015 230.746 56.293L230.157 59.7309C232.778 60.1801 235.285 60.3291 237.672 60.165L237.433 56.6851Z"/>
</mask>
<path d="M230.452 58.012L226.931 56.7286L196.586 47.4795C177.344 41.9156 163.378 37.7915 154.689 35.1072C140.161 30.5365 130.657 27.4345 126.177 25.8013C119.35 23.3126 113.104 20.5527 107.442 17.5216C104.261 15.6372 100.238 13.0827 95.3705 9.85834L92.4035 8.05166C89.8054 5.89609 87.7497 4.90497 86.2363 5.07839C84.7229 5.25183 84.644 6.79411 85.9998 9.70539C89.0425 13.9566 91.8139 17.6257 94.3142 20.7124C97.9969 25.197 101.622 29.1771 105.189 32.6527C108.193 35.6815 110.763 37.585 112.896 38.3627C114.39 38.9072 116.931 39.2292 120.52 39.3292C124.905 39.2356 128.96 39.3843 132.685 39.7753C138.989 40.3818 146.206 41.8037 154.333 44.0413L170.597 48.1575L178.074 50.5205C178.791 53.1986 179.108 55.9731 179.028 58.8443C178.948 61.7157 178.413 64.1792 177.422 66.2349C167.615 77.8873 154.588 89.0909 138.341 99.8456C124.152 108.934 108.226 117.147 90.5656 124.486C75.1559 130.954 59.9994 136.064 45.0965 139.816C31.4935 143.317 20.9184 145.142 13.3711 145.291C8.19091 145.578 5.58071 146.439 5.54073 147.875C5.71429 149.388 7.87663 150.418 12.0282 150.965C37.792 151.897 65.0348 147.446 93.7561 137.614C120.886 128.167 146.865 114.917 171.693 97.8641L233.149 216.706C235.823 221.306 238.11 224.315 240.01 225.733C241.561 226.781 243.239 227.152 245.044 226.843C247.877 225.7 249.286 222.83 249.27 218.232C249.274 212.916 247.049 205.095 242.596 194.77C238.257 185.454 234.324 178.341 230.797 173.429C228.375 170.13 225.127 166.77 221.056 163.353C214.891 157.722 209.599 151.684 205.181 145.239C197.74 133.825 188.781 116.299 178.303 92.6599C179.565 91.1865 181.148 89.8297 183.05 88.5896C184.292 87.8338 185.971 86.8749 188.087 85.7124C192.978 82.9031 195.823 80.0728 196.62 77.2214C197.536 72.7211 195.485 65.0852 190.469 54.3136C207.635 59.6042 223.084 64.6317 236.816 69.3958C252.759 74.7243 264.707 79.0796 272.659 82.4617C276.228 83.2794 279.167 83.5048 281.476 83.1379C284.29 82.7134 286.008 81.6478 286.63 79.941C287.35 77.3029 286.101 74.4305 282.883 71.3239C279.529 67.926 273.673 64.0993 265.314 59.8439C259.845 57.6083 255.315 56.4407 251.726 56.3409C249.36 56.2033 246.546 56.6278 243.286 57.6146C240.899 58.1949 238.988 58.465 237.552 58.4249C235.321 58.5785 232.954 58.4409 230.452 58.012Z" fill="#EFEFEF"/>
<path d="M230.452 58.012L229.855 59.6506L230.002 59.7043L230.157 59.7309L230.452 58.012ZM226.931 56.7286L227.529 55.0901L227.485 55.0742L227.44 55.0605L226.931 56.7286ZM196.586 47.4795L197.094 45.8113L197.082 45.8077L197.07 45.8041L196.586 47.4795ZM154.689 35.1072L154.165 36.7708L154.17 36.7722L154.174 36.7736L154.689 35.1072ZM107.442 17.5216L106.553 19.022L106.585 19.0413L106.619 19.0592L107.442 17.5216ZM95.3705 9.85834L96.3337 8.40441L96.3059 8.386L96.2775 8.36872L95.3705 9.85834ZM92.4035 8.05166L91.2899 9.39384L91.3878 9.47507L91.4965 9.54121L92.4035 8.05166ZM85.9998 9.70539L84.4189 10.4417L84.4873 10.5886L84.5816 10.7204L85.9998 9.70539ZM94.3142 20.7124L92.959 21.8101L92.9627 21.8147L92.9664 21.8192L94.3142 20.7124ZM105.189 32.6527L106.427 31.4245L106.417 31.4139L106.406 31.4036L105.189 32.6527ZM120.52 39.3292L120.471 41.0724L120.514 41.0736L120.557 41.0727L120.52 39.3292ZM132.685 39.7753L132.502 41.5097L132.51 41.5105L132.518 41.5113L132.685 39.7753ZM154.333 44.0413L153.87 45.7227L153.887 45.7274L153.905 45.7319L154.333 44.0413ZM170.597 48.1575L171.123 46.4944L171.074 46.4792L171.025 46.4667L170.597 48.1575ZM178.074 50.5205L179.759 50.0703L179.512 49.1459L178.6 48.8577L178.074 50.5205ZM177.422 66.2349L178.756 67.3579L178.898 67.1901L178.993 66.9923L177.422 66.2349ZM138.341 99.8456L139.281 101.314L139.292 101.307L139.303 101.3L138.341 99.8456ZM90.5656 124.486L89.8962 122.875L89.8902 122.878L90.5656 124.486ZM45.0965 139.816L44.6707 138.125L44.6662 138.126L44.6617 138.127L45.0965 139.816ZM13.3711 145.291L13.3367 143.548L13.3058 143.548L13.2748 143.55L13.3711 145.291ZM5.54073 147.875L3.79754 147.826L3.79395 147.951L3.80819 148.073L5.54073 147.875ZM12.0282 150.965L11.8005 152.694L11.8824 152.705L11.965 152.708L12.0282 150.965ZM93.7561 137.614L94.3209 139.264L94.3252 139.262L94.3295 139.261L93.7561 137.614ZM171.693 97.8641L173.242 97.0627L172.335 95.3075L170.706 96.4265L171.693 97.8641ZM233.149 216.706L231.6 217.507L231.62 217.545L231.641 217.582L233.149 216.706ZM240.01 225.733L238.967 227.13L239 227.154L239.033 227.177L240.01 225.733ZM245.044 226.843L245.338 228.562L245.522 228.53L245.696 228.46L245.044 226.843ZM249.27 218.232L247.526 218.23L247.526 218.238L249.27 218.232ZM242.596 194.77L244.197 194.08L244.187 194.057L244.176 194.034L242.596 194.77ZM230.797 173.429L232.213 172.412L232.208 172.405L232.203 172.397L230.797 173.429ZM221.056 163.353L219.879 164.641L219.907 164.665L219.934 164.689L221.056 163.353ZM205.181 145.239L203.72 146.192L203.73 146.209L203.742 146.225L205.181 145.239ZM178.303 92.6599L176.978 91.5255L176.263 92.3612L176.709 93.3665L178.303 92.6599ZM183.05 88.5896L182.143 87.0995L182.12 87.1137L182.098 87.1286L183.05 88.5896ZM188.087 85.7124L188.927 87.2409L188.941 87.233L188.955 87.2248L188.087 85.7124ZM196.62 77.2214L198.3 77.6913L198.317 77.6307L198.329 77.5691L196.62 77.2214ZM190.469 54.3136L190.982 52.6469L187.231 51.4906L188.888 55.0498L190.469 54.3136ZM236.816 69.3958L236.245 71.0435L236.254 71.0468L236.263 71.0499L236.816 69.3958ZM272.659 82.4617L271.976 84.0665L272.119 84.1271L272.27 84.1617L272.659 82.4617ZM281.476 83.1379L281.216 81.4136L281.21 81.4146L281.202 81.4155L281.476 83.1379ZM286.63 79.941L288.269 80.5383L288.293 80.4701L288.312 80.4L286.63 79.941ZM282.883 71.3239L281.642 72.549L281.656 72.5639L281.671 72.5785L282.883 71.3239ZM265.314 59.8439L266.106 58.2897L266.041 58.2568L265.974 58.2295L265.314 59.8439ZM251.726 56.3409L251.625 58.0819L251.652 58.0836L251.678 58.0843L251.726 56.3409ZM243.286 57.6146L243.698 59.3095L243.745 59.298L243.791 59.2838L243.286 57.6146ZM237.552 58.4249L237.601 56.6818L237.516 56.6793L237.433 56.6851L237.552 58.4249ZM231.049 56.3735L227.529 55.0901L226.334 58.3672L229.855 59.6506L231.049 56.3735ZM227.44 55.0605L197.094 45.8113L196.077 49.1477L226.423 58.3969L227.44 55.0605ZM197.07 45.8041C177.83 40.2405 163.877 36.1201 155.203 33.4409L154.174 36.7736C162.88 39.4628 176.858 43.5906 196.101 49.1548L197.07 45.8041ZM155.212 33.4436C140.677 28.8705 131.211 25.7801 126.774 24.1628L125.579 27.4399C130.103 29.0888 139.646 32.2027 154.165 36.7708L155.212 33.4436ZM126.774 24.1628C120.015 21.6987 113.846 18.9715 108.265 15.984L106.619 19.0592C112.363 22.1338 118.685 24.9264 125.579 27.4399L126.774 24.1628ZM108.331 16.0212C105.185 14.1576 101.189 11.6208 96.3337 8.40441L94.4073 11.3122C99.2866 14.5447 103.337 17.1168 106.553 19.022L108.331 16.0212ZM96.2775 8.36872L93.3105 6.56204L91.4965 9.54121L94.4634 11.3479L96.2775 8.36872ZM93.5171 6.70949C92.1558 5.58001 90.871 4.69946 89.6706 4.12072C88.4838 3.54858 87.2468 3.20721 86.0378 3.34572L86.4348 6.81108C86.7393 6.77617 87.2867 6.84368 88.1558 7.26263C89.011 7.67494 90.0532 8.36774 91.2899 9.39384L93.5171 6.70949ZM86.0378 3.34572C85.3728 3.42193 84.6504 3.67698 84.0919 4.27881C83.536 4.87772 83.3342 5.6138 83.3004 6.27621C83.2377 7.5027 83.724 8.94953 84.4189 10.4417L87.5808 8.96913C87.2668 8.29488 87.0555 7.74091 86.9285 7.29793C86.798 6.84318 86.7776 6.57702 86.7838 6.45425C86.7894 6.34546 86.8063 6.48145 86.6486 6.65146C86.4881 6.82437 86.343 6.82161 86.4348 6.81108L86.0378 3.34572ZM84.5816 10.7204C87.6385 14.9916 90.4314 18.6896 92.959 21.8101L95.6695 19.6147C93.1965 16.5617 90.4464 12.9216 87.418 8.69038L84.5816 10.7204ZM92.9664 21.8192C96.6835 26.3457 100.352 30.3746 103.972 33.9018L106.406 31.4036C102.892 27.9796 99.3103 24.0483 95.6621 19.6056L92.9664 21.8192ZM103.951 33.881C107.005 36.9595 109.795 39.0885 112.299 40.0012L113.493 36.7241C111.73 36.0815 109.382 34.4038 106.427 31.4245L103.951 33.881ZM112.299 40.0012C114.081 40.6507 116.871 40.9723 120.471 41.0724L120.569 37.5858C116.991 37.4863 114.699 37.1636 113.493 36.7241L112.299 40.0012ZM120.557 41.0727C124.881 40.9805 128.861 41.1276 132.502 41.5097L132.866 38.0408C129.058 37.6409 124.929 37.4907 120.483 37.5854L120.557 41.0727ZM132.518 41.5113C138.696 42.1056 145.81 43.5037 153.87 45.7227L154.795 42.3597C146.601 40.1036 139.283 38.6578 132.851 38.0393L132.518 41.5113ZM153.905 45.7319L170.169 49.8481L171.025 46.4667L154.76 42.3505L153.905 45.7319ZM170.072 49.8204L177.549 52.1834L178.6 48.8577L171.123 46.4944L170.072 49.8204ZM176.389 50.9708C177.06 53.4804 177.36 56.0867 177.285 58.7959L180.772 58.893C180.856 55.8596 180.52 52.9166 179.759 50.0703L176.389 50.9708ZM177.285 58.7959C177.21 61.483 176.711 63.6928 175.851 65.4776L178.993 66.9923C180.115 64.6658 180.686 61.9484 180.772 58.893L177.285 58.7959ZM176.087 65.1119C166.413 76.6068 153.523 87.7046 137.378 98.3913L139.303 101.3C155.653 90.4772 168.817 79.1678 178.756 67.3579L176.087 65.1119ZM137.4 98.3772C123.307 107.403 107.475 115.57 89.8962 122.875L91.2348 126.096C108.977 118.723 124.995 110.464 139.281 101.314L137.4 98.3772ZM89.8902 122.878C74.5549 129.315 59.4816 134.396 44.6707 138.125L45.5222 141.507C60.5172 137.732 75.7569 132.593 91.2405 126.094L89.8902 122.878ZM44.6617 138.127C31.0982 141.618 20.679 143.402 13.3367 143.548L13.4058 147.035C21.1575 146.882 31.8886 145.016 45.5311 141.505L44.6617 138.127ZM13.2748 143.55C10.6415 143.695 8.50915 143.992 6.98184 144.496C6.22094 144.747 5.4864 145.089 4.91041 145.588C4.29783 146.119 3.82406 146.873 3.79754 147.826L7.28413 147.923C7.27759 148.159 7.14505 148.267 7.19491 148.224C7.28137 148.149 7.5307 147.988 8.0749 147.808C9.15758 147.451 10.9208 147.173 13.4677 147.032L13.2748 143.55ZM3.80819 148.073C3.99633 149.715 5.24505 150.739 6.5427 151.357C7.86789 151.988 9.65754 152.412 11.8005 152.694L12.2557 149.236C10.2471 148.971 8.87996 148.607 8.04261 148.208C7.17792 147.796 7.2587 147.549 7.27348 147.676L3.80819 148.073ZM11.965 152.708C37.9764 153.649 65.4329 149.154 94.3209 139.264L93.1912 135.963C64.6367 145.74 37.6076 150.145 12.091 149.222L11.965 152.708ZM94.3295 139.261C121.613 129.761 147.731 116.439 172.68 99.3014L170.706 96.4265C146 113.396 120.16 126.574 93.1827 135.967L94.3295 139.261ZM170.144 98.6652L231.6 217.507L234.698 215.905L173.242 97.0627L170.144 98.6652ZM231.641 217.582C234.322 222.195 236.758 225.482 238.967 227.13L241.053 224.335C239.462 223.148 237.323 220.417 234.657 215.829L231.641 217.582ZM239.033 227.177C240.947 228.472 243.079 228.949 245.338 228.562L244.749 225.123C243.399 225.354 242.175 225.092 240.987 224.288L239.033 227.177ZM245.696 228.46C249.508 226.923 251.031 223.119 251.014 218.226L247.526 218.238C247.541 222.54 246.246 224.477 244.392 225.225L245.696 228.46ZM251.014 218.233C251.019 212.535 248.663 204.433 244.197 194.08L240.994 195.461C245.436 205.758 247.53 213.297 247.526 218.23L251.014 218.233ZM244.176 194.034C239.819 184.678 235.833 177.452 232.213 172.412L229.38 174.447C232.815 179.23 236.695 186.231 241.015 195.507L244.176 194.034ZM232.203 172.397C229.678 168.958 226.326 165.499 222.177 162.017L219.934 164.689C223.929 168.042 227.071 171.302 229.391 174.462L232.203 172.397ZM222.232 162.065C216.159 156.518 210.957 150.58 206.619 144.253L203.742 146.225C208.241 152.787 213.623 158.925 219.879 164.641L222.232 162.065ZM206.642 144.287C199.279 132.992 190.364 115.568 179.898 91.9536L176.709 93.3665C187.197 117.03 196.201 134.658 203.72 146.192L206.642 144.287ZM179.627 93.7943C180.766 92.4662 182.216 91.2153 184.002 90.0505L182.098 87.1286C180.079 88.4442 178.365 89.9069 176.978 91.5255L179.627 93.7943ZM183.957 90.0796C185.167 89.3429 186.821 88.3978 188.927 87.2409L187.247 84.1839C185.121 85.3518 183.417 86.3247 182.143 87.0995L183.957 90.0796ZM188.955 87.2248C193.925 84.3705 197.307 81.2415 198.3 77.6913L194.941 76.7516C194.339 78.9042 192.031 81.4357 187.218 84.2L188.955 87.2248ZM198.329 77.5691C198.867 74.9272 198.505 71.583 197.454 67.667C196.392 63.716 194.582 59.014 192.05 53.5773L188.888 55.0498C191.372 60.3849 193.095 64.8865 194.085 68.5715C195.083 72.2913 195.29 75.0155 194.911 76.8738L198.329 77.5691ZM189.955 55.9801C207.106 61.2663 222.535 66.2874 236.245 71.0435L237.388 67.7481C223.632 62.976 208.164 57.9423 190.982 52.6469L189.955 55.9801ZM236.263 71.0499C252.196 76.3747 264.09 80.7124 271.976 84.0665L273.342 80.8569C265.324 77.4467 253.323 73.0739 237.369 67.7418L236.263 71.0499ZM272.27 84.1617C275.947 85.004 279.132 85.2764 281.75 84.8604L281.202 81.4155C279.203 81.7333 276.509 81.5546 273.049 80.7618L272.27 84.1617ZM281.737 84.8625C284.796 84.4008 287.321 83.1384 288.269 80.5383L284.991 79.3437C284.695 80.1571 283.784 81.0259 281.216 81.4136L281.737 84.8625ZM288.312 80.4C289.289 76.8232 287.462 73.3209 284.094 70.069L281.671 72.5785C284.739 75.5402 285.411 77.7826 284.947 79.4817L288.312 80.4ZM284.124 70.0987C280.566 66.4939 274.502 62.5647 266.106 58.2897L264.523 61.398C272.843 65.6341 278.492 69.3581 281.642 72.549L284.124 70.0987ZM265.974 58.2295C260.419 55.9591 255.666 54.7059 251.775 54.5975L251.678 58.0843C254.965 58.1756 259.271 59.2578 264.654 61.4582L265.974 58.2295ZM251.828 54.5998C249.188 54.4463 246.158 54.9228 242.78 55.9454L243.791 59.2838C246.933 58.3326 249.532 57.9602 251.625 58.0819L251.828 54.5998ZM242.874 55.92C240.547 56.4855 238.81 56.7153 237.601 56.6818L237.504 60.1684C239.165 60.2145 241.251 59.9041 243.698 59.3095L242.874 55.92ZM237.433 56.6851C235.357 56.8278 233.13 56.7015 230.746 56.293L230.157 59.7309C232.778 60.1801 235.285 60.3291 237.672 60.165L237.433 56.6851Z" fill="#EFEFEF"/>
<path d="M125.365 23.6491L124.17 26.9261L126.989 27.9536L128.183 24.6765L125.365 23.6491ZM84.5475 3.51648L84.9446 6.98184L87.9251 6.64032L87.528 3.17496L84.5475 3.51648ZM113.708 40.5149L114.903 37.2379L112.084 36.2104L110.89 39.4875L113.708 40.5149ZM177.243 60.2953L180.73 60.3924L180.814 57.3936L177.327 57.2964L177.243 60.2953ZM126.177 25.8013L125.149 28.6199L126.177 25.8013ZM86.2363 5.07839L85.8948 2.09789L85.8947 2.0979L86.2363 5.07839ZM112.896 38.3627L111.869 41.1813L111.869 41.1813L112.896 38.3627ZM179.028 58.8443L176.029 58.7606L176.029 58.7612L179.028 58.8443ZM229.855 59.6506L228.827 62.4691L228.827 62.4691L229.855 59.6506ZM230.002 59.7043L228.975 62.5229L229.228 62.6154L229.495 62.6611L230.002 59.7043ZM230.157 59.7309L229.65 62.6877L229.65 62.6878L230.157 59.7309ZM227.529 55.0901L228.556 52.2715L228.556 52.2714L227.529 55.0901ZM227.485 55.0742L228.512 52.2555L228.436 52.2277L228.358 52.204L227.485 55.0742ZM197.082 45.8077L197.961 42.9391L197.938 42.9323L197.916 42.9259L197.082 45.8077ZM197.07 45.8041L197.904 42.9223L197.903 42.9222L197.07 45.8041ZM154.17 36.7722L153.25 39.6277L153.267 39.6331L153.283 39.6383L154.17 36.7722ZM154.174 36.7736L153.288 39.6397L153.289 39.64L154.174 36.7736ZM106.553 19.022L105.023 21.6029L105.024 21.6034L106.553 19.022ZM106.585 19.0413L105.057 21.6227L105.113 21.6559L105.17 21.6865L106.585 19.0413ZM96.3059 8.386L97.9642 5.88597L97.9153 5.85355L97.8652 5.82307L96.3059 8.386ZM91.2899 9.39384L89.3744 11.7027L89.3744 11.7027L91.2899 9.39384ZM91.3878 9.47507L89.4723 11.7839L89.6407 11.9236L89.8276 12.0374L91.3878 9.47507ZM91.4965 9.54121L89.9362 12.1035L89.9362 12.1035L91.4965 9.54121ZM84.4873 10.5886L81.7674 11.8544L81.8853 12.1077L82.0479 12.3349L84.4873 10.5886ZM92.9627 21.8147L90.6255 23.6955L90.6382 23.7114L90.6513 23.7271L92.9627 21.8147ZM106.417 31.4139L108.552 29.3068L108.528 29.2824L108.503 29.2586L106.417 31.4139ZM120.514 41.0736L120.43 44.0724L120.501 44.0744L120.573 44.073L120.514 41.0736ZM120.557 41.0727L120.616 44.0721L120.621 44.072L120.557 41.0727ZM132.51 41.5105L132.185 44.4929L132.196 44.4941L132.208 44.4953L132.51 41.5105ZM132.518 41.5113L132.216 44.4961L132.223 44.4968L132.23 44.4975L132.518 41.5113ZM153.87 45.7227L153.073 48.6151L153.081 48.6173L153.87 45.7227ZM153.887 45.7274L153.099 48.622L153.122 48.6283L153.145 48.6342L153.887 45.7274ZM153.905 45.7319L153.163 48.6387L153.169 48.6402L153.905 45.7319ZM171.123 46.4944L172.027 43.6339L172.026 43.6337L171.123 46.4944ZM171.074 46.4792L171.978 43.6185L171.894 43.5921L171.81 43.5707L171.074 46.4792ZM179.759 50.0703L182.658 49.2958L182.658 49.2954L179.759 50.0703ZM179.512 49.1459L182.411 48.3711L181.985 46.7813L180.416 46.2854L179.512 49.1459ZM178.898 67.1901L181.19 69.1247L181.437 68.833L181.602 68.4889L178.898 67.1901ZM139.292 101.307L140.886 103.849L140.963 103.801L141.037 103.748L139.292 101.307ZM89.8962 122.875L88.7449 120.105L88.6856 120.13L88.6273 120.157L89.8962 122.875ZM44.6662 138.126L44.0848 135.182L43.9255 135.214L43.7705 135.262L44.6662 138.126ZM13.3058 143.548L13.2599 140.548L13.2009 140.549L13.1421 140.552L13.3058 143.548ZM13.2748 143.55L13.1111 140.554L13.1089 140.554L13.2748 143.55ZM3.79395 147.951L0.795198 147.864L0.788927 148.081L0.813935 148.296L3.79395 147.951ZM11.8005 152.694L11.4093 155.668L11.4123 155.669L11.8005 152.694ZM11.8824 152.705L11.4943 155.679L11.6352 155.698L11.7772 155.703L11.8824 152.705ZM94.3209 139.264L95.2927 142.102L95.3114 142.096L95.33 142.089L94.3209 139.264ZM94.3252 139.262L95.3342 142.087L95.3432 142.084L94.3252 139.262ZM172.335 95.3075L174.999 93.9295L173.438 90.9097L170.636 92.8348L172.335 95.3075ZM231.62 217.545L228.951 218.915L228.983 218.978L229.019 219.04L231.62 217.545ZM231.641 217.582L229.04 219.077L229.044 219.084L229.048 219.09L231.641 217.582ZM238.967 227.13L237.173 229.535L237.176 229.537L238.967 227.13ZM239 227.154L237.209 229.561L237.263 229.602L237.319 229.64L239 227.154ZM245.338 228.562L245.844 231.519L245.849 231.518L245.338 228.562ZM245.522 228.53L246.033 231.486L246.348 231.432L246.643 231.313L245.522 228.53ZM245.696 228.46L246.817 231.243L246.817 231.242L245.696 228.46ZM247.526 218.238L244.528 218.145L244.526 218.197L244.526 218.248L247.526 218.238ZM244.187 194.057L246.965 192.924L246.928 192.834L246.886 192.747L244.187 194.057ZM232.208 172.405L229.756 174.134L229.763 174.143L232.208 172.405ZM232.203 172.397L234.654 170.668L234.638 170.645L234.621 170.622L232.203 172.397ZM219.879 164.641L217.856 166.856L217.871 166.869L217.885 166.882L219.879 164.641ZM219.907 164.665L217.912 166.906L217.936 166.927L217.959 166.947L219.907 164.665ZM219.934 164.689L217.987 166.971L217.996 166.979L218.006 166.986L219.934 164.689ZM203.73 146.209L201.19 147.804L201.235 147.875L201.284 147.944L203.73 146.209ZM176.978 91.5255L174.7 89.5735L174.699 89.5744L176.978 91.5255ZM176.263 92.3612L173.984 90.41L172.753 91.8477L173.521 93.5777L176.263 92.3612ZM182.143 87.0995L180.584 84.5364L180.578 84.5401L180.572 84.5438L182.143 87.0995ZM182.12 87.1137L180.549 84.558L180.513 84.5805L180.477 84.6039L182.12 87.1137ZM188.941 87.233L190.368 89.872L190.412 89.8482L190.455 89.8228L188.941 87.233ZM198.317 77.6307L201.204 78.4466L201.234 78.3395L201.256 78.2304L198.317 77.6307ZM198.329 77.5691L201.269 78.1688L201.269 78.167L198.329 77.5691ZM190.982 52.6469L191.866 49.78L191.866 49.78L190.982 52.6469ZM187.231 51.4906L188.114 48.6236L181.66 46.6346L184.511 52.7568L187.231 51.4906ZM188.888 55.0498L186.168 56.316L186.168 56.3164L188.888 55.0498ZM236.254 71.0468L235.259 73.8772L235.285 73.8861L235.31 73.8945L236.254 71.0468ZM271.976 84.0665L270.802 86.8272L270.802 86.8272L271.976 84.0665ZM272.119 84.1271L270.945 86.8878L271.19 86.992L271.449 87.0514L272.119 84.1271ZM272.27 84.1617L271.6 87.0859L271.6 87.0859L272.27 84.1617ZM281.216 81.4136L280.768 78.4472L280.751 78.4498L280.734 78.4525L281.216 81.4136ZM281.21 81.4146L281.574 84.3924L281.633 84.3852L281.692 84.3756L281.21 81.4146ZM281.202 81.4155L280.838 78.4377L280.785 78.4442L280.732 78.4527L281.202 81.4155ZM288.269 80.5383L291.087 81.5657L291.087 81.5655L288.269 80.5383ZM288.293 80.4701L291.112 81.4973L291.157 81.373L291.192 81.245L288.293 80.4701ZM281.656 72.5639L279.502 74.6517L279.536 74.6868L279.571 74.7208L281.656 72.5639ZM281.671 72.5785L279.586 74.7354L279.587 74.7368L281.671 72.5785ZM266.106 58.2897L267.467 55.6163L267.465 55.6156L266.106 58.2897ZM266.041 58.2568L267.401 55.5827L267.29 55.5267L267.176 55.4799L266.041 58.2568ZM265.974 58.2295L267.109 55.4526L267.109 55.4525L265.974 58.2295ZM251.652 58.0836L251.468 61.078L251.519 61.0811L251.571 61.0825L251.652 58.0836ZM243.698 59.3095L244.406 62.2247L244.413 62.2231L243.698 59.3095ZM243.745 59.298L244.46 62.2116L244.544 62.1909L244.627 62.1652L243.745 59.298ZM237.516 56.6793L237.603 53.6806L237.456 53.6763L237.308 53.6865L237.516 56.6793ZM231.049 56.3735L233.868 57.4009L234.895 54.5824L232.077 53.5549L231.049 56.3735ZM226.334 58.3672L223.515 57.3397L222.488 60.1583L225.306 61.1857L226.334 58.3672ZM196.077 49.1477L193.207 48.273L192.333 51.1427L195.202 52.0174L196.077 49.1477ZM226.423 58.3969L225.548 61.2665L228.418 62.1412L229.292 59.2716L226.423 58.3969ZM155.203 33.4409L156.089 30.5745L153.222 29.6891L152.337 32.5557L155.203 33.4409ZM196.101 49.1548L195.268 52.0368L198.15 52.8701L198.983 49.9883L196.101 49.1548ZM155.212 33.4436L158.074 34.3442L158.975 31.4823L156.113 30.5819L155.212 33.4436ZM126.774 24.1628L125.747 26.9814L126.774 24.1628ZM125.579 27.4399L124.552 30.2584L124.552 30.2584L125.579 27.4399ZM108.265 15.984L109.68 13.3391L107.036 11.9233L105.62 14.5682L108.265 15.984ZM108.331 16.0212L110.912 17.5505L112.441 14.9696L109.86 13.4403L108.331 16.0212ZM94.4073 11.3122L91.9063 9.65535L90.2495 12.1563L92.7504 13.8132L94.4073 11.3122ZM93.3105 6.56204L94.8708 3.99972L92.3085 2.43943L90.7482 5.00177L93.3105 6.56204ZM94.4634 11.3479L92.9031 13.9102L95.4655 15.4705L97.0257 12.9082L94.4634 11.3479ZM93.5171 6.70949L95.8259 8.62508L97.7415 6.31629L95.4327 4.4007L93.5171 6.70949ZM89.6706 4.12072L88.3677 6.82306L88.3678 6.82307L89.6706 4.12072ZM86.0378 3.34572L85.6963 0.365212L85.6961 0.365233L86.0378 3.34572ZM86.4348 6.81108L86.7764 9.79158L86.7766 9.79155L86.4348 6.81108ZM88.1558 7.26263L89.4586 4.56028L89.4585 4.56026L88.1558 7.26263ZM84.0919 4.27881L86.2908 6.31962L86.2908 6.31954L84.0919 4.27881ZM83.3004 6.27621L80.3043 6.12299L80.3043 6.12314L83.3004 6.27621ZM87.5808 8.96913L88.8473 11.6887L91.5669 10.4222L90.3003 7.70263L87.5808 8.96913ZM86.9285 7.29793L89.8123 6.47123L89.8122 6.47084L86.9285 7.29793ZM86.7838 6.45425L83.7878 6.30102L83.7877 6.30135L86.7838 6.45425ZM86.6486 6.65146L88.8474 8.6923L88.8477 8.69206L86.6486 6.65146ZM95.6695 19.6147L97.5577 21.9458L99.8889 20.0575L98.0006 17.7264L95.6695 19.6147ZM87.418 8.69038L89.8576 6.94436L88.1116 4.50485L85.672 6.25081L87.418 8.69038ZM103.972 33.9018L101.878 36.0505L104.027 38.1441L106.12 35.9954L103.972 33.9018ZM95.6621 19.6056L97.9805 17.7017L96.0766 15.3833L93.7582 17.2871L95.6621 19.6056ZM103.951 33.881L101.838 31.7512L99.7081 33.864L101.821 35.9938L103.951 33.881ZM112.299 40.0012L111.271 42.8198L112.299 40.0012ZM113.493 36.7241L114.521 33.9056L113.493 36.7241ZM120.569 37.5858L123.567 37.6694L123.651 34.6703L120.652 34.5869L120.569 37.5858ZM132.866 38.0408L135.85 38.3541L136.163 35.3704L133.18 35.0571L132.866 38.0408ZM120.483 37.5854L120.419 34.5861L117.419 34.65L117.483 37.6495L120.483 37.5854ZM154.795 42.3597L157.688 43.156L158.484 40.2636L155.592 39.4673L154.795 42.3597ZM132.851 38.0393L133.139 35.0531L130.152 34.7659L129.865 37.7522L132.851 38.0393ZM170.169 49.8481L169.433 52.7564L172.342 53.4924L173.078 50.5842L170.169 49.8481ZM154.76 42.3505L155.496 39.4422L152.588 38.7062L151.852 41.6144L154.76 42.3505ZM170.072 49.8204L167.211 48.9165L166.307 51.7769L169.168 52.6809L170.072 49.8204ZM177.549 52.1834L176.645 55.0439L179.505 55.9479L180.409 53.0878L177.549 52.1834ZM176.389 50.9708L175.615 48.0724L172.716 48.847L173.491 51.7457L176.389 50.9708ZM177.285 58.7959L174.286 58.7122L174.286 58.7129L177.285 58.7959ZM180.772 58.893L183.771 58.9768L183.771 58.9763L180.772 58.893ZM175.851 65.4776L173.148 64.1749L171.846 66.8772L174.548 68.1799L175.851 65.4776ZM176.087 65.1119L178.019 62.8167L175.724 60.8849L173.792 63.1802L176.087 65.1119ZM137.378 98.3913L135.722 95.8897L133.22 97.5456L134.876 100.047L137.378 98.3913ZM137.4 98.3772L139.927 96.7595L138.309 94.2328L135.782 95.8509L137.4 98.3772ZM91.2348 126.096L88.4645 127.248L89.6157 130.018L92.386 128.867L91.2348 126.096ZM45.5222 141.507L42.613 142.24L43.3454 145.149L46.2546 144.416L45.5222 141.507ZM91.2405 126.094L92.4016 128.86L95.1682 127.699L94.0066 124.933L91.2405 126.094ZM13.4058 147.035L10.4063 147.094L10.4657 150.093L13.4649 150.034L13.4058 147.035ZM45.5311 141.505L46.2789 144.41L49.1842 143.662L48.4364 140.757L45.5311 141.505ZM6.98184 144.496L6.04207 141.647L6.04188 141.647L6.98184 144.496ZM4.91041 145.588L2.94574 143.321L2.9455 143.321L4.91041 145.588ZM7.28413 147.923L10.283 148.007L10.3663 145.008L7.36773 144.925L7.28413 147.923ZM7.19491 148.224L9.15637 150.494L9.15927 150.491L7.19491 148.224ZM8.0749 147.808L7.13515 144.959L7.1343 144.96L8.0749 147.808ZM13.4677 147.032L13.6333 150.028L16.629 149.862L16.4631 146.867L13.4677 147.032ZM6.5427 151.357L5.25203 154.065L5.25303 154.066L6.5427 151.357ZM12.2557 149.236L15.23 149.627L15.6215 146.653L12.6472 146.261L12.2557 149.236ZM8.04261 148.208L6.75289 150.917L6.75298 150.917L8.04261 148.208ZM7.27348 147.676L7.61486 150.657L10.5984 150.315L10.2536 147.332L7.27348 147.676ZM93.1912 135.963L96.0296 134.992L95.0579 132.153L92.2195 133.125L93.1912 135.963ZM12.091 149.222L12.1995 146.224L9.20137 146.116L9.09299 149.114L12.091 149.222ZM172.68 99.3014L174.379 101.774L176.852 100.076L175.153 97.603L172.68 99.3014ZM93.1827 135.967L92.1962 133.133L89.3631 134.12L90.3495 136.953L93.1827 135.967ZM170.144 98.6652L168.766 96.0005L166.101 97.3786L167.479 100.043L170.144 98.6652ZM234.698 215.905L236.076 218.57L238.741 217.192L237.363 214.527L234.698 215.905ZM241.053 224.335L243.458 226.129L245.252 223.724L242.847 221.93L241.053 224.335ZM234.657 215.829L237.251 214.322L235.743 211.728L233.149 213.236L234.657 215.829ZM244.749 225.123L247.706 224.617L247.2 221.66L244.243 222.166L244.749 225.123ZM240.987 224.288L242.667 221.803L240.182 220.123L238.502 222.608L240.987 224.288ZM251.014 218.226L254.014 218.216L254.004 215.216L251.004 215.226L251.014 218.226ZM244.392 225.225L243.27 222.443L240.488 223.565L241.609 226.347L244.392 225.225ZM251.014 218.233L251.012 221.233L254.012 221.236L254.014 218.236L251.014 218.233ZM240.994 195.461L239.806 192.707L237.051 193.895L238.24 196.649L240.994 195.461ZM229.38 174.447L227.63 172.01L225.194 173.76L226.944 176.197L229.38 174.447ZM241.015 195.507L238.295 196.774L239.562 199.493L242.281 198.226L241.015 195.507ZM222.177 162.017L224.106 159.719L221.809 157.791L219.88 160.088L222.177 162.017ZM229.391 174.462L226.972 176.237L228.748 178.656L231.166 176.88L229.391 174.462ZM222.232 162.065L224.447 164.088L226.471 161.873L224.255 159.85L222.232 162.065ZM206.619 144.253L209.093 142.556L207.397 140.082L204.922 141.778L206.619 144.253ZM206.642 144.287L208.28 146.8L210.793 145.162L209.155 142.648L206.642 144.287ZM179.898 91.9536L182.64 90.7379L181.425 87.9956L178.682 89.2108L179.898 91.9536ZM179.627 93.7943L177.676 96.0729L179.954 98.0237L181.905 95.7465L179.627 93.7943ZM184.002 90.0505L185.641 92.5635L188.154 90.9251L186.516 88.4121L184.002 90.0505ZM183.957 90.0796L181.394 91.6389L182.953 94.2024L185.516 92.6422L183.957 90.0796ZM187.247 84.1839L189.876 82.7391L188.431 80.1099L185.802 81.5546L187.247 84.1839ZM194.941 76.7516L195.749 73.8625L192.86 73.0543L192.052 75.9434L194.941 76.7516ZM187.218 84.2L185.724 81.5986L183.122 83.0928L184.617 85.6943L187.218 84.2ZM197.454 67.667L200.351 66.8892L200.351 66.8887L197.454 67.667ZM192.05 53.5773L194.769 52.3108L193.503 49.5914L190.783 50.8577L192.05 53.5773ZM194.085 68.5715L191.187 69.3494L191.187 69.3496L194.085 68.5715ZM194.911 76.8738L191.971 76.2749L191.372 79.2154L194.313 79.8135L194.911 76.8738ZM189.955 55.9801L187.088 55.0963L186.204 57.9634L189.071 58.847L189.955 55.9801ZM237.388 67.7481L240.222 68.7313L241.205 65.8971L238.371 64.9138L237.388 67.7481ZM273.342 80.8569L276.102 82.0314L277.277 79.2705L274.516 78.0962L273.342 80.8569ZM237.369 67.7418L238.32 64.8965L235.475 63.9456L234.524 66.7908L237.369 67.7418ZM281.75 84.8604L282.221 87.8232L285.183 87.3524L284.713 84.3897L281.75 84.8604ZM273.049 80.7618L273.718 77.8375L270.794 77.1677L270.124 80.0918L273.049 80.7618ZM281.737 84.8625L278.77 85.3101L279.218 88.2766L282.184 87.8289L281.737 84.8625ZM284.991 79.3437L286.019 76.5251L283.2 75.4976L282.173 78.3162L284.991 79.3437ZM284.094 70.069L286.177 67.9106L284.019 65.8272L281.935 67.9854L284.094 70.069ZM284.947 79.4817L282.053 78.6923L281.264 81.5861L284.157 82.3759L284.947 79.4817ZM284.124 70.0987L286.231 72.2336L288.366 70.1262L286.259 67.9913L284.124 70.0987ZM264.523 61.398L261.849 60.0366L260.488 62.7102L263.162 64.0714L264.523 61.398ZM251.775 54.5975L251.858 51.5987L248.859 51.5151L248.776 54.5144L251.775 54.5975ZM264.654 61.4582L263.519 64.2352L266.296 65.3701L267.431 62.5934L264.654 61.4582ZM251.828 54.5998L254.823 54.7741L254.997 51.7791L252.002 51.6049L251.828 54.5998ZM242.78 55.9454L241.911 53.0741L239.04 53.9433L239.909 56.8146L242.78 55.9454ZM242.874 55.92L245.789 55.2111L245.08 52.2964L242.165 53.0048L242.874 55.92ZM237.504 60.1684L234.505 60.0848L234.421 63.0839L237.42 63.1672L237.504 60.1684ZM230.746 56.293L231.253 53.3361L228.296 52.8295L227.789 55.7862L230.746 56.293ZM237.672 60.165L237.878 63.1579L240.871 62.9522L240.665 59.9591L237.672 60.165ZM231.479 55.1935L227.959 53.9101L225.904 59.5472L229.424 60.8306L231.479 55.1935ZM227.806 53.859L197.46 44.6098L195.711 50.3491L226.057 59.5983L227.806 53.859ZM197.419 44.5975C178.179 39.0342 164.236 34.9165 155.574 32.2409L153.803 37.9736C162.521 40.6664 176.509 44.7969 195.752 50.3614L197.419 44.5975ZM155.589 32.2455C141.048 27.6705 131.61 24.5888 127.204 22.9828L125.149 28.6199C129.704 30.2803 139.274 33.4025 153.788 37.9689L155.589 32.2455ZM127.204 22.9828C120.493 20.5364 114.38 17.8327 108.857 14.8767L106.026 20.1665C111.829 23.2726 118.206 26.0887 125.149 28.6199L127.204 22.9828ZM108.971 14.9407C105.851 13.092 101.874 10.5679 97.0273 7.35737L93.7136 12.3593C98.6017 15.5976 102.672 18.1823 105.912 20.1025L108.971 14.9407ZM96.9308 7.29601L93.9638 5.48934L90.8432 10.614L93.8102 12.4207L96.9308 7.29601ZM94.3191 5.74286C92.9129 4.57618 91.5408 3.62804 90.216 2.98932C88.9149 2.36205 87.4295 1.92204 85.8948 2.09789L86.5778 8.05889C86.5566 8.06132 86.8557 8.03017 87.6103 8.39399C88.3412 8.74637 89.296 9.37157 90.4879 10.3605L94.3191 5.74286ZM85.8947 2.0979C85.0235 2.19775 83.9886 2.54361 83.1712 3.42443C82.3584 4.30025 82.0901 5.35035 82.046 6.21208C81.9666 7.7665 82.5731 9.45346 83.2803 10.9719L88.7194 8.43889C88.4233 7.80316 88.2393 7.31282 88.1358 6.95176C88.0264 6.57044 88.0416 6.45185 88.0382 6.51832C88.0336 6.60889 87.9839 7.05894 87.5692 7.50583C87.1498 7.95772 86.6924 8.04576 86.5779 8.05888L85.8947 2.0979ZM83.5603 11.4514C86.6275 15.737 89.4357 19.4558 91.9831 22.6007L96.6454 18.8241C94.1922 15.7955 91.4575 12.1763 88.4394 7.95939L83.5603 11.4514ZM91.9958 22.6163C95.7376 27.1729 99.437 31.237 103.095 34.8014L107.282 30.504C103.806 27.1171 100.256 23.221 96.6327 18.8085L91.9958 22.6163ZM103.059 34.7654C106.148 37.8796 109.098 40.1713 111.869 41.1813L113.924 35.5441C112.427 34.9987 110.239 33.4835 107.319 30.5399L103.059 34.7654ZM111.869 41.1813C113.858 41.9063 116.827 42.2275 120.437 42.328L120.604 36.3303C117.034 36.2309 114.922 35.9081 113.924 35.5441L111.869 41.1813ZM120.584 42.3285C124.864 42.2371 128.791 42.3831 132.371 42.7589L132.998 36.7917C129.129 36.3856 124.946 36.234 120.456 36.3299L120.584 42.3285ZM132.397 42.7615C138.485 43.3471 145.525 44.728 153.537 46.9337L155.129 41.1489C146.886 38.8795 139.494 37.4165 132.972 36.7891L132.397 42.7615ZM153.597 46.9496L169.861 51.0658L171.333 45.2492L155.069 41.133L153.597 46.9496ZM169.693 51.018L177.17 53.3811L178.978 47.66L171.501 45.297L169.693 51.018ZM175.176 51.2954C175.815 53.6835 176.102 56.1683 176.029 58.7606L182.027 58.9281C182.115 55.778 181.766 52.7137 180.973 49.7456L175.176 51.2954ZM176.029 58.7612C175.958 61.3155 175.486 63.3424 174.719 64.9318L180.124 67.538C181.34 65.016 181.938 62.116 182.027 58.9275L176.029 58.7612ZM175.126 64.3032C165.548 75.6848 152.756 86.7058 136.685 97.344L139.997 102.347C156.42 91.4759 169.682 80.0899 179.717 68.1666L175.126 64.3032ZM136.723 97.3193C122.7 106.301 106.934 114.435 89.4143 121.716L91.7169 127.257C109.518 119.859 125.603 111.566 139.959 102.372L136.723 97.3193ZM89.4046 121.72C74.122 128.134 59.1087 133.195 44.3642 136.906L45.8289 142.725C60.8902 138.933 76.1899 133.773 91.7266 127.252L89.4046 121.72ZM44.3488 136.91C30.8135 140.394 20.5068 142.149 13.3117 142.292L13.4305 148.291C21.33 148.134 32.1735 146.239 45.8442 142.721L44.3488 136.91ZM13.2054 142.296C10.5409 142.443 8.27582 142.747 6.58823 143.303C5.74921 143.58 4.83998 143.987 4.08765 144.639C3.27248 145.346 2.58035 146.411 2.54189 147.792L8.53957 147.959C8.5211 148.622 8.17024 149.041 8.01761 149.173C7.92782 149.251 8.00239 149.155 8.46845 149.001C9.391 148.697 11.0211 148.426 13.5368 148.287L13.2054 142.296ZM2.56027 148.217C2.82164 150.496 4.54914 151.799 6.00273 152.491C7.50351 153.206 9.4455 153.651 11.6368 153.939L12.4195 147.99C10.4593 147.732 9.24434 147.389 8.58268 147.074C7.87383 146.736 8.43337 146.768 8.52118 147.533L2.56027 148.217ZM11.9196 153.963C38.1091 154.911 65.7197 150.383 94.7278 140.452L92.7844 134.775C64.3499 144.51 37.4748 148.884 12.1367 147.967L11.9196 153.963ZM94.7426 140.447C122.137 130.908 148.354 117.534 173.391 100.337L169.994 95.3913C145.376 112.3 119.635 125.426 92.7696 134.78L94.7426 140.447ZM169.028 99.2422L230.484 218.084L235.814 215.328L174.357 96.4861L169.028 99.2422ZM230.555 218.213C233.241 222.834 235.785 226.323 238.216 228.137L241.804 223.328C240.435 222.307 238.404 219.777 235.743 215.198L230.555 218.213ZM238.33 228.218C240.505 229.689 242.963 230.243 245.55 229.8L244.538 223.886C243.515 224.061 242.617 223.874 241.69 223.247L238.33 228.218ZM246.166 229.625C250.683 227.803 252.288 223.328 252.27 218.221L246.27 218.242C246.284 222.332 245.072 223.597 243.922 224.06L246.166 229.625ZM252.27 218.234C252.275 212.261 249.825 203.957 245.35 193.582L239.841 195.959C244.274 206.234 246.274 213.571 246.27 218.229L252.27 218.234ZM245.315 193.504C240.944 184.118 236.919 176.812 233.234 171.68L228.36 175.179C231.729 179.87 235.57 186.791 239.876 196.037L245.315 193.504ZM233.215 171.654C230.616 168.114 227.188 164.583 222.985 161.055L219.127 165.65C223.066 168.957 226.133 172.145 228.379 175.205L233.215 171.654ZM223.079 161.137C217.072 155.651 211.935 149.785 207.655 143.543L202.707 146.936C207.263 153.582 212.709 159.792 219.033 165.568L223.079 161.137ZM207.694 143.601C200.387 132.392 191.505 115.042 181.046 91.4443L175.56 93.8756C186.056 117.556 195.093 135.258 202.668 146.878L207.694 143.601ZM180.581 94.6117C181.629 93.388 182.985 92.2129 184.688 91.1028L181.412 86.0764C179.31 87.4464 177.501 88.9849 176.025 90.7082L180.581 94.6117ZM184.609 91.1524C185.797 90.4298 187.433 89.4949 189.531 88.3416L186.642 83.0832C184.51 84.2548 182.787 85.2379 181.491 86.0267L184.609 91.1524ZM189.581 88.3139C194.607 85.4273 198.376 82.0832 199.509 78.0295L193.731 76.4134C193.27 78.0625 191.349 80.3789 186.593 83.111L189.581 88.3139ZM199.56 77.8194C200.155 74.8955 199.737 71.328 198.666 67.3413C197.58 63.2947 195.737 58.5203 193.189 53.0471L187.749 55.5801C190.217 60.8785 191.908 65.3079 192.872 68.8972C193.851 72.5464 194.001 75.047 193.68 76.6235L199.56 77.8194ZM189.585 57.1806C206.725 62.4632 222.14 67.4797 235.833 72.2301L237.799 66.5616C224.027 61.7837 208.544 56.7453 191.353 51.4467L189.585 57.1806ZM235.865 72.2411C251.789 77.5632 263.646 81.8882 271.485 85.2224L273.833 79.7011C265.769 76.2709 253.73 71.8854 237.767 66.5505L235.865 72.2411ZM271.989 85.386C275.744 86.2462 279.106 86.5522 281.947 86.1007L281.005 80.1751C279.229 80.4574 276.712 80.3126 273.329 79.5375L271.989 85.386ZM281.924 86.1044C285.16 85.6161 288.266 84.2121 289.449 80.9684L283.811 78.9135C283.75 79.0834 283.42 79.8107 281.029 80.1715L281.924 86.1044ZM289.524 80.7306C290.685 76.4775 288.443 72.5218 284.966 69.1655L280.799 73.4822C283.758 76.3393 284.015 78.1283 283.736 79.1514L289.524 80.7306ZM285.018 69.2164C281.313 65.4626 275.1 61.4593 266.675 57.1705L263.953 62.5174C272.246 66.7392 277.745 70.3894 280.747 73.4313L285.018 69.2164ZM266.449 57.0669C260.833 54.7713 255.918 53.4563 251.81 53.342L251.643 59.3397C254.712 59.4251 258.856 60.4454 264.179 62.6209L266.449 57.0669ZM251.9 53.3459C249.064 53.181 245.88 53.6951 242.417 54.7432L244.155 60.486C247.212 59.5606 249.655 59.2255 251.552 59.3358L251.9 53.3459ZM242.577 54.6996C240.294 55.2546 238.682 55.4553 237.636 55.4261L237.468 61.4238C239.294 61.4746 241.504 61.1352 243.994 60.5297L242.577 54.6996ZM237.346 55.432C235.383 55.5672 233.257 55.449 230.959 55.0551L229.945 60.9689C232.652 61.4328 235.259 61.5899 237.758 61.4179L237.346 55.432ZM227.633 56.9846L227.036 58.6231L232.673 60.678L233.27 59.0395L227.633 56.9846ZM228.827 62.4691L228.975 62.5229L231.029 56.8857L230.882 56.832L228.827 62.4691ZM229.495 62.6611L229.65 62.6877L230.664 56.7741L230.509 56.7475L229.495 62.6611ZM233.114 60.2382L233.409 58.5194L227.495 57.5047L227.2 59.2236L233.114 60.2382ZM229.75 57.7561L230.347 56.1176L224.71 54.0626L224.113 55.7012L229.75 57.7561ZM228.556 52.2714L228.512 52.2555L226.458 57.8928L226.501 57.9088L228.556 52.2714ZM228.358 52.204L228.313 52.1903L226.567 57.9306L226.612 57.9443L228.358 52.204ZM224.57 54.1858L224.062 55.8539L229.801 57.6033L230.309 55.9352L224.57 54.1858ZM199.455 48.3542L199.964 46.686L194.224 44.9365L193.716 46.6047L199.455 48.3542ZM197.972 42.9427L197.961 42.9391L196.204 48.6763L196.216 48.6799L197.972 42.9427ZM197.916 42.9259L197.904 42.9223L196.236 48.6859L196.249 48.6895L197.916 42.9259ZM194.188 44.9707L193.704 46.646L199.467 48.3129L199.952 46.6376L194.188 44.9707ZM151.827 34.2067L151.304 35.8703L157.027 37.6713L157.55 36.0078L151.827 34.2067ZM153.245 39.6263L153.25 39.6277L155.09 33.9168L155.085 33.9153L153.245 39.6263ZM153.283 39.6383L153.288 39.6397L155.061 33.9075L155.056 33.9062L153.283 39.6383ZM157.041 37.6588L157.555 35.9925L151.822 34.222L151.308 35.8884L157.041 37.6588ZM104.861 15.9923L103.972 17.4927L109.134 20.5513L110.023 19.0509L104.861 15.9923ZM105.024 21.6034L105.057 21.6227L108.114 16.4598L108.081 16.4405L105.024 21.6034ZM105.17 21.6865L105.203 21.7044L108.034 16.4139L108 16.3961L105.17 21.6865ZM109.264 20.4749L110.087 18.9374L104.797 16.1058L103.974 17.6434L109.264 20.4749ZM97.8714 11.5152L98.8346 10.0613L93.8327 6.74757L92.8695 8.20149L97.8714 11.5152ZM97.9919 5.90438L97.9642 5.88597L94.6477 10.886L94.6754 10.9044L97.9919 5.90438ZM97.8652 5.82307L97.8368 5.80579L94.7182 10.9316L94.7466 10.9489L97.8652 5.82307ZM93.7151 6.80849L92.8081 8.29812L97.9328 11.4186L98.8399 9.92894L93.7151 6.80849ZM90.0947 6.13607L88.9811 7.47824L93.5987 11.3094L94.7123 9.96726L90.0947 6.13607ZM89.3744 11.7027L89.4723 11.7839L93.3033 7.1662L93.2054 7.08497L89.3744 11.7027ZM89.8276 12.0374L89.9362 12.1035L93.0567 6.97888L92.9481 6.91274L89.8276 12.0374ZM94.0588 11.1015L94.9658 9.61199L89.8412 6.49134L88.9342 7.98088L94.0588 11.1015ZM84.7333 6.98584L83.1524 7.7221L85.6854 13.1612L87.2663 12.4249L84.7333 6.98584ZM81.699 11.7075L81.7674 11.8544L87.2071 9.32277L87.1387 9.17583L81.699 11.7075ZM82.0479 12.3349L82.1422 12.4666L87.021 8.97412L86.9266 8.84234L82.0479 12.3349ZM86.3276 13.16L87.7458 12.145L84.2539 7.2658L82.8356 8.28079L86.3276 13.16ZM92.426 18.3812L91.0708 19.479L94.8473 24.1413L96.2025 23.0436L92.426 18.3812ZM90.6218 23.6909L90.6255 23.6955L95.2999 19.9339L95.2963 19.9294L90.6218 23.6909ZM90.6513 23.7271L90.655 23.7316L95.2779 19.9068L95.2741 19.9023L90.6513 23.7271ZM94.8703 24.1377L96.2181 23.0309L92.4104 18.394L91.0626 19.5008L94.8703 24.1377ZM107.302 34.7825L108.54 33.5543L104.314 29.2946L103.076 30.5229L107.302 34.7825ZM108.562 29.3173L108.552 29.3068L104.281 33.5211L104.292 33.5316L108.562 29.3173ZM108.503 29.2586L108.493 29.2482L104.319 33.559L104.33 33.5693L108.503 29.2586ZM104.257 29.31L103.04 30.5591L107.337 34.7463L108.555 33.4972L104.257 29.31ZM117.521 39.2451L117.473 40.9883L123.47 41.1564L123.519 39.4132L117.521 39.2451ZM120.387 44.0712L120.43 44.0724L120.599 38.0748L120.556 38.0735L120.387 44.0712ZM120.573 44.073L120.616 44.0721L120.499 38.0733L120.455 38.0741L120.573 44.073ZM123.557 41.009L123.52 39.2655L117.521 39.3929L117.558 41.1364L123.557 41.009ZM129.701 39.4615L129.519 41.1959L135.486 41.8235L135.668 40.0891L129.701 39.4615ZM132.177 44.492L132.185 44.4929L132.835 38.5282L132.827 38.5274L132.177 44.492ZM132.208 44.4953L132.216 44.4961L132.82 38.5266L132.812 38.5258L132.208 44.4953ZM135.504 41.7984L135.671 40.0624L129.698 39.4882L129.531 41.2242L135.504 41.7984ZM151.441 43.2446L150.977 44.9259L156.762 46.5194L157.225 44.838L151.441 43.2446ZM153.081 48.6173L153.099 48.622L154.675 42.8328L154.658 42.8281L153.081 48.6173ZM153.145 48.6342L153.163 48.6387L154.647 42.8251L154.629 42.8206L153.145 48.6342ZM156.813 46.4684L157.241 44.7779L151.425 43.3047L150.996 44.9953L156.813 46.4684ZM173.458 49.0609L173.983 47.3978L168.262 45.591L167.737 47.2541L173.458 49.0609ZM172.026 43.6337L171.978 43.6185L170.171 49.3399L170.219 49.3551L172.026 43.6337ZM171.81 43.5707L171.76 43.5582L170.29 49.3752L170.339 49.3877L171.81 43.5707ZM168.117 45.7311L167.689 47.4219L173.506 48.8931L173.934 47.2023L168.117 45.7311ZM178.849 53.4188L180.534 52.9686L178.985 47.172L177.3 47.6222L178.849 53.4188ZM182.658 49.2954L182.411 48.3711L176.614 49.9208L176.861 50.8451L182.658 49.2954ZM180.416 46.2854L179.504 45.9971L177.696 51.7182L178.608 52.0065L180.416 46.2854ZM175.74 47.9533L175.214 49.6161L180.935 51.4249L181.461 49.762L175.74 47.9533ZM175.49 68.5302L176.824 69.6532L180.688 65.0626L179.353 63.9396L175.49 68.5302ZM181.049 69.2925L181.19 69.1247L176.605 65.2554L176.463 65.4232L181.049 69.2925ZM181.602 68.4889L181.697 68.2911L176.288 65.6934L176.193 65.8913L181.602 68.4889ZM180.295 64.2899L178.725 63.5326L176.119 68.9373L177.69 69.6946L180.295 64.2899ZM135.814 101.463L136.755 102.932L141.808 99.6971L140.868 98.2282L135.814 101.463ZM140.875 103.856L140.886 103.849L137.699 98.7657L137.687 98.7728L140.875 103.856ZM141.037 103.748L141.048 103.74L137.558 98.8592L137.548 98.867L141.037 103.748ZM141.805 99.6438L140.843 98.1898L135.839 101.501L136.802 102.955L141.805 99.6438ZM93.3359 123.335L92.6664 121.724L87.1259 124.027L87.7953 125.638L93.3359 123.335ZM88.6273 120.157L88.6213 120.16L91.159 125.597L91.165 125.594L88.6273 120.157ZM87.1243 124.04L87.7997 125.648L93.3316 123.325L92.6561 121.716L87.1243 124.04ZM48.0057 139.083L47.5798 137.392L41.7615 138.857L42.1874 140.548L48.0057 139.083ZM44.0892 135.182L44.0848 135.182L45.2477 141.069L45.2521 141.068L44.0892 135.182ZM43.7705 135.262L43.7659 135.264L45.5575 140.99L45.562 140.989L43.7705 135.262ZM41.7565 138.875L42.1913 140.564L48.0018 139.068L47.567 137.379L41.7565 138.875ZM16.3705 145.232L16.3361 143.488L10.3373 143.607L10.3717 145.351L16.3705 145.232ZM13.2908 140.548L13.2599 140.548L13.3517 146.548L13.3826 146.547L13.2908 140.548ZM13.1421 140.552L13.1111 140.554L13.4384 146.545L13.4694 146.544L13.1421 140.552ZM10.2793 143.715L10.3757 145.457L16.3665 145.126L16.2702 143.384L10.2793 143.715ZM5.62483 144.876L3.88164 144.827L3.71343 150.825L5.45663 150.874L5.62483 144.876ZM0.798792 147.74L0.795198 147.864L6.79269 148.037L6.79629 147.913L0.798792 147.74ZM0.813935 148.296L0.828177 148.419L6.7882 147.728L6.77396 147.605L0.813935 148.296ZM4.1491 151.054L5.88164 150.856L5.19982 144.895L3.46727 145.093L4.1491 151.054ZM9.05383 150.573L8.82613 152.302L14.7748 153.086L15.0025 151.356L9.05383 150.573ZM11.4123 155.669L11.4943 155.679L12.2705 149.73L12.1886 149.719L11.4123 155.669ZM11.7772 155.703L11.8598 155.706L12.0703 149.709L11.9877 149.706L11.7772 155.703ZM14.9631 152.816L15.0262 151.073L9.03012 150.856L8.967 152.599L14.9631 152.816ZM90.9178 138.585L91.4826 140.235L97.1592 138.292L96.5944 136.642L90.9178 138.585ZM95.33 142.089L95.3342 142.087L93.3162 136.437L93.3119 136.438L95.33 142.089ZM95.3432 142.084L95.3474 142.083L93.3115 136.439L93.3073 136.44L95.3432 142.084ZM97.1627 138.274L96.5893 136.627L90.9229 138.6L91.4963 140.247L97.1627 138.274ZM173.071 100.529L174.62 99.7274L171.864 94.398L170.315 95.1994L173.071 100.529ZM175.907 95.6847L174.999 93.9295L169.67 96.6855L170.577 98.4407L175.907 95.6847ZM170.636 92.8348L169.007 93.9538L172.405 98.8991L174.033 97.7801L170.636 92.8348ZM168.232 98.1244L169.219 99.562L174.166 96.1662L173.179 94.7286L168.232 98.1244ZM231.771 214.041L230.222 214.842L232.979 220.171L234.527 219.37L231.771 214.041ZM228.931 218.877L228.951 218.915L234.289 216.175L234.269 216.137L228.931 218.877ZM229.019 219.04L229.04 219.077L234.242 216.087L234.221 216.05L229.019 219.04ZM233.149 220.176L234.657 219.299L231.641 214.112L230.133 214.989L233.149 220.176ZM237.605 223.939L236.563 225.336L241.371 228.924L242.414 227.527L237.605 223.939ZM237.176 229.537L237.209 229.561L240.79 224.748L240.758 224.723L237.176 229.537ZM237.319 229.64L237.353 229.663L240.713 224.692L240.68 224.669L237.319 229.64ZM241.519 228.857L242.495 227.413L237.524 224.053L236.548 225.497L241.519 228.857ZM242.087 227.349L242.381 229.068L248.295 228.056L248.001 226.337L242.087 227.349ZM245.849 231.518L246.033 231.486L245.011 225.574L244.827 225.606L245.849 231.518ZM246.643 231.313L246.817 231.243L244.575 225.677L244.401 225.747L246.643 231.313ZM248.478 227.339L247.827 225.721L242.261 227.964L242.913 229.581L248.478 227.339ZM249.273 215.232L247.529 215.23L247.524 221.23L249.268 221.232L249.273 215.232ZM244.528 218.137L244.528 218.145L250.525 218.331L250.525 218.323L244.528 218.137ZM247.536 221.238L249.28 221.232L249.26 215.232L247.516 215.238L247.536 221.238ZM243.783 197.525L245.385 196.835L243.009 191.325L241.408 192.015L243.783 197.525ZM246.975 192.947L246.965 192.924L241.409 195.189L241.419 195.213L246.975 192.947ZM246.886 192.747L246.875 192.724L241.478 195.344L241.488 195.367L246.886 192.747ZM242.91 191.315L241.329 192.051L243.862 197.49L245.443 196.754L242.91 191.315ZM232.547 175.866L233.963 174.849L230.464 169.976L229.047 170.992L232.547 175.866ZM234.659 170.674L234.653 170.667L229.763 174.143L229.768 174.151L234.659 170.674ZM234.66 170.676L234.654 170.668L229.751 174.127L229.756 174.134L234.66 170.676ZM230.427 169.979L229.022 171.011L232.572 175.848L233.978 174.816L230.427 169.979ZM218.841 161.329L217.665 162.617L222.094 166.664L223.271 165.376L218.841 161.329ZM217.885 166.882L217.912 166.906L221.901 162.423L221.873 162.399L217.885 166.882ZM217.959 166.947L217.987 166.971L221.881 162.406L221.854 162.382L217.959 166.947ZM222.232 166.618L223.354 165.282L218.759 161.423L217.637 162.759L222.232 166.618ZM203.542 142.726L202.082 143.679L205.358 148.705L206.819 147.752L203.542 142.726ZM201.179 147.787L201.19 147.804L206.271 144.614L206.261 144.597L201.179 147.787ZM201.284 147.944L201.295 147.961L206.189 144.49L206.177 144.473L201.284 147.944ZM205.438 148.7L206.877 147.714L203.485 142.765L202.046 143.751L205.438 148.7ZM180.254 90.3814L178.93 89.247L175.027 93.8041L176.351 94.9385L180.254 90.3814ZM174.699 89.5744L173.984 90.41L178.542 94.3123L179.257 93.4767L174.699 89.5744ZM173.521 93.5777L173.967 94.583L179.451 92.15L179.005 91.1447L173.521 93.5777ZM177.924 96.1092L179.519 95.4026L177.087 89.9173L175.493 90.6238L177.924 96.1092ZM185.613 87.0303L184.706 85.5402L179.58 88.6587L180.487 90.1488L185.613 87.0303ZM180.572 84.5438L180.549 84.558L183.691 89.6694L183.715 89.6551L180.572 84.5438ZM180.477 84.6039L180.454 84.6188L183.741 89.6384L183.764 89.6235L180.477 84.6039ZM179.584 88.767L180.537 90.2279L185.563 86.9512L184.611 85.4902L179.584 88.767ZM185.458 87.1572L186.297 88.6857L191.556 85.7962L190.716 84.2677L185.458 87.1572ZM190.353 89.8799L190.368 89.872L187.514 84.5941L187.5 84.602L190.353 89.8799ZM190.455 89.8228L190.47 89.8146L187.441 84.6349L187.427 84.6432L190.455 89.8228ZM191.557 85.7305L190.688 84.2181L185.485 87.2067L186.354 88.719L191.557 85.7305ZM195.812 80.1105L197.491 80.5803L199.108 74.8022L197.428 74.3324L195.812 80.1105ZM201.187 78.5072L201.204 78.4466L195.43 76.8148L195.413 76.8754L201.187 78.5072ZM201.256 78.2304L201.269 78.1688L195.39 76.9694L195.377 77.0311L201.256 78.2304ZM198.927 74.6293L197.218 74.2816L196.022 80.1612L197.731 80.5089L198.927 74.6293ZM193.336 55.197L193.85 53.5302L188.115 51.7636L187.602 53.4303L193.336 55.197ZM191.866 49.78L188.114 48.6236L186.347 54.3575L190.099 55.5138L191.866 49.78ZM184.511 52.7568L186.168 56.316L191.607 53.7835L189.95 50.2243L184.511 52.7568ZM190.154 57.7695L191.735 57.0334L189.203 51.5939L187.622 52.33L190.154 57.7695ZM233.982 68.4127L233.41 70.0603L239.079 72.0267L239.65 70.379L233.982 68.4127ZM235.25 73.8739L235.259 73.8772L237.248 68.2164L237.239 68.2131L235.25 73.8739ZM235.31 73.8945L235.319 73.8976L237.207 68.2022L237.198 68.1991L235.31 73.8945ZM239.108 72.0009L239.661 70.3468L233.971 68.4448L233.418 70.0989L239.108 72.0009ZM269.899 81.2872L269.216 82.892L274.737 85.241L275.42 83.6362L269.899 81.2872ZM270.802 86.8272L270.945 86.8878L273.293 81.3664L273.15 81.3058L270.802 86.8272ZM271.449 87.0514L271.6 87.0859L272.94 81.2374L272.789 81.2029L271.449 87.0514ZM275.194 84.8317L275.583 83.1317L269.735 81.7917L269.345 83.4916L275.194 84.8317ZM284.443 82.6907L284.183 80.9663L278.25 81.8608L278.51 83.5852L284.443 82.6907ZM280.734 78.4525L280.728 78.4536L281.692 84.3756L281.698 84.3746L280.734 78.4525ZM280.845 78.4368L280.838 78.4377L281.567 84.3933L281.574 84.3924L280.845 78.4368ZM278.24 81.8862L278.513 83.6086L284.439 82.6672L284.165 80.9448L278.24 81.8862ZM285.603 82.7595L287.241 83.3568L289.296 77.7197L287.657 77.1224L285.603 82.7595ZM291.087 81.5655L291.112 81.4973L285.475 79.4428L285.45 79.511L291.087 81.5655ZM291.192 81.245L291.21 81.175L285.414 79.6251L285.395 79.6951L291.192 81.245ZM289.102 77.5059L287.42 77.0468L285.84 82.8351L287.522 83.2942L289.102 77.5059ZM280.775 69.1889L279.534 70.4141L283.749 74.684L284.99 73.4588L280.775 69.1889ZM279.487 74.6369L279.502 74.6517L283.81 70.4761L283.796 70.4612L279.487 74.6369ZM279.571 74.7208L279.586 74.7354L283.756 70.4215L283.741 70.4069L279.571 74.7208ZM283.829 74.6625L285.041 73.4079L280.725 69.2398L279.513 70.4945L283.829 74.6625ZM267.988 61.2049L268.779 59.6507L263.432 56.9288L262.641 58.483L267.988 61.2049ZM267.465 55.6156L267.401 55.5827L264.681 60.931L264.746 60.9639L267.465 55.6156ZM267.176 55.4799L267.109 55.4526L264.839 61.0064L264.906 61.0337L267.176 55.4799ZM263.197 57.0948L262.537 58.7092L268.091 60.9787L268.751 59.3643L263.197 57.0948ZM248.731 56.1666L248.63 57.9077L254.62 58.2562L254.721 56.5151L248.731 56.1666ZM251.442 61.0763L251.468 61.078L251.835 55.0892L251.809 55.0876L251.442 61.0763ZM251.571 61.0825L251.597 61.0832L251.759 55.0854L251.732 55.0847L251.571 61.0825ZM254.677 58.1674L254.725 56.424L248.727 56.2578L248.679 58.0012L254.677 58.1674ZM240.371 58.3239L240.783 60.0187L246.613 58.6002L246.201 56.9054L240.371 58.3239ZM244.413 62.2231L244.46 62.2116L243.03 56.3843L242.983 56.3958L244.413 62.2231ZM244.627 62.1652L244.673 62.1511L242.908 56.4165L242.862 56.4307L244.627 62.1652ZM246.662 58.4146L246.157 56.7454L240.414 58.4838L240.92 60.153L246.662 58.4146ZM240.551 58.5089L240.6 56.7658L234.602 56.5978L234.553 58.3409L240.551 58.5089ZM237.688 53.683L237.603 53.6806L237.429 59.678L237.514 59.6805L237.688 53.683ZM237.308 53.6865L237.224 53.6924L237.641 59.6779L237.724 59.6721L237.308 53.6865ZM234.44 56.8906L234.559 58.6304L240.545 58.2195L240.425 56.4797L234.44 56.8906ZM232.077 53.5549L228.556 52.2715L226.501 57.9087L230.022 59.1921L232.077 53.5549ZM224.71 54.0626L223.515 57.3397L229.152 59.3946L230.347 56.1176L224.71 54.0626ZM225.306 61.1857L228.827 62.4691L230.882 56.832L227.361 55.5486L225.306 61.1857ZM232.673 60.678L233.868 57.4009L228.231 55.346L227.036 58.6231L232.673 60.678ZM228.314 52.1908L197.969 42.9416L196.219 48.6809L226.565 57.9301L228.314 52.1908ZM194.224 44.9366L193.207 48.273L198.947 50.0224L199.964 46.686L194.224 44.9366ZM195.202 52.0174L225.548 61.2665L227.297 55.5272L196.952 46.278L195.202 52.0174ZM229.292 59.2716L230.309 55.9352L224.57 54.1857L223.553 57.5222L229.292 59.2716ZM197.903 42.9222C178.665 37.3591 164.734 33.2452 156.089 30.5745L154.318 36.3073C163.019 38.9951 176.994 43.1219 196.237 48.6861L197.903 42.9222ZM152.337 32.5557L151.308 35.8884L157.041 37.6588L158.07 34.3261L152.337 32.5557ZM153.289 39.64C162.022 42.3378 176.023 46.472 195.268 52.0368L196.934 46.2729C177.694 40.7092 163.737 36.5878 155.06 33.9072L153.289 39.64ZM198.983 49.9883L199.952 46.6376L194.188 44.9707L193.219 48.3214L198.983 49.9883ZM156.113 30.5819C141.563 26.0045 132.164 22.9343 127.802 21.3442L125.747 26.9814C130.258 28.6258 139.79 31.7365 154.312 36.3054L156.113 30.5819ZM124.552 30.2584C129.15 31.9345 138.759 35.0687 153.265 39.6325L155.066 33.9091C140.532 29.3367 131.056 26.2431 126.607 24.6213L124.552 30.2584ZM157.027 37.6713L158.074 34.3442L152.351 32.5431L151.304 35.8703L157.027 37.6713ZM127.802 21.3442C121.158 18.9226 115.122 16.2515 109.68 13.3391L106.849 18.6289C112.57 21.6915 118.871 24.4749 125.747 26.9814L127.802 21.3442ZM105.62 14.5682L103.974 17.6434L109.264 20.4749L110.91 17.3997L105.62 14.5682ZM105.203 21.7041C111.087 24.8538 117.541 27.7026 124.552 30.2584L126.607 24.6213C119.828 22.1503 113.638 19.4139 108.034 16.4142L105.203 21.7041ZM109.86 13.4403C106.775 11.6124 102.825 9.10596 97.9905 5.90345L94.6768 10.9054C99.5527 14.1356 103.596 16.7027 106.801 18.6021L109.86 13.4403ZM93.8327 6.74756L91.9063 9.65535L96.9083 12.9691L98.8346 10.0613L93.8327 6.74756ZM92.7504 13.8132C97.6506 17.0595 101.747 19.6619 105.023 21.6029L108.082 16.441C104.927 14.5716 100.923 12.0299 96.0642 8.81124L92.7504 13.8132ZM109.134 20.5513L110.912 17.5505L105.75 14.4919L103.972 17.4927L109.134 20.5513ZM97.8378 5.80639L94.8708 3.99972L91.7503 9.12437L94.7172 10.931L97.8378 5.80639ZM90.7482 5.00177L88.9341 7.98093L94.0588 11.1015L95.8729 8.12232L90.7482 5.00177ZM89.9362 12.1035L92.9031 13.9102L96.0237 8.78555L93.0567 6.97888L89.9362 12.1035ZM97.0257 12.9082L98.8398 9.92899L93.7152 6.80844L91.9011 9.78761L97.0257 12.9082ZM95.4327 4.4007C93.9641 3.18224 92.4707 2.14025 90.9734 1.41836L88.3678 6.82307C89.2713 7.25868 90.3474 7.97779 91.6015 9.01828L95.4327 4.4007ZM90.9734 1.41837C89.514 0.714807 87.6837 0.137539 85.6963 0.365212L86.3792 6.32622C86.8099 6.27689 87.4536 6.38236 88.3677 6.82306L90.9734 1.41837ZM86.7766 9.79155C86.6449 9.80666 86.5464 9.80409 86.4887 9.79982C86.4303 9.7955 86.4042 9.78874 86.4144 9.79107C86.438 9.79646 86.5788 9.83279 86.853 9.965L89.4585 4.56026C88.3153 4.00914 87.1749 3.70656 86.0931 3.83062L86.7766 9.79155ZM86.853 9.96498C87.4111 10.2341 88.2446 10.7653 89.3744 11.7027L93.2055 7.08501C91.8617 5.97016 90.6109 5.11582 89.4586 4.56028L86.853 9.96498ZM93.5987 11.3094L95.8259 8.62508L91.2083 4.7939L88.9811 7.47825L93.5987 11.3094ZM85.6961 0.365233C84.5434 0.497357 83.0725 0.96706 81.8929 2.23808L86.2908 6.31954C86.2819 6.32917 86.2706 6.33899 86.2592 6.347C86.2483 6.35461 86.2425 6.35695 86.2453 6.35574C86.2485 6.35431 86.2608 6.34921 86.2841 6.34316C86.3077 6.33705 86.3395 6.33078 86.3794 6.3262L85.6961 0.365233ZM81.893 2.23801C80.7208 3.50105 80.3622 4.98946 80.3043 6.12299L86.2964 6.42943C86.301 6.33973 86.3152 6.2916 86.32 6.27833C86.3218 6.27334 86.3207 6.27759 86.3146 6.28774C86.3082 6.29849 86.2997 6.30996 86.2908 6.31962L81.893 2.23801ZM80.3043 6.12314C80.2017 8.13092 80.9735 10.1496 81.6993 11.7082L87.1384 9.17515C86.4745 7.74947 86.2737 6.87448 86.2964 6.42927L80.3043 6.12314ZM85.6854 13.1612L88.8473 11.6887L86.3143 6.24958L83.1524 7.7221L85.6854 13.1612ZM90.3003 7.70263C90.0292 7.12044 89.8832 6.71845 89.8123 6.47123L84.0446 8.12463C84.2277 8.76337 84.5044 9.46933 84.8612 10.2356L90.3003 7.70263ZM89.8122 6.47084C89.7776 6.35018 89.7707 6.29968 89.7722 6.31014C89.7731 6.31588 89.7768 6.34228 89.7796 6.38716C89.7823 6.42943 89.7851 6.50503 89.7799 6.60715L83.7877 6.30135C83.7584 6.87684 83.8643 7.49584 84.0447 8.12503L89.8122 6.47084ZM89.7799 6.60748C89.7778 6.64904 89.7743 6.69572 89.7687 6.74699C89.7659 6.77309 89.7629 6.79706 89.76 6.81829C89.759 6.8259 89.7573 6.83792 89.7586 6.82916C89.7588 6.82761 89.7595 6.82236 89.7604 6.81567C89.7611 6.81058 89.7632 6.79456 89.7657 6.77404C89.766 6.77162 89.7755 6.69689 89.7813 6.60352C89.783 6.57512 89.7859 6.50588 89.7868 6.46502C89.7872 6.40288 89.7818 6.23463 89.7735 6.12874C89.7454 5.91577 89.506 5.14696 89.2041 4.63792C87.9132 3.63459 85.3264 3.79497 84.5334 4.43529C84.3335 4.68923 84.0967 5.0882 84.0373 5.21615C84.0071 5.28803 83.962 5.40625 83.9461 5.45209C83.9177 5.53579 83.8994 5.60236 83.8938 5.62285C83.8799 5.67359 83.8704 5.7139 83.8688 5.7206C83.8655 5.73433 83.863 5.74509 83.8622 5.74858C83.8612 5.75293 83.8605 5.75642 83.8604 5.75689C83.8597 5.75966 83.862 5.74934 83.8648 5.73772C83.8706 5.7124 83.8779 5.68262 83.8868 5.64949C83.9043 5.58391 83.9252 5.5153 83.9504 5.44457C84.0524 5.15725 84.213 4.86569 84.4495 4.61086L88.8477 8.69206C89.2419 8.26722 89.473 7.82266 89.6046 7.45204C89.6371 7.36048 89.6628 7.27541 89.6834 7.19853C89.6937 7.15977 89.7021 7.12563 89.7087 7.09736C89.7117 7.08426 89.7143 7.07282 89.7138 7.07483C89.7138 7.07511 89.713 7.07842 89.7121 7.08263C89.7113 7.08598 89.7089 7.09661 89.7056 7.11024C89.704 7.11684 89.6945 7.15708 89.6807 7.20776C89.6751 7.22822 89.6568 7.29477 89.6284 7.37845C89.6125 7.42429 89.5674 7.54251 89.5372 7.61438C89.4778 7.74232 89.241 8.1413 89.0411 8.39523C88.2481 9.03555 85.6612 9.19593 84.3704 8.1926C84.0685 7.68356 83.8291 6.91476 83.801 6.70179C83.7927 6.5959 83.7873 6.42766 83.7877 6.36553C83.7886 6.32468 83.7915 6.25544 83.7931 6.22705C83.799 6.13372 83.8085 6.05906 83.8087 6.05672C83.8112 6.03629 83.8133 6.02039 83.814 6.01543C83.8149 6.00888 83.8156 6.00379 83.8158 6.00242C83.8169 5.9944 83.8151 6.00754 83.8138 6.01668C83.8106 6.04096 83.807 6.06958 83.8035 6.10204C83.7966 6.16603 83.7913 6.23227 83.7878 6.30102L89.7799 6.60748ZM84.4497 4.61062C84.6896 4.35218 84.9705 4.17144 85.2455 4.05122C85.313 4.0217 85.3782 3.99668 85.4398 3.97538C85.5031 3.95349 85.5658 3.93512 85.5417 3.94238C85.5392 3.94314 85.5052 3.95327 85.4632 3.96718C85.4452 3.97314 85.3903 3.99142 85.3212 4.01823C85.2875 4.03129 85.2203 4.05799 85.1375 4.09664C85.0947 4.11662 84.8709 4.21898 84.6204 4.40461C84.4718 4.52214 84.1047 4.89083 83.9066 5.1563C83.6236 5.69401 83.4281 7.17648 83.669 8.0428C84.0538 8.67677 84.93 9.42678 85.3063 9.60618C85.5249 9.68274 85.8867 9.7698 86.0258 9.7909C86.2693 9.82204 86.4616 9.81503 86.5114 9.81329C86.5905 9.81052 86.6533 9.80513 86.6865 9.80202C86.7535 9.79573 86.8057 9.78849 86.824 9.78592C86.8481 9.78253 86.8672 9.77954 86.8771 9.77797C86.9031 9.77385 86.9334 9.76854 86.9179 9.77121C86.9158 9.77157 86.909 9.77274 86.9002 9.77419C86.8605 9.78076 86.8188 9.78671 86.7764 9.79158L86.0933 3.83059C86.0279 3.83808 85.9707 3.84643 85.9219 3.85448C85.9109 3.85631 85.9023 3.85779 85.8987 3.8584C85.8818 3.86132 85.911 3.8562 85.9364 3.85218C85.946 3.85064 85.965 3.84767 85.989 3.8443C86.0072 3.84174 86.0593 3.83452 86.1262 3.82823C86.1593 3.82513 86.2221 3.81975 86.3012 3.81697C86.351 3.81523 86.5433 3.80823 86.7868 3.83936C86.9258 3.86046 87.2876 3.94752 87.5063 4.02408C87.8825 4.20347 88.7588 4.95348 89.1436 5.58745C89.3844 6.45377 89.1889 7.93624 88.9059 8.47394C88.7078 8.73941 88.3408 9.1081 88.1922 9.22563C87.9416 9.41125 87.7179 9.5136 87.6751 9.53357C87.5924 9.57221 87.5251 9.5989 87.4915 9.61195C87.4225 9.63873 87.3676 9.65698 87.3497 9.6629C87.3079 9.67674 87.2743 9.68677 87.2722 9.68742C87.2513 9.69371 87.3228 9.67282 87.3998 9.6462C87.4751 9.62018 87.5588 9.58822 87.6487 9.5489C88.0134 9.38946 88.4471 9.12365 88.8474 8.6923L84.4497 4.61062ZM82.142 12.4664C85.2236 16.772 88.0531 20.5198 90.6279 23.6984L95.2902 19.9219C92.8096 16.8595 90.0535 13.2113 87.0212 8.97438L82.142 12.4664ZM94.8473 24.1413L97.5577 21.9458L93.7812 17.2835L91.0708 19.479L94.8473 24.1413ZM98.0006 17.7264C95.5747 14.7316 92.8614 11.1413 89.8576 6.94436L84.9785 10.4364C88.0314 14.702 90.8182 18.3919 93.3383 21.503L98.0006 17.7264ZM85.672 6.25081L82.8356 8.28081L86.3276 13.16L89.164 11.13L85.672 6.25081ZM90.648 23.7231C94.4242 28.3217 98.1671 32.4345 101.878 36.0505L106.065 31.7531C102.536 28.3147 98.9427 24.3697 95.2849 19.9153L90.648 23.7231ZM106.12 35.9954L108.555 33.4972L104.257 29.31L101.823 31.8082L106.12 35.9954ZM108.499 29.2549C105.077 25.9197 101.57 22.0723 97.9805 17.7017L93.3436 21.5095C97.051 26.0242 100.707 30.0395 104.312 33.5523L108.499 29.2549ZM93.7582 17.2871L91.0626 19.5008L94.8703 24.1377L97.5659 21.9241L93.7582 17.2871ZM101.821 35.9938C104.96 39.1581 108.131 41.675 111.271 42.8198L113.326 37.1826C111.459 36.5021 109.049 34.7609 106.08 31.7681L101.821 35.9938ZM114.521 33.9056C113.395 33.4953 111.428 32.2065 108.557 29.3117L104.297 33.5372C107.337 36.6012 110.065 38.6676 112.466 39.5427L114.521 33.9056ZM104.314 29.2947L101.838 31.7512L106.064 36.0107L108.54 33.5542L104.314 29.2947ZM111.271 42.8198C113.548 43.6495 116.766 43.9705 120.388 44.0712L120.555 38.0735C116.976 37.974 114.613 37.6518 113.326 37.1826L111.271 42.8198ZM123.47 41.156L123.567 37.6694L117.57 37.5022L117.473 40.9888L123.47 41.156ZM120.652 34.5869C117.093 34.488 115.23 34.1642 114.521 33.9056L112.466 39.5427C114.167 40.1629 116.89 40.4847 120.485 40.5846L120.652 34.5869ZM120.621 44.072C124.839 43.982 128.693 44.1263 132.189 44.4933L132.815 38.5261C129.03 38.1288 124.922 37.9789 120.493 38.0734L120.621 44.072ZM135.486 41.823L135.85 38.3541L129.883 37.7275L129.519 41.1964L135.486 41.823ZM133.18 35.0571C129.227 34.6422 124.97 34.4891 120.419 34.5861L120.547 40.5847C124.888 40.4922 128.889 40.6397 132.553 41.0244L133.18 35.0571ZM117.483 37.6495L117.558 41.1368L123.557 41.0086L123.482 37.5213L117.483 37.6495ZM132.23 44.4975C138.191 45.0709 145.129 46.4279 153.073 48.6151L154.666 42.8303C146.49 40.5794 139.201 39.1403 132.805 38.5251L132.23 44.4975ZM156.762 46.5189L157.688 43.156L151.903 41.5635L150.977 44.9264L156.762 46.5189ZM155.592 39.4673C147.281 37.1794 139.787 35.6925 133.139 35.0531L132.564 41.0256C138.778 41.6231 145.92 43.0279 153.999 45.2521L155.592 39.4673ZM129.865 37.7522L129.531 41.2242L135.504 41.7984L135.838 38.3264L129.865 37.7522ZM153.169 48.6402L169.433 52.7564L170.905 46.9398L154.641 42.8236L153.169 48.6402ZM173.078 50.5842L173.933 47.2028L168.117 45.7306L167.261 49.112L173.078 50.5842ZM171.761 43.5584L155.496 39.4422L154.024 45.2588L170.289 49.375L171.761 43.5584ZM151.852 41.6144L150.996 44.9958L156.813 46.468L157.669 43.0866L151.852 41.6144ZM169.168 52.6809L176.645 55.0439L178.453 49.3228L170.976 46.9598L169.168 52.6809ZM180.409 53.0878L181.461 49.762L175.74 47.9533L174.688 51.279L180.409 53.0878ZM179.504 45.9971L172.027 43.6339L170.219 49.3549L177.696 51.7182L179.504 45.9971ZM168.262 45.5905L167.211 48.9165L172.932 50.7243L173.983 47.3983L168.262 45.5905ZM173.491 51.7457C174.085 53.9654 174.354 56.2819 174.286 58.7122L180.284 58.8795C180.367 55.8914 180.036 52.9954 179.288 50.1958L173.491 51.7457ZM183.771 58.9763C183.863 55.664 183.496 52.4316 182.658 49.2958L176.861 50.8448C177.544 53.4015 177.85 56.0551 177.773 58.8098L183.771 58.9763ZM178.985 47.172L175.615 48.0724L177.164 53.8691L180.534 52.9686L178.985 47.172ZM174.286 58.7129C174.22 61.0822 173.784 62.8557 173.148 64.1749L178.553 66.7803C179.638 64.5298 180.2 61.8838 180.284 58.8788L174.286 58.7129ZM174.548 68.1799L177.69 69.6946L180.295 64.2899L177.154 62.7752L174.548 68.1799ZM181.695 68.2956C183.042 65.5024 183.676 62.3484 183.771 58.9768L177.773 58.8092C177.696 61.5484 177.188 63.8291 176.291 65.6889L181.695 68.2956ZM173.792 63.1802C164.346 74.4042 151.691 85.3195 135.722 95.8897L139.034 100.893C155.355 90.0896 168.48 78.8094 178.383 67.0437L173.792 63.1802ZM134.876 100.047L136.802 102.956L141.805 99.6436L139.879 96.7353L134.876 100.047ZM140.959 103.801C157.485 92.8622 170.885 81.3704 181.051 69.2896L176.461 65.4262C166.75 76.9652 153.821 88.0921 137.647 98.798L140.959 103.801ZM180.688 65.0626L178.019 62.8167L174.156 67.4072L176.824 69.6532L180.688 65.0626ZM135.782 95.8509C121.856 104.77 106.182 112.859 88.7449 120.105L91.0474 125.646C108.767 118.282 124.759 110.036 139.018 100.904L135.782 95.8509ZM87.1259 124.027L88.4645 127.248L94.0051 124.945L92.6665 121.724L87.1259 124.027ZM92.386 128.867C110.27 121.435 126.447 113.097 140.899 103.841L137.663 98.7882C123.543 107.831 107.685 116.012 90.0835 123.326L92.386 128.867ZM141.808 99.6967L139.927 96.7595L134.874 99.9949L136.755 102.932L141.808 99.6967ZM88.7291 120.112C73.521 126.495 58.5909 131.526 43.9382 135.215L45.4031 141.034C60.3724 137.265 75.5888 132.134 91.0512 125.644L88.7291 120.112ZM41.7614 138.857L42.613 142.24L48.4314 140.775L47.5799 137.392L41.7614 138.857ZM46.2546 144.416C61.408 140.602 76.7909 135.413 92.4016 128.86L90.0795 123.328C74.723 129.773 59.6264 134.863 44.7898 138.598L46.2546 144.416ZM94.0066 124.933L92.6563 121.717L87.1241 124.04L88.4745 127.256L94.0066 124.933ZM43.914 135.222C30.4181 138.695 20.2674 140.41 13.2774 140.548L13.3959 146.547C21.0907 146.395 31.7784 144.54 45.4094 141.032L43.914 135.222ZM10.3373 143.607L10.4063 147.094L16.4052 146.975L16.3361 143.488L10.3373 143.607ZM13.4649 150.034C21.569 149.874 32.5685 147.939 46.2789 144.41L44.7833 138.6C31.2087 142.093 20.7461 143.889 13.3466 144.035L13.4649 150.034ZM48.4364 140.757L47.567 137.379L41.7564 138.875L42.6258 142.253L48.4364 140.757ZM13.1089 140.554C10.4002 140.704 7.95109 141.017 6.04207 141.647L7.92161 147.345C9.06721 146.967 10.8828 146.687 13.4406 146.545L13.1089 140.554ZM6.04188 141.647C5.09355 141.96 3.94225 142.457 2.94574 143.321L6.87508 147.855C7.03055 147.72 7.34833 147.534 7.9218 147.345L6.04188 141.647ZM2.9455 143.321C1.85468 144.267 0.853832 145.762 0.7987 147.743L6.79638 147.91C6.79639 147.909 6.79631 147.912 6.79558 147.917C6.79486 147.922 6.7937 147.928 6.79208 147.934C6.79046 147.94 6.78871 147.945 6.78716 147.949C6.78564 147.952 6.78462 147.954 6.78469 147.954C6.78556 147.953 6.80714 147.914 6.87532 147.855L2.9455 143.321ZM3.71394 150.825L7.20053 150.922L7.36773 144.925L3.88114 144.827L3.71394 150.825ZM4.28529 147.84C4.2978 147.39 4.43525 147.017 4.58169 146.747C4.61764 146.681 4.65293 146.623 4.68477 146.574C4.71654 146.525 4.7445 146.486 4.74144 146.49C4.74058 146.492 4.73786 146.495 4.73453 146.5C4.73129 146.505 4.72526 146.513 4.71783 146.524C4.71311 146.531 4.66605 146.598 4.61304 146.686C4.59009 146.725 4.52231 146.838 4.45241 146.992C4.41774 147.068 4.35446 147.215 4.29925 147.408C4.2578 147.554 4.1401 147.989 4.20099 148.554C4.27329 149.225 4.65154 150.298 5.80073 150.895C6.72356 151.375 7.56523 151.22 7.81842 151.165C8.36824 151.046 8.75051 150.792 8.76644 150.782C8.94556 150.671 9.07724 150.56 9.07728 150.56C9.11042 150.533 9.13612 150.511 9.14177 150.506C9.14335 150.505 9.17721 150.476 9.15637 150.494L5.23345 145.954C5.22876 145.958 5.22462 145.962 5.22404 145.962C5.22148 145.964 5.22691 145.96 5.23347 145.954C5.23735 145.951 5.26161 145.93 5.2936 145.904C5.31014 145.89 5.34084 145.866 5.38037 145.836C5.41221 145.812 5.49284 145.752 5.60188 145.684C5.61752 145.674 5.99958 145.42 6.54926 145.301C6.80237 145.246 7.64399 145.092 8.56677 145.571C9.71593 146.168 10.0942 147.241 10.1665 147.912C10.2273 148.477 10.1096 148.912 10.0682 149.057C10.013 149.25 9.9498 149.397 9.91519 149.474C9.84541 149.627 9.77781 149.74 9.75509 149.778C9.70257 149.866 9.65623 149.932 9.65246 149.937C9.6455 149.947 9.64 149.955 9.63735 149.959C9.6346 149.963 9.63252 149.966 9.63235 149.966C9.63043 149.969 9.64373 149.95 9.65822 149.929C9.67387 149.906 9.69295 149.878 9.71424 149.846C9.75697 149.78 9.80524 149.701 9.85505 149.609C10.0569 149.237 10.2639 148.692 10.283 148.007L4.28529 147.84ZM9.15927 150.491C9.10295 150.54 9.05406 150.578 9.01642 150.606C8.97798 150.634 8.94516 150.656 8.91949 150.673C8.86873 150.706 8.83597 150.723 8.8272 150.727C8.81057 150.736 8.86407 150.707 9.01549 150.657L7.1343 144.96C6.40495 145.2 5.73826 145.517 5.23055 145.956L9.15927 150.491ZM9.01464 150.657C9.71488 150.426 11.1606 150.165 13.6333 150.028L13.3021 144.037C10.6809 144.182 8.60029 144.476 7.13515 144.959L9.01464 150.657ZM16.4631 146.867L16.2702 143.384L10.2794 143.716L10.4723 147.198L16.4631 146.867ZM0.827701 148.415C1.19167 151.59 3.59976 153.278 5.25203 154.065L7.83337 148.649C7.40568 148.445 7.12274 148.236 6.96201 148.062C6.8294 147.919 6.79959 147.827 6.78867 147.732L0.827701 148.415ZM5.25303 154.066C6.997 154.896 9.14943 155.371 11.4093 155.668L12.1916 149.72C10.1656 149.453 8.73878 149.08 7.83237 148.648L5.25303 154.066ZM14.7748 153.085L15.23 149.627L9.28133 148.844L8.82611 152.302L14.7748 153.085ZM12.6472 146.261C10.7535 146.012 9.74998 145.698 9.33225 145.499L6.75298 150.917C8.00995 151.515 9.74059 151.931 11.8641 152.21L12.6472 146.261ZM9.33234 145.499C9.11089 145.394 9.30153 145.442 9.57679 145.754C9.68489 145.876 9.94497 146.194 10.1142 146.706C10.1383 146.779 10.1834 146.924 10.2173 147.112C10.2327 147.198 10.2626 147.381 10.2647 147.617C10.2657 147.734 10.261 147.937 10.2156 148.184C10.1775 148.392 10.068 148.882 9.70311 149.391C9.26545 150.001 8.47636 150.589 7.40578 150.639C6.50887 150.681 5.87122 150.317 5.611 150.145C5.10291 149.81 4.83379 149.402 4.78886 149.336C4.61612 149.083 4.52358 148.862 4.49597 148.796C4.3558 148.458 4.31085 148.173 4.29331 148.021L10.2536 147.332C10.2324 147.148 10.1817 146.843 10.0377 146.496C10.0091 146.427 9.9157 146.204 9.74229 145.95C9.69702 145.884 9.42761 145.476 8.91929 145.14C8.65895 144.968 8.02119 144.604 7.1242 144.646C6.05352 144.696 5.26436 145.284 4.82663 145.895C4.4617 146.404 4.35217 146.894 4.31399 147.102C4.26861 147.349 4.26385 147.552 4.2649 147.67C4.26699 147.906 4.2969 148.09 4.3125 148.177C4.34673 148.366 4.39235 148.513 4.4174 148.589C4.5944 149.125 4.88555 149.506 5.0797 149.726C5.52705 150.232 6.10964 150.61 6.75289 150.917L9.33234 145.499ZM6.93209 144.696L3.4668 145.093L4.14957 151.054L7.61486 150.657L6.93209 144.696ZM11.8565 155.706C38.2936 156.662 66.1178 152.09 95.2927 142.102L93.3492 136.425C64.748 146.217 37.6593 150.635 12.0735 149.709L11.8565 155.706ZM97.1593 138.292L96.0296 134.992L90.3529 136.935L91.4826 140.235L97.1593 138.292ZM92.2195 133.125C63.9518 142.803 37.2905 147.132 12.1995 146.224L11.9826 152.22C37.9248 153.159 65.3215 148.676 94.163 138.802L92.2195 133.125ZM9.09299 149.114L8.967 152.599L14.9631 152.816L15.0891 149.331L9.09299 149.114ZM95.316 142.094C122.864 132.502 149.22 119.055 174.379 101.774L170.982 96.8286C146.242 113.822 120.363 127.02 93.343 136.427L95.316 142.094ZM175.153 97.603L173.179 94.728L168.233 98.125L170.208 101L175.153 97.603ZM169.007 93.9536C144.511 110.78 118.909 123.833 92.1962 133.133L94.1691 138.8C121.41 129.315 147.489 116.013 172.404 98.8993L169.007 93.9536ZM90.3495 136.953L91.4963 140.247L97.1627 138.274L96.0159 134.98L90.3495 136.953ZM167.479 100.043L228.936 218.885L234.265 216.129L172.809 97.2871L167.479 100.043ZM232.978 220.172L236.076 218.57L233.32 213.24L230.222 214.842L232.978 220.172ZM237.363 214.527L175.907 95.6847L170.577 98.4408L232.034 217.283L237.363 214.527ZM171.864 94.3981L168.766 96.0005L171.522 101.33L174.62 99.7274L171.864 94.3981ZM229.048 219.09C231.742 223.725 234.433 227.491 237.173 229.535L240.761 224.726C239.083 223.474 236.903 220.665 234.235 216.075L229.048 219.09ZM241.371 228.925L243.458 226.129L238.649 222.54L236.563 225.336L241.371 228.925ZM242.847 221.93C241.787 221.14 239.906 218.89 237.251 214.322L232.063 217.337C234.741 221.944 237.136 225.155 239.26 226.74L242.847 221.93ZM233.149 213.236L230.134 214.989L233.149 220.176L236.165 218.423L233.149 213.236ZM237.353 229.663C239.891 231.379 242.803 232.039 245.844 231.519L244.832 225.605C243.355 225.858 242.004 225.564 240.714 224.692L237.353 229.663ZM248.295 228.055L247.706 224.617L241.792 225.63L242.381 229.068L248.295 228.055ZM244.243 222.166C243.674 222.264 243.23 222.183 242.667 221.803L239.307 226.774C241.12 228 243.125 228.445 245.256 228.08L244.243 222.166ZM238.502 222.608L236.548 225.497L241.519 228.858L243.472 225.969L238.502 222.608ZM246.817 231.242C252.324 229.022 254.033 223.6 254.014 218.216L248.014 218.236C248.029 222.638 246.692 224.824 244.574 225.678L246.817 231.242ZM251.004 215.226L247.516 215.238L247.536 221.238L251.024 221.226L251.004 215.226ZM244.526 218.248C244.533 220.136 244.245 221.183 243.973 221.731C243.744 222.191 243.513 222.345 243.27 222.443L245.514 228.007C247.125 227.357 248.468 226.169 249.347 224.398C250.182 222.715 250.534 220.643 250.526 218.227L244.526 218.248ZM241.609 226.347L242.913 229.581L248.478 227.339L247.174 224.104L241.609 226.347ZM254.014 218.236C254.019 211.88 251.439 203.295 246.951 192.892L241.442 195.268C245.887 205.572 248.018 213.19 248.014 218.231L254.014 218.236ZM243.009 191.325L239.806 192.707L242.182 198.216L245.385 196.835L243.009 191.325ZM238.24 196.649C242.66 206.897 244.53 213.952 244.526 218.228L250.526 218.233C250.531 212.641 248.211 204.618 243.749 194.273L238.24 196.649ZM247.524 221.23L251.012 221.233L251.017 215.233L247.529 215.23L247.524 221.23ZM246.896 192.768C242.506 183.342 238.428 175.923 234.65 170.662L229.777 174.163C233.238 178.981 237.132 186.014 241.457 195.301L246.896 192.768ZM230.463 169.976L227.63 172.01L231.13 176.884L233.963 174.849L230.463 169.976ZM226.944 176.197C230.22 180.759 234.008 187.567 238.295 196.774L243.734 194.241C239.382 184.895 235.411 177.701 231.817 172.697L226.944 176.197ZM242.281 198.226L245.443 196.754L242.909 191.315L239.748 192.788L242.281 198.226ZM234.621 170.622C231.92 166.942 228.387 163.312 224.106 159.719L220.248 164.315C224.265 167.686 227.436 170.973 229.784 174.173L234.621 170.622ZM219.88 160.088L217.637 162.76L222.232 166.618L224.475 163.946L219.88 160.088ZM218.006 166.986C221.868 170.229 224.829 173.317 226.972 176.237L231.809 172.687C229.313 169.286 225.99 165.855 221.863 162.391L218.006 166.986ZM231.166 176.88L233.978 174.816L230.427 169.979L227.615 172.044L231.166 176.88ZM224.255 159.85C218.341 154.447 213.293 148.681 209.093 142.556L204.145 145.949C208.621 152.478 213.978 158.588 220.209 164.28L224.255 159.85ZM204.922 141.778L202.046 143.751L205.439 148.699L208.316 146.727L204.922 141.778ZM201.268 147.922C205.906 154.686 211.441 160.996 217.856 166.856L221.903 162.426C215.804 156.855 210.577 150.889 206.217 144.529L201.268 147.922ZM222.094 166.664L224.447 164.088L220.017 160.042L217.664 162.617L222.094 166.664ZM209.155 142.648C201.926 131.559 193.089 114.311 182.64 90.7379L177.155 93.1692C187.64 116.825 196.632 134.425 204.129 145.925L209.155 142.648ZM178.682 89.2108L175.493 90.6237L177.924 96.1093L181.113 94.6964L178.682 89.2108ZM173.966 94.5821C184.473 118.286 193.554 136.091 201.207 147.83L206.233 144.553C198.848 133.225 189.921 115.773 179.451 92.1509L173.966 94.5821ZM205.358 148.705L208.28 146.8L205.003 141.774L202.082 143.679L205.358 148.705ZM181.905 95.7465C182.83 94.6679 184.054 93.5985 185.641 92.5635L182.364 87.5375C180.378 88.8322 178.701 90.2645 177.349 91.8422L181.905 95.7465ZM186.516 88.4121L184.611 85.4902L179.584 88.767L181.489 91.6889L186.516 88.4121ZM180.459 84.6153C178.241 86.0612 176.301 87.7056 174.7 89.5735L179.256 93.4776C180.43 92.1083 181.917 90.8273 183.736 89.6419L180.459 84.6153ZM175.027 93.8041L177.676 96.0729L181.579 91.5158L178.93 89.247L175.027 93.8041ZM185.516 92.6422C186.672 91.9387 188.282 91.0179 190.371 89.8703L187.482 84.6116C185.359 85.7778 183.662 86.7471 182.397 87.5171L185.516 92.6422ZM191.556 85.7962L189.876 82.7391L184.618 85.6286L186.297 88.6857L191.556 85.7962ZM185.802 81.5546C183.66 82.7319 181.912 83.7288 180.584 84.5364L183.703 89.6625C184.922 88.9206 186.583 87.9717 188.691 86.8131L185.802 81.5546ZM179.58 88.6588L181.394 91.6389L186.519 88.5204L184.706 85.5402L179.58 88.6588ZM190.45 89.8262C195.554 86.8946 199.86 83.2519 201.189 78.4992L195.41 76.8833C194.754 79.2312 192.296 81.8463 187.461 84.6233L190.45 89.8262ZM199.108 74.8022L195.749 73.8625L194.133 79.6407L197.491 80.5803L199.108 74.8022ZM192.052 75.9434C191.786 76.8938 190.402 78.9116 185.724 81.5986L188.712 86.8015C193.66 83.9599 196.891 80.9146 197.83 77.5598L192.052 75.9434ZM184.617 85.6943L186.354 88.719L191.557 85.7305L189.819 82.7057L184.617 85.6943ZM201.269 78.167C201.943 74.8518 201.448 70.9742 200.351 66.8892L194.556 68.4448C195.562 72.1918 195.79 75.0027 195.389 76.9712L201.269 78.167ZM200.351 66.8887C199.228 62.7094 197.342 57.835 194.769 52.3108L189.33 54.8439C191.821 60.1929 193.556 64.7226 194.556 68.4453L200.351 66.8887ZM190.783 50.8577L187.621 52.3301L190.154 57.7694L193.316 56.2969L190.783 50.8577ZM186.168 56.3164C188.612 61.564 190.259 65.8931 191.187 69.3494L196.982 67.7935C195.931 63.8799 194.133 59.2057 191.607 53.7831L186.168 56.3164ZM191.187 69.3496C192.141 72.9016 192.213 75.0914 191.971 76.2749L197.851 77.4726C198.367 74.9395 198.026 71.6811 196.982 67.7934L191.187 69.3496ZM194.313 79.8135L197.731 80.5089L198.927 74.6293L195.509 73.934L194.313 79.8135ZM189.071 58.847C206.196 64.1252 221.592 69.1354 235.261 73.8778L237.228 68.2092C223.479 63.4394 208.016 58.4074 190.839 53.1132L189.071 58.847ZM239.079 72.0267L240.222 68.7313L234.553 66.7649L233.41 70.0603L239.079 72.0267ZM238.371 64.9138C224.576 60.1279 209.073 55.0834 191.866 49.78L190.099 55.5138C207.254 60.8012 222.689 65.824 236.404 70.5824L238.371 64.9138ZM188.116 51.7631L187.088 55.0963L192.822 56.8639L193.849 53.5307L188.116 51.7631ZM235.312 73.8952C251.225 79.2136 263.029 83.521 270.802 86.8272L273.15 81.3058C265.152 77.9037 253.166 73.5358 237.214 68.2046L235.312 73.8952ZM274.737 85.241L276.102 82.0314L270.581 79.6824L269.216 82.892L274.737 85.241ZM274.516 78.0962C266.385 74.6381 254.293 70.235 238.32 64.8965L236.418 70.5871C252.353 75.9128 264.263 80.2554 272.168 83.6176L274.516 78.0962ZM234.524 66.7908L233.418 70.0989L239.108 72.0009L240.214 68.6928L234.524 66.7908ZM271.6 87.0859C275.463 87.9709 279.07 88.3238 282.221 87.8232L281.279 81.8975C279.193 82.229 276.431 82.0372 272.939 81.2374L271.6 87.0859ZM284.713 84.3897L284.165 80.9448L278.24 81.8862L278.787 85.3311L284.713 84.3897ZM280.732 78.4527C279.265 78.6859 276.994 78.5878 273.718 77.8375L272.379 83.686C276.025 84.5213 279.142 84.7807 281.673 84.3783L280.732 78.4527ZM270.124 80.0918L269.345 83.4916L275.194 84.8317L275.973 81.4318L270.124 80.0918ZM282.184 87.8289C285.652 87.3056 289.576 85.7112 291.087 81.5657L285.45 79.5108C285.065 80.5656 283.94 81.496 281.289 81.8961L282.184 87.8289ZM289.296 77.7197L286.019 76.5251L283.964 82.1622L287.241 83.3568L289.296 77.7197ZM282.173 78.3162C282.212 78.2083 282.268 78.1132 282.327 78.0419C282.384 77.9735 282.412 77.9651 282.362 77.9966C282.24 78.0728 281.806 78.2905 280.768 78.4472L281.664 84.3799C284.68 83.9245 286.959 82.7051 287.81 80.3711L282.173 78.3162ZM278.25 81.8612L278.77 85.3101L284.703 84.4149L284.183 80.9659L278.25 81.8612ZM291.206 81.1902C292.625 75.9919 289.797 71.4049 286.177 67.9106L282.01 72.2274C285.128 75.2369 285.952 77.6544 285.418 79.6099L291.206 81.1902ZM281.935 67.9854L279.513 70.4948L283.829 74.6622L286.252 72.1527L281.935 67.9854ZM279.587 74.7368C282.386 77.4383 282.079 78.599 282.053 78.6923L287.842 80.2711C288.743 76.9662 287.092 73.6421 283.755 70.4201L279.587 74.7368ZM284.157 82.3759L287.522 83.2942L289.102 77.5059L285.737 76.5876L284.157 82.3759ZM286.259 67.9913C282.35 64.0306 275.93 59.9249 267.467 55.6163L264.744 60.9632C273.075 65.2045 278.782 68.9572 281.989 72.2061L286.259 67.9913ZM263.432 56.9283L261.849 60.0366L267.196 62.7594L268.779 59.6511L263.432 56.9283ZM263.162 64.0714C271.417 68.2742 276.708 71.8217 279.506 74.6565L283.777 70.4416C280.276 66.8945 274.27 62.994 265.884 58.7245L263.162 64.0714ZM283.749 74.684L286.231 72.2336L282.016 67.9637L279.534 70.4141L283.749 74.684ZM267.109 55.4525C261.407 53.122 256.269 51.7215 251.858 51.5987L251.691 57.5963C255.063 57.6902 259.431 58.7962 264.839 61.0065L267.109 55.4525ZM248.776 54.5144L248.679 58.0012L254.677 58.1674L254.774 54.6806L248.776 54.5144ZM251.595 61.0831C254.362 61.16 258.282 62.0947 263.519 64.2352L265.789 58.6812C260.259 56.4208 255.568 55.1912 251.761 55.0854L251.595 61.0831ZM267.431 62.5934L268.751 59.3647L263.197 57.0943L261.877 60.323L267.431 62.5934ZM252.002 51.6049C248.892 51.424 245.492 51.99 241.911 53.0741L243.65 58.8167C246.825 57.8556 249.483 57.4686 251.653 57.5948L252.002 51.6049ZM239.909 56.8146L240.92 60.153L246.662 58.4146L245.652 55.0762L239.909 56.8146ZM244.66 62.1551C247.599 61.2654 249.827 60.9825 251.451 61.0769L251.799 55.087C249.236 54.938 246.267 55.3999 242.922 56.4125L244.66 62.1551ZM254.62 58.2562L254.823 54.7741L248.833 54.4256L248.63 57.9077L254.62 58.2562ZM242.165 53.0048C239.942 53.5453 238.504 53.7057 237.684 53.6829L237.518 59.6806C239.116 59.725 241.153 59.4256 243.582 58.8351L242.165 53.0048ZM234.602 56.5982L234.505 60.0848L240.502 60.2519L240.6 56.7653L234.602 56.5982ZM237.42 63.1672C239.471 63.2241 241.855 62.8445 244.406 62.2247L242.99 56.3943C240.646 56.9637 238.86 57.2048 237.587 57.1695L237.42 63.1672ZM246.613 58.6006L245.789 55.2111L239.959 56.6288L240.783 60.0183L246.613 58.6006ZM237.227 53.6922C235.418 53.8164 233.432 53.7096 231.253 53.3361L230.24 59.2499C232.828 59.6934 235.295 59.8391 237.638 59.6781L237.227 53.6922ZM227.789 55.7862L227.2 59.2241L233.114 60.2378L233.703 56.7999L227.789 55.7862ZM229.65 62.6878C232.476 63.172 235.223 63.3404 237.878 63.1579L237.466 57.1721C235.347 57.3177 233.081 57.1882 230.664 56.774L229.65 62.6878ZM240.665 59.9591L240.425 56.4792L234.44 56.891L234.679 60.3709L240.665 59.9591Z" fill="#EFEFEF" mask="url(#path-1-outside-1_166_2)"/>
</svg>
