<svg width="459" height="284" viewBox="0 0 459 284" fill="none" xmlns="http://www.w3.org/2000/svg">
<path d="M321.698 15.9894L318.182 16.5754L131.854 22.4348C114.666 22.8254 98.0647 22.0441 82.0491 20.091C69.1584 18.1379 57.4397 15.7941 46.8928 13.0598C41.0334 11.1066 37.1272 10.5207 35.1741 11.3019C33.2209 12.4738 33.4163 15.2082 35.76 19.5051C40.0569 22.6301 46.3069 26.5363 54.51 31.2238C60.76 34.7394 67.9866 38.6457 76.1897 42.9426C83.6116 46.8488 88.885 48.8019 92.01 48.8019C94.7444 49.1926 98.4553 48.4113 103.143 46.4582C108.221 44.1144 113.299 42.3566 118.377 41.1848C126.58 38.841 136.932 37.4738 149.432 37.0832C193.963 34.3488 232.635 32.591 265.448 31.8098C292.791 31.0285 319.94 30.6379 346.893 30.6379C380.487 32.2004 401.58 32.3957 410.174 31.2238C421.112 30.0519 426.971 26.1457 427.752 19.5051C426.971 14.0363 422.869 9.54413 415.448 6.0285C407.635 2.51288 396.893 0.559753 383.221 0.169128C371.112 0.169128 361.932 0.950378 355.682 2.51288C352.166 3.29413 348.455 5.05194 344.549 7.78632C341.424 9.73944 338.69 11.1066 336.346 11.8879C332.44 13.4504 327.557 14.8176 321.698 15.9894ZM338.69 248.021L295.916 248.607C306.073 224.779 314.666 203.489 321.698 184.739C330.291 160.521 337.323 138.45 342.791 118.529L348.651 106.224C351.776 100.755 353.338 96.8488 353.338 94.5051C352.948 90.9894 350.213 87.6691 345.135 84.5441C338.104 81.0285 330.487 77.7082 322.283 74.5832C314.471 71.8488 306.268 69.3098 297.674 66.966C291.815 66.1848 286.932 66.5754 283.026 68.1379C279.51 69.7004 278.143 71.8488 278.924 74.5832C291.815 80.4426 300.604 85.9113 305.291 90.9894C311.151 96.8488 313.299 104.075 311.737 112.669C308.612 134.544 304.315 157.2 298.846 180.638C292.987 206.029 286.541 228.88 279.51 249.193L108.416 254.466C82.2444 253.294 61.9319 251.927 47.4788 250.364C38.4944 249.193 28.7288 247.435 18.1819 245.091C11.9319 243.529 7.63501 243.138 5.29126 243.919C1.77563 244.7 2.16626 247.435 6.46313 252.122L8.22095 253.294C17.2053 258.372 24.0413 262.474 28.7288 265.599C36.9319 270.286 43.7678 274.583 49.2366 278.489C54.3147 281.224 58.0256 282.591 60.3694 282.591C62.3225 282.982 65.2522 282.396 69.1584 280.833C75.4084 278.099 81.6584 275.95 87.9084 274.388C98.8459 271.263 112.908 269.114 130.096 267.943C164.08 266.38 193.768 265.404 219.158 265.013C261.346 264.232 300.408 264.232 336.346 265.013C347.674 264.622 359.588 264.622 372.088 265.013C379.51 265.013 389.666 265.404 402.557 266.185C422.869 266.966 436.151 266.966 442.401 266.185C451.776 265.013 457.049 261.497 458.221 255.638C458.221 250.169 454.119 245.091 445.916 240.404C436.541 235.325 424.432 232.396 409.588 231.614C398.26 231.224 389.471 232.005 383.221 233.958C378.924 235.13 374.627 237.083 370.33 239.818C365.643 242.552 361.932 244.31 359.198 245.091C353.729 247.044 346.893 248.021 338.69 248.021ZM104.901 92.1613L102.557 91.5754C97.8694 90.0129 94.9397 90.0129 93.7678 91.5754C92.5959 93.1379 93.5725 95.8723 96.6975 99.7785C110.76 114.232 121.307 132.2 128.338 153.685C132.244 165.794 136.151 185.13 140.057 211.693L141.815 221.654C144.549 237.279 149.237 244.505 155.877 243.333C162.908 241.771 167.01 231.614 168.182 212.864C168.182 174.193 165.057 148.802 158.807 136.693C152.166 123.411 134.198 108.568 104.901 92.1613Z" fill="#EFEFEF"/>
<path d="M321.698 15.9894L322.191 18.9486L322.238 18.9407L322.286 18.9312L321.698 15.9894ZM318.182 16.5754L318.276 19.5739L318.477 19.5676L318.675 19.5346L318.182 16.5754ZM131.854 22.4348L131.922 25.434L131.935 25.4337L131.948 25.4333L131.854 22.4348ZM82.0491 20.091L81.5997 23.0571L81.6427 23.0637L81.6859 23.0689L82.0491 20.091ZM46.8928 13.0598L45.9441 15.9058L46.0411 15.9381L46.1399 15.9637L46.8928 13.0598ZM35.1741 11.3019L34.0599 8.51651L33.8367 8.60579L33.6306 8.72946L35.1741 11.3019ZM35.76 19.5051L33.1263 20.9416L33.4496 21.5342L33.9955 21.9313L35.76 19.5051ZM54.51 31.2238L53.0216 33.8285L53.0304 33.8336L53.0392 33.8385L54.51 31.2238ZM76.1897 42.9426L77.5869 40.2878L77.5817 40.2851L76.1897 42.9426ZM92.01 48.8019L92.4343 45.8321L92.2232 45.8019H92.01V48.8019ZM103.143 46.4582L104.297 49.2274L104.349 49.2057L104.4 49.1821L103.143 46.4582ZM118.377 41.1848L119.052 44.1079L119.127 44.0906L119.201 44.0693L118.377 41.1848ZM149.432 37.0832L149.526 40.0817L149.571 40.0803L149.616 40.0776L149.432 37.0832ZM265.448 31.8098L265.519 34.8089L265.526 34.8087L265.533 34.8085L265.448 31.8098ZM346.893 30.6379L347.032 27.6411L346.963 27.6379H346.893V30.6379ZM410.174 31.2238L409.854 28.2409L409.812 28.2455L409.769 28.2513L410.174 31.2238ZM427.752 19.5051L430.732 19.8556L430.777 19.4676L430.722 19.0808L427.752 19.5051ZM415.448 6.0285L416.732 3.31729L416.705 3.30475L416.679 3.29274L415.448 6.0285ZM383.221 0.169128L383.307 -2.82965L383.264 -2.83087H383.221V0.169128ZM355.682 2.51288L356.333 5.44144L356.371 5.43288L356.409 5.42331L355.682 2.51288ZM344.549 7.78632L346.139 10.3303L346.205 10.2889L346.269 10.244L344.549 7.78632ZM336.346 11.8879L335.397 9.04183L335.314 9.06971L335.232 9.10245L336.346 11.8879ZM338.69 248.021V245.021H338.669L338.649 245.021L338.69 248.021ZM295.916 248.607L293.156 247.43L291.35 251.669L295.957 251.606L295.916 248.607ZM321.698 184.739L324.506 185.793L324.516 185.768L324.525 185.743L321.698 184.739ZM342.791 118.529L340.083 117.239L339.969 117.478L339.898 117.734L342.791 118.529ZM348.651 106.224L346.046 104.735L345.99 104.833L345.942 104.934L348.651 106.224ZM353.338 94.5051H356.338V94.3389L356.32 94.1738L353.338 94.5051ZM345.135 84.5441L346.707 81.9892L346.595 81.9199L346.477 81.8608L345.135 84.5441ZM322.283 74.5832L323.351 71.7797L323.313 71.7651L323.274 71.7516L322.283 74.5832ZM297.674 66.966L298.463 64.0717L298.27 64.0189L298.071 63.9923L297.674 66.966ZM283.026 68.1379L281.911 65.3524L281.859 65.3735L281.807 65.3964L283.026 68.1379ZM278.924 74.5832L276.04 75.4074L276.42 76.7405L277.683 77.3143L278.924 74.5832ZM305.291 90.9894L303.087 93.0243L303.128 93.0684L303.17 93.1108L305.291 90.9894ZM311.737 112.669L308.785 112.132L308.775 112.188L308.767 112.245L311.737 112.669ZM298.846 180.638L295.924 179.956L295.923 179.963L298.846 180.638ZM279.51 249.193L279.602 252.191L281.669 252.127L282.345 250.174L279.51 249.193ZM108.416 254.466L108.282 257.463L108.395 257.468L108.509 257.465L108.416 254.466ZM47.4788 250.364L47.0907 253.339L47.1235 253.344L47.1563 253.347L47.4788 250.364ZM18.1819 245.091L17.4543 248.001L17.4926 248.011L17.5311 248.02L18.1819 245.091ZM5.29126 243.919L5.94205 246.848L6.09313 246.814L6.23994 246.765L5.29126 243.919ZM6.46313 252.122L4.25167 254.149L4.49698 254.417L4.79903 254.618L6.46313 252.122ZM8.22095 253.294L6.55685 255.79L6.64869 255.852L6.74478 255.906L8.22095 253.294ZM28.7288 265.599L27.0647 268.095L27.1506 268.152L27.2403 268.204L28.7288 265.599ZM49.2366 278.489L47.4929 280.931L47.6472 281.041L47.8143 281.131L49.2366 278.489ZM60.3694 282.591L60.9577 279.649L60.6664 279.591H60.3694V282.591ZM69.1584 280.833L70.2726 283.619L70.3171 283.601L70.3609 283.582L69.1584 280.833ZM87.9084 274.388L88.6361 277.298L88.6845 277.286L88.7326 277.272L87.9084 274.388ZM130.096 267.943L129.958 264.946L129.925 264.947L129.892 264.95L130.096 267.943ZM219.158 265.013L219.205 268.013L219.214 268.012L219.158 265.013ZM336.346 265.013L336.281 268.012L336.365 268.014L336.449 268.011L336.346 265.013ZM372.088 265.013L371.994 268.011L372.041 268.013H372.088V265.013ZM402.557 266.185L402.375 269.179L402.408 269.181L402.442 269.183L402.557 266.185ZM458.221 255.638L461.163 256.226L461.221 255.935V255.638H458.221ZM445.916 240.404L447.405 237.799L447.375 237.782L447.345 237.766L445.916 240.404ZM409.588 231.614L409.746 228.619L409.719 228.617L409.692 228.616L409.588 231.614ZM383.221 233.958L384.01 236.852L384.063 236.838L384.116 236.822L383.221 233.958ZM370.33 239.818L371.842 242.409L371.892 242.38L371.941 242.349L370.33 239.818ZM359.198 245.091L358.373 242.206L358.28 242.233L358.189 242.266L359.198 245.091ZM104.901 92.1613L106.366 89.5438L106.017 89.3481L105.628 89.2509L104.901 92.1613ZM102.557 91.5754L101.608 94.4214L101.718 94.4579L101.829 94.4858L102.557 91.5754ZM96.6975 99.7785L94.3549 101.653L94.4458 101.766L94.5473 101.871L96.6975 99.7785ZM128.338 153.685L131.193 152.764L131.189 152.752L128.338 153.685ZM140.057 211.693L137.089 212.129L137.095 212.172L137.103 212.214L140.057 211.693ZM141.815 221.654L144.77 221.136L144.769 221.132L141.815 221.654ZM155.877 243.333L156.399 246.288L156.464 246.276L156.528 246.262L155.877 243.333ZM168.182 212.864L171.176 213.052L171.182 212.958V212.864H168.182ZM158.807 136.693L156.124 138.034L156.132 138.051L156.141 138.068L158.807 136.693ZM321.204 13.0303L317.689 13.6162L318.675 19.5346L322.191 18.9486L321.204 13.0303ZM318.088 13.5769L131.759 19.4362L131.948 25.4333L318.276 19.5739L318.088 13.5769ZM131.786 19.4355C114.733 19.8231 98.2758 19.0476 82.4122 17.1131L81.6859 23.0689C97.8536 25.0406 114.6 25.8277 131.922 25.434L131.786 19.4355ZM82.4985 17.1249C69.6909 15.1843 58.0754 12.8598 47.6457 10.1558L46.1399 15.9637C56.804 18.7285 68.626 21.0914 81.5997 23.0571L82.4985 17.1249ZM47.8415 10.2137C44.8282 9.20928 42.2051 8.51737 40.0136 8.18865C37.923 7.87505 35.7997 7.82061 34.0599 8.51651L36.2882 14.0874C36.5016 14.002 37.308 13.8499 39.1236 14.1223C40.8383 14.3795 43.098 14.9571 45.9441 15.9058L47.8415 10.2137ZM33.6306 8.72946C32.6525 9.31631 31.8636 10.1598 31.3763 11.2427C30.9036 12.2933 30.7888 13.4015 30.8633 14.4454C31.0069 16.4557 31.8855 18.6668 33.1263 20.9416L38.3937 18.0685C37.2908 16.0465 36.8998 14.7419 36.8481 14.0179C36.825 13.6945 36.8811 13.6309 36.8478 13.7049C36.8309 13.7426 36.8025 13.7881 36.7653 13.8292C36.7293 13.869 36.7059 13.8814 36.7176 13.8744L33.6306 8.72946ZM33.9955 21.9313C38.4239 25.1519 44.7842 29.1215 53.0216 33.8285L55.9984 28.6191C47.8296 23.9512 41.6899 20.1082 37.5245 17.0789L33.9955 21.9313ZM53.0392 33.8385C59.3215 37.3723 66.5752 41.2931 74.7977 45.6001L77.5817 40.2851C69.3979 35.9983 62.1986 32.1066 55.9808 28.6091L53.0392 33.8385ZM74.7925 45.5973C78.5683 47.5846 81.8674 49.1126 84.6692 50.1503C87.4168 51.168 89.9138 51.8019 92.01 51.8019V45.8019C90.9812 45.8019 89.279 45.4593 86.7531 44.5239C84.2816 43.6085 81.2329 42.2068 77.5869 40.2878L74.7925 45.5973ZM91.5857 51.7718C95.1381 52.2793 99.4665 51.24 104.297 49.2274L101.989 43.689C97.4441 45.5826 94.3507 46.1059 92.4343 45.8321L91.5857 51.7718ZM104.4 49.1821C109.305 46.9183 114.188 45.2303 119.052 44.1079L117.703 38.2616C112.41 39.483 107.137 41.3106 101.886 43.7343L104.4 49.1821ZM119.201 44.0693C127.084 41.8171 137.169 40.4679 149.526 40.0817L149.338 34.0847C136.694 34.4798 126.076 35.865 117.553 38.3002L119.201 44.0693ZM149.616 40.0776C194.122 37.3447 232.754 35.589 265.519 34.8089L265.376 28.8106C232.516 29.593 193.804 31.3529 149.248 34.0888L149.616 40.0776ZM265.533 34.8085C292.849 34.0281 319.969 33.6379 346.893 33.6379V27.6379C319.911 27.6379 292.734 28.0289 265.362 28.811L265.533 34.8085ZM346.753 33.6346C380.25 35.1926 401.654 35.4134 410.579 34.1963L409.769 28.2513C401.506 29.378 380.723 29.2081 347.032 27.6411L346.753 33.6346ZM410.494 34.2067C416.199 33.5955 420.94 32.2421 424.436 29.9114C428.053 27.5 430.232 24.101 430.732 19.8556L424.773 19.1545C424.491 21.5497 423.35 23.4241 421.108 24.9191C418.744 26.4946 415.087 27.6803 409.854 28.2409L410.494 34.2067ZM430.722 19.0808C429.738 12.1907 424.592 7.04076 416.732 3.31729L414.163 8.73972C421.146 12.0475 424.204 15.8819 424.782 19.9293L430.722 19.0808ZM416.679 3.29274C408.354 -0.453135 397.166 -2.43368 383.307 -2.82965L383.135 3.1679C396.62 3.55319 406.916 5.47889 414.216 8.76427L416.679 3.29274ZM383.221 -2.83087C371.041 -2.83087 361.567 -2.05066 354.954 -0.397549L356.409 5.42331C362.297 3.95142 371.182 3.16913 383.221 3.16913V-2.83087ZM355.031 -0.415683C351.029 0.473665 346.958 2.43792 342.829 5.32862L346.269 10.244C349.952 7.66596 353.303 6.11459 356.333 5.44144L355.031 -0.415683ZM342.959 5.24232C339.947 7.12482 337.435 8.36251 335.397 9.04183L337.295 14.7339C339.944 13.8507 342.901 12.3541 346.139 10.3303L342.959 5.24232ZM335.232 9.10245C331.55 10.5752 326.857 11.8981 321.109 13.0477L322.286 18.9312C328.257 17.737 333.329 16.3256 337.46 14.6733L335.232 9.10245ZM338.649 245.021L295.875 245.607L295.957 251.606L338.731 251.02L338.649 245.021ZM298.676 249.783C308.845 225.925 317.456 204.594 324.506 185.793L318.889 183.686C311.876 202.385 303.3 223.632 293.156 247.43L298.676 249.783ZM324.525 185.743C333.137 161.471 340.192 139.33 345.684 119.323L339.898 117.734C334.453 137.571 327.445 159.571 318.87 183.736L324.525 185.743ZM345.5 119.818L351.359 107.514L345.942 104.934L340.083 117.239L345.5 119.818ZM351.255 107.712C352.856 104.91 354.1 102.435 354.952 100.307C355.78 98.2355 356.338 96.2497 356.338 94.5051H350.338C350.338 95.1041 350.115 96.2434 349.381 98.0784C348.67 99.8564 347.57 102.069 346.046 104.735L351.255 107.712ZM356.32 94.1738C355.774 89.2617 352.044 85.2733 346.707 81.9892L343.563 87.0991C348.382 90.0649 350.121 92.7172 350.356 94.8364L356.32 94.1738ZM346.477 81.8608C339.347 78.2959 331.637 74.9362 323.351 71.7797L321.215 77.3867C329.336 80.4802 336.861 83.7612 343.793 87.2274L346.477 81.8608ZM323.274 71.7516C315.391 68.9923 307.12 66.4326 298.463 64.0717L296.885 69.8603C305.416 72.1869 313.551 74.7053 321.292 77.4148L323.274 71.7516ZM298.071 63.9923C291.896 63.169 286.452 63.5363 281.911 65.3524L284.14 70.9233C287.412 69.6145 291.733 69.2005 297.278 69.9397L298.071 63.9923ZM281.807 65.3964C279.768 66.3029 277.956 67.5445 276.833 69.3105C275.632 71.1976 275.444 73.3227 276.04 75.4074L281.809 73.759C281.623 73.1093 281.728 72.793 281.895 72.5317C282.138 72.1492 282.768 71.5354 284.244 70.8793L281.807 65.3964ZM277.683 77.3143C290.511 83.1453 298.83 88.4124 303.087 93.0243L307.496 88.9546C302.378 83.4103 293.118 77.7398 280.165 71.8521L277.683 77.3143ZM303.17 93.1108C308.29 98.2306 310.183 104.445 308.785 112.132L314.688 113.206C316.415 103.706 314.012 95.4671 307.413 88.8681L303.17 93.1108ZM308.767 112.245C305.655 134.026 301.375 156.596 295.924 179.956L301.767 181.32C307.254 157.804 311.568 135.062 314.706 113.093L308.767 112.245ZM295.923 179.963C290.083 205.271 283.665 228.018 276.675 248.211L282.345 250.174C289.417 229.742 295.891 206.786 301.769 181.312L295.923 179.963ZM279.418 246.194L108.324 251.467L108.509 257.465L279.602 252.191L279.418 246.194ZM108.55 251.469C82.4003 250.298 62.161 248.934 47.8012 247.382L47.1563 253.347C61.7027 254.92 82.0885 256.29 108.282 257.463L108.55 251.469ZM47.8668 247.39C38.9855 246.231 29.3086 244.49 18.8327 242.162L17.5311 248.02C28.1489 250.379 38.0033 252.154 47.0907 253.339L47.8668 247.39ZM18.9095 242.181C15.7001 241.378 12.9006 240.853 10.5433 240.638C8.24508 240.43 6.09726 240.488 4.34258 241.073L6.23994 246.765C6.82901 246.569 8.0015 246.432 10.0001 246.614C11.9397 246.79 14.4137 247.241 17.4543 248.001L18.9095 242.181ZM4.64047 240.991C3.45295 241.254 2.12362 241.777 1.14473 242.878C0.0632896 244.095 -0.220678 245.592 -0.0223387 246.98C0.160056 248.257 0.742857 249.477 1.43643 250.575C2.14979 251.704 3.10528 252.899 4.25167 254.149L8.6746 250.095C7.67255 249.002 6.96789 248.097 6.50937 247.371C6.03107 246.614 5.93028 246.222 5.91736 246.132C5.91437 246.111 5.93149 246.209 5.88698 246.379C5.83904 246.563 5.74424 246.735 5.62919 246.864C5.43155 247.087 5.37176 246.974 5.94205 246.848L4.64047 240.991ZM4.79903 254.618L6.55685 255.79L9.88505 250.798L8.12724 249.626L4.79903 254.618ZM6.74478 255.906C15.7083 260.972 22.4691 265.031 27.0647 268.095L30.3929 263.103C25.6134 259.916 18.7023 255.772 9.69712 250.682L6.74478 255.906ZM27.2403 268.204C35.3878 272.859 42.1319 277.101 47.4929 280.931L50.9803 276.048C45.4038 272.065 38.4759 267.713 30.2172 262.994L27.2403 268.204ZM47.8143 281.131C50.4267 282.538 52.7586 283.632 54.7913 284.381C56.7829 285.114 58.6821 285.591 60.3694 285.591V279.591C59.7129 279.591 58.5848 279.384 56.8655 278.751C55.1872 278.132 53.1246 277.176 50.6589 275.848L47.8143 281.131ZM59.781 285.533C62.6601 286.109 66.3083 285.204 70.2726 283.619L68.0443 278.048C64.1961 279.587 61.9849 279.855 60.9577 279.649L59.781 285.533ZM70.3609 283.582C76.4664 280.911 82.5578 278.818 88.6361 277.298L87.1808 271.477C80.7591 273.083 74.3505 275.287 67.956 278.085L70.3609 283.582ZM88.7326 277.272C99.3929 274.227 113.227 272.1 130.3 270.936L129.892 264.95C112.59 266.129 98.299 268.299 87.0843 271.503L88.7326 277.272ZM130.234 270.939C164.197 269.378 193.853 268.403 219.205 268.013L219.112 262.013C193.683 262.404 163.964 263.382 129.958 264.946L130.234 270.939ZM219.214 268.012C261.368 267.232 300.39 267.232 336.281 268.012L336.411 262.014C300.427 261.231 261.324 261.232 219.103 262.013L219.214 268.012ZM336.449 268.011C347.705 267.623 359.553 267.623 371.994 268.011L372.182 262.014C359.623 261.622 347.643 261.622 336.243 262.015L336.449 268.011ZM372.088 268.013C379.421 268.013 389.508 268.399 402.375 269.179L402.738 263.19C389.824 262.408 379.599 262.013 372.088 262.013V268.013ZM402.442 269.183C422.699 269.962 436.235 269.979 442.773 269.162L442.029 263.208C436.066 263.953 423.039 263.97 402.672 263.187L402.442 269.183ZM442.773 269.162C452.558 267.938 459.6 264.04 461.163 256.226L455.279 255.05C454.498 258.955 450.994 262.087 442.029 263.208L442.773 269.162ZM461.221 255.638C461.221 248.479 455.847 242.623 447.405 237.799L444.428 243.008C452.392 247.559 455.221 251.859 455.221 255.638H461.221ZM447.345 237.766C437.455 232.409 424.87 229.415 409.746 228.619L409.43 234.61C423.994 235.377 435.627 238.242 444.487 243.041L447.345 237.766ZM409.692 228.616C398.235 228.221 389.052 228.993 382.326 231.095L384.116 236.822C389.89 235.017 398.285 234.226 409.485 234.613L409.692 228.616ZM382.432 231.064C377.806 232.325 373.235 234.413 368.72 237.287L371.941 242.349C376.02 239.753 380.042 237.935 384.01 236.852L382.432 231.064ZM368.819 237.226C364.19 239.927 360.739 241.531 358.373 242.206L360.022 247.976C363.125 247.089 367.096 245.177 371.842 242.409L368.819 237.226ZM358.189 242.266C353.147 244.066 346.679 245.021 338.69 245.021V251.021C347.106 251.021 354.31 250.022 360.207 247.916L358.189 242.266ZM105.628 89.2509L103.284 88.665L101.829 94.4858L104.173 95.0717L105.628 89.2509ZM103.506 88.7293C101.036 87.906 98.7777 87.4035 96.844 87.4035C94.9243 87.4035 92.7607 87.9182 91.3678 89.7754L96.1678 93.3754C95.9468 93.67 95.834 93.4035 96.844 93.4035C97.8399 93.4035 99.3907 93.6823 101.608 94.4214L103.506 88.7293ZM91.3678 89.7754C89.9204 91.7053 90.1445 93.9826 90.7961 95.807C91.4487 97.6344 92.7121 99.5991 94.3549 101.653L99.0401 97.9044C97.5579 96.0517 96.7705 94.696 96.4466 93.789C96.1216 92.8791 96.4434 93.008 96.1678 93.3754L91.3678 89.7754ZM94.5473 101.871C108.254 115.958 118.581 133.515 125.487 154.618L131.189 152.752C124.033 130.886 113.266 112.505 98.8477 97.6864L94.5473 101.871ZM125.483 154.606C129.308 166.464 133.186 185.592 137.089 212.129L143.025 211.256C139.115 184.668 135.181 165.124 131.193 152.764L125.483 154.606ZM137.103 212.214L138.86 222.175L144.769 221.132L143.011 211.171L137.103 212.214ZM138.86 222.171C140.248 230.102 142.187 236.297 144.864 240.425C146.222 242.517 147.859 244.219 149.849 245.283C151.888 246.373 154.112 246.691 156.399 246.288L155.356 240.379C154.322 240.561 153.47 240.415 152.677 239.992C151.835 239.542 150.884 238.68 149.898 237.16C147.888 234.061 146.116 228.83 144.77 221.136L138.86 222.171ZM156.528 246.262C161.435 245.171 164.789 241.162 167.009 235.668C169.236 230.152 170.582 222.553 171.176 213.052L165.188 212.677C164.61 221.926 163.319 228.78 161.445 233.421C159.563 238.082 157.35 239.933 155.226 240.405L156.528 246.262ZM171.182 212.864C171.182 193.461 170.399 177.313 168.816 164.451C167.241 151.657 164.847 141.853 161.473 135.317L156.141 138.068C159.017 143.641 161.31 152.588 162.861 165.184C164.403 177.713 165.182 193.596 165.182 212.864H171.182ZM161.49 135.351C157.907 128.184 151.403 120.839 142.26 113.286C133.091 105.711 121.11 97.8001 106.366 89.5438L103.435 94.7788C117.988 102.929 129.64 110.642 138.439 117.912C147.265 125.203 153.066 131.92 156.124 138.034L161.49 135.351Z" fill="#EFEFEF"/>
</svg>
