<svg width="533" height="405" viewBox="0 0 533 405" fill="none" xmlns="http://www.w3.org/2000/svg">
<path d="M367.585 16.1121H361.726L168.366 20.2136C134.382 20.9949 105.866 20.4089 82.8193 18.4558C61.335 16.8933 38.874 13.7683 15.4365 9.08081C7.62402 6.73706 3.32715 6.54175 2.5459 8.49487C1.37402 10.448 3.91309 13.573 10.1631 17.8699C17.585 22.1667 26.1787 26.6589 35.9443 31.3464C41.8037 33.6902 50.0068 37.0105 60.5537 41.3074C71.4912 45.6042 79.1084 47.948 83.4053 48.3386C86.1396 48.7292 89.6553 47.948 93.9521 45.9949C99.0303 43.6511 103.913 41.8933 108.601 40.7214C117.194 38.3777 127.937 36.8152 140.827 36.0339L249.226 31.3464V334.276C249.226 359.276 250.007 376.659 251.569 386.425C253.522 398.534 257.233 403.026 262.702 399.901C269.343 394.042 273.835 385.448 276.179 374.12C278.522 362.401 279.694 342.87 279.694 315.526V30.7605L462.507 30.1746L497.077 31.9324C510.749 33.1042 519.343 33.2996 522.858 32.5183C527.937 31.7371 530.866 29.198 531.647 24.9011C532.038 18.2605 529.499 13.1824 524.03 9.66675C518.562 5.7605 509.772 3.41675 497.663 2.6355C485.554 1.073 475.202 0.682373 466.608 1.46362C461.14 2.24487 454.108 3.80737 445.515 6.15112C434.577 9.27612 425.202 11.4246 417.39 12.5964C403.718 14.5496 387.116 15.7214 367.585 16.1121Z" fill="#EFEFEF"/>
<path d="M367.585 16.1121V19.1121H367.615L367.645 19.1115L367.585 16.1121ZM361.726 16.1121V13.1121H361.694L361.662 13.1127L361.726 16.1121ZM168.366 20.2136L168.303 17.2143L168.297 17.2144L168.366 20.2136ZM82.8193 18.4558L83.0727 15.4665L83.0548 15.465L83.0369 15.4637L82.8193 18.4558ZM15.4365 9.08081L14.5745 11.9543L14.7097 11.9949L14.8482 12.0226L15.4365 9.08081ZM2.5459 8.49487L5.11838 10.0384L5.24205 9.83223L5.33133 9.60905L2.5459 8.49487ZM10.1631 17.8699L8.4635 20.342L8.55933 20.4079L8.65998 20.4662L10.1631 17.8699ZM35.9443 31.3464L34.6461 34.051L34.7368 34.0945L34.8302 34.1319L35.9443 31.3464ZM60.5537 41.3074L59.4218 44.0857L59.4392 44.0927L59.4568 44.0996L60.5537 41.3074ZM83.4053 48.3386L83.8295 45.3688L83.7534 45.3579L83.6769 45.3509L83.4053 48.3386ZM93.9521 45.9949L95.1936 48.726L95.2015 48.7224L95.2093 48.7188L93.9521 45.9949ZM108.601 40.7214L109.328 43.6319L109.359 43.6241L109.39 43.6157L108.601 40.7214ZM140.827 36.0339L140.698 33.0367L140.672 33.0379L140.646 33.0394L140.827 36.0339ZM249.226 31.3464H252.226V28.2139L249.096 28.3492L249.226 31.3464ZM251.569 386.425L248.607 386.899L248.608 386.902L251.569 386.425ZM262.702 399.901L264.191 402.506L264.457 402.354L264.687 402.151L262.702 399.901ZM276.179 374.12L279.116 374.728L279.119 374.718L279.12 374.708L276.179 374.12ZM279.694 30.7605L279.685 27.7605L276.694 27.7701V30.7605H279.694ZM462.507 30.1746L462.659 27.1784L462.578 27.1743L462.497 27.1746L462.507 30.1746ZM497.077 31.9324L497.333 28.9433L497.281 28.9389L497.229 28.9362L497.077 31.9324ZM522.858 32.5183L522.402 29.5532L522.304 29.5683L522.208 29.5897L522.858 32.5183ZM531.647 24.9011L534.599 25.4378L534.632 25.2588L534.642 25.0773L531.647 24.9011ZM524.03 9.66675L522.287 12.1079L522.346 12.1506L522.408 12.1903L524.03 9.66675ZM497.663 2.6355L497.279 5.61083L497.374 5.6231L497.47 5.62927L497.663 2.6355ZM466.608 1.46362L466.337 -1.52406L466.26 -1.5171L466.184 -1.50623L466.608 1.46362ZM445.515 6.15112L444.725 3.25683L444.708 3.26159L444.69 3.26655L445.515 6.15112ZM417.39 12.5964L417.814 15.5663L417.824 15.5648L417.835 15.5632L417.39 12.5964ZM367.585 13.1121H361.726V19.1121H367.585V13.1121ZM361.662 13.1127L168.303 17.2143L168.43 23.2129L361.789 19.1114L361.662 13.1127ZM168.297 17.2144C134.376 17.9942 105.975 17.4074 83.0727 15.4665L82.566 21.4451C105.757 23.4104 134.388 23.9955 168.435 23.2128L168.297 17.2144ZM83.0369 15.4637C61.6897 13.9112 39.353 10.8047 16.0249 6.13907L14.8482 12.0226C38.395 16.7319 60.9802 19.8754 82.6017 21.4479L83.0369 15.4637ZM16.2986 6.20733C12.3268 5.0158 9.01537 4.29437 6.49072 4.17961C5.2378 4.12266 3.95392 4.20182 2.80968 4.5979C1.59724 5.01759 0.364233 5.87129 -0.239532 7.3807L5.33133 9.60905C5.11819 10.1419 4.71526 10.2876 4.77235 10.2678C4.89764 10.2244 5.32274 10.1327 6.21827 10.1734C7.99049 10.254 10.7338 10.8021 14.5745 11.9543L16.2986 6.20733ZM-0.0265803 6.95139C-1.67574 9.69999 -0.153857 12.4761 1.24295 14.1952C2.78845 16.0974 5.27165 18.1476 8.4635 20.342L11.8627 15.3977C8.80452 13.2953 6.89319 11.6345 5.89963 10.4117C4.75737 9.00583 5.59567 9.24288 5.11838 10.0384L-0.0265803 6.95139ZM8.65998 20.4662C16.1634 24.8102 24.828 29.3383 34.6461 34.051L37.2425 28.6419C27.5294 23.9796 19.0065 19.5233 11.6662 15.2736L8.65998 20.4662ZM34.8302 34.1319C40.6807 36.4721 48.877 39.7896 59.4218 44.0857L61.6856 38.5291C51.1367 34.2314 42.9267 30.9083 37.0585 28.561L34.8302 34.1319ZM59.4568 44.0996C70.3533 48.3804 78.3498 50.8914 83.1337 51.3263L83.6769 45.3509C79.867 45.0046 72.6291 42.8281 61.6507 38.5151L59.4568 44.0996ZM82.981 51.3085C86.5554 51.8191 90.7026 50.7673 95.1936 48.726L92.7107 43.2638C88.608 45.1287 85.7239 45.6394 83.8295 45.3688L82.981 51.3085ZM95.2093 48.7188C100.143 46.4416 104.848 44.7518 109.328 43.6319L107.873 37.811C102.978 39.0348 97.9175 40.8606 92.695 43.271L95.2093 48.7188ZM109.39 43.6157C117.718 41.3444 128.24 39.8023 141.009 39.0284L140.646 33.0394C127.633 33.8281 116.67 35.411 107.811 37.8271L109.39 43.6157ZM140.957 39.0311L249.355 34.3436L249.096 28.3492L140.698 33.0367L140.957 39.0311ZM246.226 31.3464V334.276H252.226V31.3464H246.226ZM246.226 334.276C246.226 359.267 247.002 376.869 248.607 386.899L254.532 385.951C253.011 376.449 252.226 359.285 252.226 334.276H246.226ZM248.608 386.902C249.594 393.02 251.1 397.876 253.504 400.786C254.779 402.329 256.434 403.478 258.488 403.784C260.505 404.084 262.446 403.503 264.191 402.506L261.214 397.296C260.224 397.862 259.651 397.891 259.372 397.849C259.131 397.813 258.711 397.669 258.13 396.965C256.824 395.383 255.497 391.938 254.531 385.947L248.608 386.902ZM264.687 402.151C271.945 395.746 276.681 386.497 279.116 374.728L273.241 373.512C270.988 384.399 266.74 392.337 260.717 397.652L264.687 402.151ZM279.12 374.708C281.528 362.673 282.694 342.881 282.694 315.526H276.694C276.694 342.859 275.517 362.129 273.237 373.532L279.12 374.708ZM282.694 315.526V30.7605H276.694V315.526H282.694ZM279.704 33.7605L462.516 33.1745L462.497 27.1746L279.685 27.7605L279.704 33.7605ZM462.354 33.1707L496.925 34.9285L497.229 28.9362L462.659 27.1784L462.354 33.1707ZM496.821 34.9214C503.687 35.51 509.323 35.8573 513.708 35.957C518.006 36.0547 521.36 35.9244 523.509 35.4469L522.208 29.5897C520.841 29.8935 518.14 30.0562 513.845 29.9585C509.636 29.8629 504.139 29.5267 497.333 28.9433L496.821 34.9214ZM523.315 35.4834C526.235 35.0342 528.819 34.037 530.829 32.2951C532.875 30.5216 534.103 28.1686 534.599 25.4378L528.696 24.3645C528.411 25.9305 527.783 26.9955 526.899 27.761C525.98 28.5582 524.56 29.2212 522.402 29.5532L523.315 35.4834ZM534.642 25.0773C535.095 17.3861 532.059 11.2615 525.653 7.14321L522.408 12.1903C526.939 15.1032 528.981 19.1349 528.653 24.725L534.642 25.0773ZM525.774 7.22555C519.613 2.82503 510.136 0.433991 497.856 -0.358278L497.47 5.62927C509.409 6.39951 517.51 8.69596 522.287 12.1079L525.774 7.22555ZM498.047 -0.339836C485.802 -1.91983 475.218 -2.33144 466.337 -1.52406L466.88 4.4513C475.186 3.69619 485.305 4.06582 497.279 5.61083L498.047 -0.339836ZM466.184 -1.50623C460.541 -0.700081 453.376 0.897544 444.725 3.25683L446.304 9.04541C454.841 6.7172 461.738 5.18983 467.033 4.43347L466.184 -1.50623ZM444.69 3.26655C433.828 6.37001 424.587 8.48327 416.945 9.62963L417.835 15.5632C425.817 14.3658 435.326 12.1822 446.339 9.03569L444.69 3.26655ZM416.965 9.62659C403.452 11.557 386.98 12.7236 367.525 13.1127L367.645 19.1115C387.253 18.7193 403.983 17.5421 417.814 15.5663L416.965 9.62659Z" fill="#EFEFEF"/>
</svg>
