<svg width="11" height="8" viewBox="0 0 11 8" fill="none" xmlns="http://www.w3.org/2000/svg">
<path d="M4 4L4.35355 4.35355L4.70711 4L4.35355 3.64645L4 4ZM7 4L7.35355 4.35355L7.70711 4L7.35355 3.64645L7 4ZM10 4L10.3536 4.35355L10.7071 4L10.3536 3.64645L10 4ZM0.646447 1.35355L3.64645 4.35355L4.35355 3.64645L1.35355 0.646447L0.646447 1.35355ZM3.64645 3.64645L0.646447 6.64645L1.35355 7.35355L4.35355 4.35355L3.64645 3.64645ZM3.64645 1.35355L6.64645 4.35355L7.35355 3.64645L4.35355 0.646447L3.64645 1.35355ZM6.64645 3.64645L3.64645 6.64645L4.35355 7.35355L7.35355 4.35355L6.64645 3.64645ZM6.64645 1.35355L9.64645 4.35355L10.3536 3.64645L7.35355 0.646447L6.64645 1.35355ZM9.64645 3.64645L6.64645 6.64645L7.35355 7.35355L10.3536 4.35355L9.64645 3.64645Z" fill="#2F3E8B"/>
</svg>
