<svg width="222" height="525" viewBox="0 0 222 525" fill="none" xmlns="http://www.w3.org/2000/svg">
<path d="M189.76 49.2614V223.285C145.229 226.019 112.612 227.777 91.9087 228.558C65.7368 229.34 43.8618 228.949 26.2837 227.386L15.1509 225.629C8.90088 224.457 5.18994 224.066 4.01807 224.457C1.67432 224.847 2.06494 226.996 5.18994 230.902C11.4399 234.808 18.4712 238.715 26.2837 242.621C34.0962 246.527 40.5415 249.261 45.6196 250.824C51.0884 252.777 55.1899 253.754 57.9243 253.754C59.8774 253.363 62.6118 252.582 66.1274 251.41C70.0337 249.457 73.9399 248.09 77.8462 247.308C84.0962 245.746 91.9087 244.574 101.284 243.793L189.76 238.519V489.886C189.76 498.48 190.737 506.293 192.69 513.324C195.034 520.746 197.768 524.457 200.893 524.457C205.19 524.457 209.292 518.988 213.198 508.05C217.495 497.113 219.643 484.418 219.643 469.965V46.3317L220.229 39.3005C221.401 34.2224 221.596 30.5114 220.815 28.1677C219.643 24.652 216.323 21.7224 210.854 19.3786C202.26 16.2536 192.299 12.9333 180.971 9.41766C166.518 5.12079 154.213 2.1911 144.057 0.628601C137.807 0.628601 132.924 1.80048 129.409 4.14423C125.893 6.48798 126.479 8.4411 131.167 10.0036C151.088 18.5974 165.151 25.4333 173.354 30.5114C184.292 37.152 189.76 43.402 189.76 49.2614Z" fill="#EFEFEF"/>
<path d="M189.76 223.285L189.944 226.279L192.76 226.106V223.285H189.76ZM91.9087 228.558L91.9982 231.557L92.01 231.557L92.0218 231.556L91.9087 228.558ZM26.2837 227.386L25.8158 230.35L25.9165 230.366L26.0181 230.375L26.2837 227.386ZM15.1509 225.629L14.598 228.577L14.6404 228.585L14.683 228.592L15.1509 225.629ZM4.01807 224.457L4.51126 227.416L4.74344 227.377L4.96675 227.303L4.01807 224.457ZM5.18994 230.902L2.84733 232.776L3.16658 233.175L3.59994 233.446L5.18994 230.902ZM45.6196 250.824L46.6286 247.999L46.5657 247.976L46.5019 247.957L45.6196 250.824ZM57.9243 253.754V256.754H58.2214L58.5127 256.695L57.9243 253.754ZM66.1274 251.41L67.0761 254.256L67.2784 254.188L67.4691 254.093L66.1274 251.41ZM77.8462 247.308L78.4345 250.25L78.5045 250.236L78.5738 250.219L77.8462 247.308ZM101.284 243.793L101.105 240.798L101.07 240.8L101.035 240.803L101.284 243.793ZM189.76 238.519H192.76V235.335L189.582 235.525L189.76 238.519ZM192.69 513.324L189.799 514.127L189.813 514.177L189.829 514.227L192.69 513.324ZM213.198 508.05L210.405 506.954L210.388 506.997L210.373 507.041L213.198 508.05ZM219.643 46.3317L216.653 46.0826L216.643 46.2069V46.3317H219.643ZM220.229 39.3005L217.306 38.6259L217.257 38.8362L217.239 39.0513L220.229 39.3005ZM210.854 19.3786L212.036 16.6212L211.958 16.588L211.879 16.5592L210.854 19.3786ZM180.971 9.41766L181.86 6.55247L181.843 6.54716L181.826 6.54205L180.971 9.41766ZM144.057 0.628601L144.513 -2.33651L144.287 -2.3714H144.057V0.628601ZM131.167 10.0036L132.355 7.24897L132.237 7.19813L132.115 7.15755L131.167 10.0036ZM173.354 30.5114L171.775 33.0622L171.786 33.069L171.797 33.0758L173.354 30.5114ZM186.76 49.2614V223.285H192.76V49.2614H186.76ZM189.576 220.29C145.048 223.025 112.461 224.781 91.7956 225.56L92.0218 231.556C112.763 230.773 145.41 229.014 189.944 226.279L189.576 220.29ZM91.8192 225.56C65.715 226.339 43.9678 225.947 26.5493 224.398L26.0181 230.375C43.7559 231.951 65.7586 232.34 91.9982 231.557L91.8192 225.56ZM26.7516 224.423L15.6188 222.665L14.683 228.592L25.8158 230.35L26.7516 224.423ZM15.7037 222.68C12.5463 222.088 9.96604 221.681 7.99423 221.473C7.01043 221.37 6.12764 221.31 5.37305 221.31C4.69098 221.31 3.83912 221.354 3.06938 221.611L4.96675 227.303C4.78295 227.364 4.83441 227.31 5.37305 227.31C5.83915 227.31 6.49445 227.348 7.36612 227.44C9.10525 227.623 11.5055 227.997 14.598 228.577L15.7037 222.68ZM3.52487 221.498C2.54584 221.661 1.28269 222.096 0.395077 223.25C-0.533785 224.458 -0.590325 225.842 -0.398387 226.898C-0.055555 228.783 1.27796 230.814 2.84733 232.776L7.53255 229.028C6.80835 228.123 6.29387 227.382 5.95325 226.796C5.59599 226.18 5.5144 225.877 5.50483 225.824C5.50146 225.806 5.5914 226.336 5.15082 226.908C4.75149 227.428 4.31841 227.448 4.51126 227.416L3.52487 221.498ZM3.59994 233.446C9.94357 237.411 17.0596 241.363 24.9421 245.304L27.6253 239.938C19.8827 236.066 12.9363 232.206 6.77994 228.358L3.59994 233.446ZM24.9421 245.304C32.8212 249.244 39.4334 252.059 44.7374 253.691L46.5019 247.957C41.6496 246.464 35.3712 243.81 27.6253 239.938L24.9421 245.304ZM44.6106 253.649C50.1227 255.618 54.639 256.754 57.9243 256.754V250.754C55.7409 250.754 52.054 249.936 46.6286 247.999L44.6106 253.649ZM58.5127 256.695C60.6503 256.268 63.5244 255.44 67.0761 254.256L65.1788 248.564C61.6992 249.724 59.1046 250.458 57.336 250.812L58.5127 256.695ZM67.4691 254.093C71.1596 252.248 74.8135 250.974 78.4345 250.25L77.2578 244.367C73.0663 245.205 68.9078 246.666 64.7858 248.727L67.4691 254.093ZM78.5738 250.219C84.6132 248.709 92.2529 247.556 101.533 246.782L101.035 240.803C91.5645 241.592 83.5792 242.783 77.1186 244.398L78.5738 250.219ZM101.462 246.787L189.939 241.514L189.582 235.525L101.105 240.798L101.462 246.787ZM186.76 238.519V489.886H192.76V238.519H186.76ZM186.76 489.886C186.76 498.705 187.762 506.793 189.799 514.127L195.58 512.521C193.712 505.793 192.76 498.256 192.76 489.886H186.76ZM189.829 514.227C191.042 518.068 192.431 521.211 194.083 523.453C195.735 525.694 197.986 527.457 200.893 527.457V521.457C200.675 521.457 199.997 521.364 198.914 519.894C197.831 518.425 196.682 516.002 195.551 512.421L189.829 514.227ZM200.893 527.457C204.435 527.457 207.313 525.194 209.592 522.155C211.906 519.07 214.029 514.643 216.023 509.059L210.373 507.041C208.46 512.395 206.579 516.172 204.792 518.555C202.969 520.986 201.648 521.457 200.893 521.457V527.457ZM215.99 509.147C220.452 497.79 222.643 484.71 222.643 469.965H216.643C216.643 484.126 214.538 496.436 210.405 506.954L215.99 509.147ZM222.643 469.965V46.3317H216.643V469.965H222.643ZM222.633 46.5809L223.219 39.5496L217.239 39.0513L216.653 46.0826L222.633 46.5809ZM223.152 39.9751C224.338 34.8355 224.725 30.4101 223.661 27.219L217.969 29.1163C218.468 30.6127 218.464 33.6092 217.306 38.6259L223.152 39.9751ZM223.661 27.219C222.091 22.5087 217.825 19.1024 212.036 16.6212L209.672 22.136C214.82 24.3423 217.195 26.7954 217.969 29.1163L223.661 27.219ZM211.879 16.5592C203.23 13.4139 193.222 10.0784 181.86 6.55247L180.082 12.2829C191.377 15.7882 201.291 19.0933 209.829 22.198L211.879 16.5592ZM181.826 6.54205C167.297 2.22249 154.851 -0.74614 144.513 -2.33651L143.601 3.59372C153.576 5.12834 165.739 8.01909 180.116 12.2933L181.826 6.54205ZM144.057 -2.3714C137.483 -2.3714 131.937 -1.14657 127.745 1.64808L131.073 6.64038C133.912 4.74752 138.132 3.6286 144.057 3.6286V-2.3714ZM127.745 1.64808C126.72 2.33084 125.739 3.14584 125.062 4.13879C124.339 5.19995 123.863 6.64432 124.338 8.22893C124.77 9.66888 125.821 10.6314 126.756 11.2546C127.724 11.9003 128.917 12.4161 130.218 12.8497L132.115 7.15755C131.072 6.80984 130.434 6.49555 130.084 6.26233C129.917 6.1508 129.872 6.09484 129.889 6.11393C129.91 6.13839 130.014 6.26694 130.085 6.50484C130.161 6.75879 130.165 7.02178 130.117 7.24474C130.074 7.4475 130.005 7.54083 130.02 7.51881C130.036 7.49478 130.11 7.39686 130.292 7.23253C130.471 7.07081 130.725 6.87216 131.073 6.64038L127.745 1.64808ZM129.978 12.7582C149.889 21.3473 163.775 28.1098 171.775 33.0622L174.933 27.9606C166.527 22.7568 152.287 15.8474 132.355 7.24897L129.978 12.7582ZM171.797 33.0758C177.129 36.3131 180.947 39.3502 183.401 42.1549C185.855 44.9591 186.76 47.3112 186.76 49.2614H192.76C192.76 45.3523 190.931 41.6496 187.916 38.2039C184.902 34.7585 180.516 31.3503 174.911 27.9471L171.797 33.0758Z" fill="#EFEFEF"/>
</svg>
