<svg xmlns="http://www.w3.org/2000/svg" viewBox="0 0 87.84 78"><defs><style>.cls-1{fill:none;}.cls-1,.cls-2{stroke:#000;stroke-linecap:round;stroke-linejoin:round;stroke-width:3px;}.cls-2{fill:#fff;}</style></defs><g id="Layer_2" data-name="Layer 2"><g id="레이어_1" data-name="레이어 1"><path class="cls-1" d="M14.28,25.64V18.69c0-7.8,5.83-14.19,13-14.19H29c7.13,0,13,6.39,13,14.19v21a15.16,15.16,0,0,1-1,5.51"/><polyline class="cls-2" points="20.55 71.77 1.5 71.77 1.5 33.93 63.52 33.93 63.52 71.77 28.43 71.77"/><circle class="cls-2" cx="61.19" cy="28.06" r="12.53"/><path class="cls-2" d="M81.15,53.78c.49.79,1,1.63,1.41,2.54,4.14,8.38,3.89,17,3.68,20.18H36.87a39.92,39.92,0,0,1,3-19.22C46.46,42.39,60.28,41.91,61.19,41.9A23.75,23.75,0,0,1,76.38,48"/><circle class="cls-1" cx="28.43" cy="43" r="2.76"/><polyline class="cls-1" points="27.58 45.76 26.78 51.27 30.09 51.27 29.33 45.6"/><path class="cls-1" d="M45.92,14.3S44.58,3.07,35.77,1.5"/></g></g></svg>