<svg xmlns="http://www.w3.org/2000/svg" viewBox="0 0 79.6 92.5"><defs><style>.cls-1{fill:none;stroke:#fff;stroke-linecap:round;stroke-linejoin:round;stroke-width:3px;}</style></defs><g id="Layer_2" data-name="Layer 2"><g id="레이어_1" data-name="레이어 1"><path class="cls-1" d="M47.9,88l-8.23,2.75L39.94,1.5A82.83,82.83,0,0,0,63.83,16.6,81.6,81.6,0,0,0,78.1,21c-.11,1.15-.3,2.86-.55,4.94-.9,7.64-1.89,13.68-2.19,15.38C74.23,47.74,72.25,59,65.47,69.86A60.93,60.93,0,0,1,47.9,88Z"/><path class="cls-1" d="M2.83,38.13C5.59,56.66,14,84.23,39.8,91h0C79.5,80.56,78.1,20.72,78.1,20.72,57.62,16.89,39.8,2.05,39.8,2.05S22,16.89,1.51,20.72c0,0-.09,3.53.36,9"/><line class="cls-1" x1="39.94" y1="2.05" x2="39.94" y2="91"/><line class="cls-1" x1="67.12" y1="17.7" x2="12.41" y2="65.66"/><line class="cls-1" x1="54.62" y1="59.71" x2="25.3" y2="83.61"/><line class="cls-1" x1="75.91" y1="41.86" x2="62.13" y2="53.28"/></g></g></svg>