<svg xmlns="http://www.w3.org/2000/svg" viewBox="0 0 93.26 73.45"><defs><style>.cls-1,.cls-2{fill:none;stroke:#000;stroke-linejoin:round;stroke-width:3px;}.cls-1{stroke-linecap:round;}</style></defs><g id="Layer_2" data-name="Layer 2"><g id="레이어_1" data-name="레이어 1"><path class="cls-1" d="M56.56,8.81A55.7,55.7,0,0,1,46.28,1.5c-2.67,2.33-8.55,7.62-14.93,9.63a68.06,68.06,0,0,1-14.92,2.93A40.14,40.14,0,0,1,10,24.8,43.07,43.07,0,0,1,1.5,32.61L15.36,46.28a64.1,64.1,0,0,1,14.92-5.6,68.64,68.64,0,0,1,16-1.87,72,72,0,0,1,16,1.87,70.24,70.24,0,0,1,15.63,5.6L91.76,32.61a43.35,43.35,0,0,1-8.53-7.81,39.79,39.79,0,0,1-6.39-10.74A68,68,0,0,1,65.7,12.21"/><path class="cls-1" d="M15.36,54.5a57.87,57.87,0,0,1,62.9,0,134.77,134.77,0,0,0-62.9,0Z"/><path class="cls-1" d="M30.06,71.93H66.6c.37,0,6.52.43,9.88-4.27a10.46,10.46,0,0,0,1.85-6.39c-33.28-10.66-62.86,0-62.86,0a7.83,7.83,0,0,0-.13,3.22,8.37,8.37,0,0,0,2.22,4.24,10.82,10.82,0,0,0,5.33,3.2"/><path class="cls-2" d="M53.76,20.5l-1-2-1-2a4.54,4.54,0,0,1-3.35-.21,4.22,4.22,0,0,1-1.6-1.37,4.32,4.32,0,0,1-2.05,1.58,4.42,4.42,0,0,1-3,0l-1,2-1,2a5.44,5.44,0,0,1,1.59,2.06,5.53,5.53,0,0,1,.41,2.94,9.19,9.19,0,0,0,5,5,9.09,9.09,0,0,0,3-2,9,9,0,0,0,2-3,4,4,0,0,1,0-3A3.93,3.93,0,0,1,53.76,20.5Z"/></g></g></svg>