<svg xmlns="http://www.w3.org/2000/svg" viewBox="0 0 84 84"><defs><style>.cls-1{fill:#fff;}.cls-1,.cls-2,.cls-4{stroke:#000;stroke-width:3px;}.cls-1,.cls-2{stroke-linecap:round;stroke-linejoin:round;}.cls-2,.cls-4{fill:none;}.cls-3{font-size:10.74px;font-family:FranklinGothic-Medium, Franklin Gothic Medium;font-weight:500;letter-spacing:0.2em;}.cls-4{stroke-miterlimit:10;}</style></defs><g id="Layer_2" data-name="Layer 2"><g id="레이어_1" data-name="레이어 1"><polyline class="cls-1" points="75.39 82.5 82.06 82.5 82.06 75.5 73.25 75.5 73.25 29 11.19 29 11.19 75.5 1.94 75.5 1.94 82.5 65.02 82.5"/><path class="cls-2" d="M19.18,16.64,5,22.07H1.5V27h81V22.07H79L50.8,10.58,42.58,7.5,35,10.58l-10,3.84"/><rect class="cls-2" x="11.18" y="38" width="62.07" height="16"/><text class="cls-3" transform="translate(19.94 50.01)">POLICE</text><rect class="cls-4" x="31.43" y="65" width="21.57" height="17"/><path class="cls-1" d="M34.34,9.25c.59,4,2.41,9.9,7.94,11.35h0C50.8,18.36,50.5,5.51,50.5,5.51a20.75,20.75,0,0,1-8.22-4,20.83,20.83,0,0,1-8.23,4s0,.76.08,1.94"/></g></g></svg>