<svg xmlns="http://www.w3.org/2000/svg" viewBox="0 0 81.48 90.12"><defs><style>.cls-1,.cls-2{fill:none;}.cls-1,.cls-2,.cls-3{stroke:#000;stroke-linecap:round;stroke-linejoin:round;}.cls-1,.cls-3{stroke-width:3px;}.cls-2{stroke-width:6px;}.cls-3{fill:#fff;}</style></defs><g id="Layer_2" data-name="Layer 2"><g id="레이어_1" data-name="레이어 1"><path class="cls-1" d="M5.81,37.17c2.61,17.52,10.61,43.6,35,50h0C78.32,77.3,77,20.7,77,20.7,57.63,17.08,40.77,3.05,40.77,3.05S23.92,17.08,4.56,20.7c0,0-.08,3.35.34,8.56"/><polyline class="cls-2" points="31.77 31.7 39.53 42.4 52.23 23.95"/><path class="cls-3" d="M44.33,68.53A102.77,102.77,0,0,1,25,67.22,106.93,106.93,0,0,1,1.5,60.49V47.29a107.12,107.12,0,0,0,17.25,4.86c18.17,3.49,32.73,1.26,41.39-.15A142.35,142.35,0,0,0,80,47.29q0,7.07,0,14.15A112.15,112.15,0,0,1,52.23,68"/><line class="cls-1" x1="5.76" y1="42.09" x2="1.5" y2="47.29"/><line class="cls-1" x1="75.74" y1="42.09" x2="79.98" y2="47.29"/><path class="cls-1" d="M33.5,1.5s-9.15,8.33-19,10"/><path class="cls-1" d="M69.37,70.38S62.86,83.1,50.63,88.62"/></g></g></svg>