<svg xmlns="http://www.w3.org/2000/svg" viewBox="0 0 90.76 79.69"><defs><style>.cls-1{fill:none;}.cls-1,.cls-2,.cls-3{stroke:#000;stroke-linecap:round;stroke-linejoin:round;stroke-width:3px;}.cls-2{fill:#fff;}.cls-3{fill:#003a5e;}</style></defs><g id="Layer_2" data-name="Layer 2"><g id="레이어_1" data-name="레이어 1"><path class="cls-1" d="M23.23,29.19a22.39,22.39,0,0,0-6.55,9.88c-.43,1.28-1.46,3.88-2.33,4.19-1.06.38-6.29.78-8.76,1.43a3.64,3.64,0,0,0-1.81,1,4.06,4.06,0,0,0-.84,1.73,34.06,34.06,0,0,0-1.4,9.2c0,3.27-.28,7.6.79,7.6h86.1c1.07,0,.81-4.33.79-7.6a34.06,34.06,0,0,0-1.4-9.2A4.16,4.16,0,0,0,87,45.66a3.62,3.62,0,0,0-1.82-1c-2.46-.65-7.7-1-8.76-1.43-.87-.31-1.9-2.91-2.33-4.19a22.39,22.39,0,0,0-6.55-9.88A20.7,20.7,0,0,0,59,24.84c-3.4-.83-6.89-.65-10.36-.64q-6.94,0-13.88.05"/><circle class="cls-2" cx="23.76" cy="67.69" r="10.5"/><path class="cls-2" d="M65.27,77.75a10.5,10.5,0,1,1,7.12-.38"/><path class="cls-3" d="M70.17,18.31l-.06,0a4.11,4.11,0,0,0-1,.91L58.36,31.13a102,102,0,0,1,2.55-13c-2,.05-4.2.07-5.92-1a6.83,6.83,0,0,1-2.88-4.65c-.74-4.1.25-8.73,4.51-10.27a18.55,18.55,0,0,1,6.6-.71l8.9.11a9.19,9.19,0,0,1,3.94.64,5.91,5.91,0,0,1,2.84,3.6,13.5,13.5,0,0,1,.43,4.66c-.08,1.92-.35,4-1.64,5.42s-3.6,2-5.66,2A4.68,4.68,0,0,0,70.17,18.31Z"/><circle class="cls-2" cx="58.33" cy="9.41"/><circle class="cls-2" cx="65.13" cy="9.3"/><circle class="cls-2" cx="72.1" cy="9.3"/><circle class="cls-2" cx="23.76" cy="67.69" r="2.5"/><circle class="cls-2" cx="68.76" cy="67.69" r="2.5"/><path class="cls-1" d="M44.26,32.19c-1,0-2.53,0-4.38,0-2.89,0-3.46-.08-4.38,0a13.38,13.38,0,0,0-5.84,2,9.06,9.06,0,0,0-4.38,9h19v-11Z"/></g></g></svg>