<svg xmlns="http://www.w3.org/2000/svg" viewBox="0 0 84.3 81"><defs><style>.cls-1,.cls-2{fill:none;stroke:#000;stroke-linecap:round;stroke-linejoin:round;stroke-width:3px;}.cls-2{stroke-dasharray:6.77 6.77;}</style></defs><g id="Layer_2" data-name="Layer 2"><g id="레이어_1" data-name="레이어 1"><polyline class="cls-1" points="53.8 23.41 68.81 1.5 13.98 37.59 31.34 56.18 48.26 31.5"/><path class="cls-1" d="M68.93,1.56,5.65,20.81,8.93,30.5Z"/><path class="cls-1" d="M8.93,31.5l-3.71,18,15.71-4-7-8-8,11"/><polyline class="cls-1" points="59.19 66.39 44.71 51.78 77.05 65.53 69.69 76.98 63.71 70.96"/><path class="cls-1" d="M44.65,51.82l35.17,4.07L79,61.31Z"/><path class="cls-1" d="M79.12,61.83,82.8,71l-8.65-.6,2.91-4.89,5.27,5"/><path class="cls-1" d="M1.93,57.5a15.84,15.84,0,0,0-.43,3"/><path class="cls-2" d="M2.66,67.07C4.54,71,9.17,74.44,19.93,73.5c9.3-.81,14.51,0,17.42,1.29"/><path class="cls-1" d="M40.09,76.72a3.36,3.36,0,0,1,.84,2.78"/></g></g></svg>