<svg xmlns="http://www.w3.org/2000/svg" viewBox="0 0 89.3 69.5"><defs><style>.cls-1{fill:none;}.cls-1,.cls-2{stroke:#000;stroke-linecap:round;stroke-linejoin:round;stroke-width:3px;}.cls-2{fill:#fff;}</style></defs><g id="Layer_2" data-name="Layer 2"><g id="레이어_1" data-name="레이어 1"><polyline class="cls-1" points="82.61 1.5 82.61 52.41 8.45 52.41 8.45 1.5 55.02 1.5"/><line class="cls-1" x1="55.02" y1="1.5" x2="74.94" y2="1.5"/><rect class="cls-1" x="13.75" y="7.21" width="63.61" height="40"/><path class="cls-2" d="M29.85,33.12l-2.37,6.63-4.12.71,3.19-8.92.16,0"/><path class="cls-2" d="M33.44,32.92l2.83,6.8,4.2.66L36.56,31l-.19.05"/><circle class="cls-2" cx="31.57" cy="23.94" r="4.65"/><polygon class="cls-1" points="31.57 15.34 33.58 14.41 35.03 16.07 37.23 16.04 37.88 18.15 39.91 19.02 39.65 21.21 41.15 22.82 40.02 24.72 40.73 26.81 38.93 28.08 38.73 30.28 36.57 30.7 35.49 32.63 33.34 32.14 31.57 33.46 29.81 32.14 27.66 32.63 26.58 30.7 24.41 30.28 24.22 28.08 22.41 26.81 23.13 24.72 21.99 22.82 23.49 21.21 23.23 19.02 25.26 18.15 25.91 16.04 28.12 16.07 29.57 14.41 31.57 15.34"/><path class="cls-1" d="M19.53,68H7.73a11.1,11.1,0,0,1-3.18-2.34,11.74,11.74,0,0,1-3-7H87.8S86.7,65.92,81.51,68H29.85"/></g></g></svg>