<svg xmlns="http://www.w3.org/2000/svg" viewBox="0 0 90.08 82.99"><defs><style>.cls-1{fill:#fff;}.cls-1,.cls-2{stroke:#000;stroke-linecap:round;stroke-linejoin:round;stroke-width:3px;}.cls-2{fill:none;}</style></defs><g id="Layer_2" data-name="Layer 2"><g id="레이어_1" data-name="레이어 1"><polygon class="cls-1" points="86.03 14.73 12.14 14.68 12.7 9.54 86.58 9.6 86.03 14.73"/><polygon class="cls-1" points="85.97 14.73 12.09 14.69 12.64 9.46 86.53 9.49 85.97 14.73"/><polygon class="cls-1" points="85.92 14.72 12.03 14.71 12.59 9.37 86.47 9.39 85.92 14.72"/><polygon class="cls-1" points="85.86 14.72 11.98 14.72 12.54 9.29 86.42 9.28 85.86 14.72"/><polygon class="cls-1" points="85.81 14.71 11.92 14.74 12.48 9.2 86.37 9.17 85.81 14.71"/><polygon class="cls-1" points="85.75 14.71 11.87 14.76 12.43 9.11 86.31 9.07 85.75 14.71"/><polygon class="cls-1" points="85.69 14.7 11.81 14.77 12.37 9.03 86.26 8.96 85.69 14.7"/><polygon class="cls-1" points="85.64 14.7 11.75 14.79 12.32 8.94 86.2 8.85 85.64 14.7"/><polygon class="cls-1" points="85.58 14.7 11.7 14.8 12.26 8.86 86.15 8.75 85.58 14.7"/><polygon class="cls-1" points="85.53 14.69 11.64 14.82 12.21 8.77 86.1 8.64 85.53 14.69"/><polygon class="cls-1" points="85.47 14.69 11.59 14.84 12.15 8.68 86.04 8.53 85.47 14.69"/><polygon class="cls-1" points="85.42 14.68 11.53 14.85 12.1 8.6 85.99 8.43 85.42 14.68"/><polygon class="cls-1" points="85.36 14.68 11.47 14.87 12.05 8.51 85.93 8.32 85.36 14.68"/><polygon class="cls-1" points="85.31 14.67 11.42 14.88 11.99 8.42 85.88 8.21 85.31 14.67"/><polygon class="cls-1" points="85.25 14.67 11.36 14.9 11.94 8.34 85.83 8.11 85.25 14.67"/><polygon class="cls-1" points="85.19 14.66 11.31 14.91 11.88 8.25 85.77 8 85.19 14.66"/><polygon class="cls-1" points="85.14 14.66 11.25 14.93 11.83 8.16 85.72 7.89 85.14 14.66"/><polygon class="cls-1" points="85.08 14.65 11.19 14.95 11.77 8.08 85.66 7.79 85.08 14.65"/><polygon class="cls-1" points="85.03 14.65 11.14 14.96 11.72 7.99 85.61 7.68 85.03 14.65"/><polygon class="cls-1" points="84.97 14.65 11.08 14.98 11.66 7.91 85.56 7.57 84.97 14.65"/><polygon class="cls-1" points="84.92 14.64 11.03 14.99 11.61 7.82 85.5 7.46 84.92 14.64"/><polygon class="cls-1" points="84.86 14.64 10.97 15.01 11.56 7.73 85.45 7.36 84.86 14.64"/><polygon class="cls-1" points="84.81 14.63 10.91 15.03 11.5 7.65 85.39 7.25 84.81 14.63"/><polygon class="cls-1" points="84.75 14.63 10.86 15.04 11.45 7.56 85.34 7.14 84.75 14.63"/><polygon class="cls-1" points="84.69 14.62 10.8 15.06 11.39 7.47 85.28 7.04 84.69 14.62"/><polygon class="cls-1" points="84.64 14.62 10.75 15.07 11.34 7.39 85.23 6.93 84.64 14.62"/><polygon class="cls-1" points="84.58 14.62 10.69 15.09 11.29 7.3 85.18 6.83 84.58 14.62"/><polygon class="cls-1" points="84.53 14.61 10.63 15.11 11.23 7.21 85.12 6.72 84.53 14.61"/><polygon class="cls-1" points="84.47 14.61 10.58 15.12 11.18 7.13 85.07 6.61 84.47 14.61"/><polygon class="cls-1" points="84.42 14.6 10.52 15.14 11.12 7.04 85.01 6.5 84.42 14.6"/><polygon class="cls-1" points="84.36 14.6 10.47 15.15 11.07 6.96 84.96 6.4 84.36 14.6"/><polygon class="cls-1" points="84.3 14.59 10.41 15.17 11.01 6.87 84.91 6.29 84.3 14.59"/><path class="cls-2" d="M19.58,9.73c-.62-.59-1.1-1.1-1.44-1.47a5.33,5.33,0,0,1-.7-.89A3.61,3.61,0,0,1,17,5.83a4.26,4.26,0,0,1,2-3.75,4.42,4.42,0,0,1,3.59-.35,4.69,4.69,0,0,1,3,4"/><path class="cls-2" d="M35.58,9.73c-.62-.59-1.1-1.1-1.44-1.47a5.33,5.33,0,0,1-.7-.89A3.61,3.61,0,0,1,33,5.83a4.26,4.26,0,0,1,2-3.75,4.42,4.42,0,0,1,3.59-.35,4.69,4.69,0,0,1,3,4"/><path class="cls-2" d="M52.58,9.73c-.62-.59-1.1-1.1-1.44-1.47a5.33,5.33,0,0,1-.7-.89A3.61,3.61,0,0,1,50,5.83a4.26,4.26,0,0,1,2-3.75,4.42,4.42,0,0,1,3.59-.35,4.69,4.69,0,0,1,3,4"/><path class="cls-2" d="M68.58,9.73c-.62-.59-1.1-1.1-1.44-1.47a5.33,5.33,0,0,1-.7-.89A3.61,3.61,0,0,1,66,5.83a4.26,4.26,0,0,1,2-3.75,4.42,4.42,0,0,1,3.59-.35,4.69,4.69,0,0,1,3,4"/><polyline class="cls-1" points="88.58 64.11 88.58 81.49 8.14 81.49 8.14 27.81 88.58 27.81 88.58 55.82"/><polyline class="cls-1" points="6.17 38.44 8.25 22.14 85.56 22.14 81.28 75.12 1.5 75.12 5.05 47.26"/><path class="cls-1" d="M15.58,32l3.54-1.69-2,13.17"/><path class="cls-1" d="M33.46,37.46c-.56,3.18-2.85,5.55-5.14,5.42S24.47,40.19,24.83,37c.37-3.32,2.7-6,5.18-5.91S34,34.14,33.46,37.46Z"/><rect class="cls-1" x="43.97" y="34.73" width="2.49" height="0.83" rx="0.41"/><rect class="cls-1" x="55.92" y="34.73" width="2.49" height="0.83" rx="0.41"/><rect class="cls-1" x="68.71" y="34.73" width="2.49" height="0.83" rx="0.41"/><rect class="cls-1" x="43.14" y="44.86" width="2.49" height="0.83" rx="0.41"/><rect class="cls-1" x="55.09" y="44.86" width="2.49" height="0.83" rx="0.41"/><rect class="cls-1" x="67.88" y="44.86" width="2.49" height="0.83" rx="0.41"/><rect class="cls-1" x="41.48" y="54.99" width="2.49" height="0.83" rx="0.41"/><rect class="cls-1" x="27.86" y="54.99" width="2.49" height="0.83" rx="0.41"/><rect class="cls-1" x="15.24" y="54.99" width="2.49" height="0.83" rx="0.41"/><rect class="cls-1" x="53.43" y="54.99" width="2.49" height="0.83" rx="0.41"/><rect class="cls-1" x="66.22" y="54.99" width="2.49" height="0.83" rx="0.41"/><rect class="cls-1" x="40.65" y="64.11" width="2.49" height="0.83" rx="0.41"/><rect class="cls-1" x="27.03" y="64.11" width="2.49" height="0.83" rx="0.41"/><rect class="cls-1" x="13.58" y="64.11" width="2.49" height="0.83" rx="0.41"/><rect class="cls-1" x="52.6" y="64.11" width="2.49" height="0.83" rx="0.41"/><rect class="cls-1" x="65.39" y="64.11" width="2.49" height="0.83" rx="0.41"/></g></g></svg>