<svg xmlns="http://www.w3.org/2000/svg" viewBox="0 0 81.1 85"><defs><style>.cls-1{fill:none;}.cls-1,.cls-2,.cls-3{stroke:#000;stroke-linecap:round;stroke-linejoin:round;stroke-width:3px;}.cls-2{fill:#fff;}.cls-3{fill:#003a5e;}</style></defs><g id="Layer_2" data-name="Layer 2"><g id="레이어_1" data-name="레이어 1"><path class="cls-1" d="M15.17,44.63c-5.79-4-5.79-12.08-5.79-15.05a37.37,37.37,0,0,1,.15-3.75"/><path class="cls-1" d="M36.89,24.87a33.21,33.21,0,0,1,.27,4.71c0,3,0,11-5.79,15.05a14.32,14.32,0,0,1-8.1,2.31"/><path class="cls-1" d="M8.52,28.8S4.2,27.68,3.57,31s.81,7.2,5.58,5.23"/><path class="cls-1" d="M37.88,28.8S42.2,27.68,42.83,31s-.81,7.2-5.58,5.23"/><path class="cls-1" d="M28.48,19a13.66,13.66,0,0,1-3,3.5c-6.22,5.09-15,2.67-16.27,2.29V36.33"/><path class="cls-1" d="M28.48,19a24.74,24.74,0,0,0,4.82,3.86,24.73,24.73,0,0,0,3.86,1.93"/><path class="cls-1" d="M44.87,33.44c3.37,22.76,2.57,25.13,1,27-4,4.64-11.28,4.33-22.18,3.86-9.77-.42-15.47-.66-19.28-4.82S1.19,48.68,2.44,35.37c1.31-14,2.09-21.17,7.71-26A21,21,0,0,1,22.69,4.51c.65,0,9.2-.26,15.43,5.78C41.26,13.34,42.37,16.59,44.87,33.44Z"/><path class="cls-2" d="M6.29,82.54c-1-6.86-1.93-14.21-.83-21.09A9.61,9.61,0,0,1,6.57,58c2.07-3.41,7.46-5.52,11.3-6.45a5.95,5.95,0,0,0,11.57,0c0-.28,5.54,1.58,5.95,1.74a12.46,12.46,0,0,1,5.53,4c2.13,2.87,2.73,6.52,2.73,10,0,5.21-.71,10.41-.71,15.61"/><path class="cls-2" d="M77.2,32.51a19.54,19.54,0,0,1,1.33,3.21,17.3,17.3,0,0,1,0,11.85A32.62,32.62,0,0,1,76,51.8h0"/><path class="cls-1" d="M48.46,51.44a19,19,0,0,1-2.1-5.56,18.43,18.43,0,0,1,3-14.19,15.19,15.19,0,0,1,3.73-3.59,16.37,16.37,0,0,1,8.46-2.54,20.52,20.52,0,0,1,7.62.84,21.61,21.61,0,0,1,2.41.89"/><path class="cls-1" d="M74,42.1a27.94,27.94,0,0,1,.23,4c0,2.51,0,9.32-4.9,12.73a13,13,0,0,1-13.72,0c-4.9-3.41-4.9-10.22-4.9-12.73a31,31,0,0,1,.13-3.18"/><path class="cls-2" d="M50,44.43s-3.66-1-4.19,1.82.69,6.1,4.73,4.44"/><path class="cls-2" d="M74.88,45.43s3.66-1,4.19,1.82-.69,6.1-4.73,4.44"/><path class="cls-2" d="M66.92,37.11a11.85,11.85,0,0,1-2.55,3C59.1,44.38,51.7,42.33,50.59,42v3"/><path class="cls-2" d="M66.92,37.11A21,21,0,0,0,71,40.37,20.22,20.22,0,0,0,74.27,42"/><path class="cls-3" d="M50,83.26c-.77-4-1.45-8.34-.62-12.38a4.81,4.81,0,0,1,.82-2c1.54-2,5.56-3.23,8.42-3.78.38,1.54,2.21,2.67,4.31,2.67s3.94-1.13,4.32-2.67a34,34,0,0,1,4.43,1,9.37,9.37,0,0,1,4.12,2.37,8.24,8.24,0,0,1,2,5.88c0,3.06-.53,6.11-.53,9.17"/><path class="cls-1" d="M15.67,52.47c-1.55,2.84-.44,6.19,1.89,7.34a5.19,5.19,0,0,0,5.81-1.18"/><path class="cls-1" d="M31.65,52.47c1.55,2.84.44,6.19-1.89,7.34A5.18,5.18,0,0,1,24,58.63"/><line class="cls-1" x1="55.97" y1="1.5" x2="55.97" y2="11"/><line class="cls-1" x1="51.47" y1="6" x2="60.47" y2="6"/><line class="cls-1" x1="73.47" y1="8.5" x2="73.47" y2="14.83"/><line class="cls-1" x1="70.47" y1="11.5" x2="76.47" y2="11.5"/></g></g></svg>