<svg xmlns="http://www.w3.org/2000/svg" viewBox="0 0 85.72 87"><defs><style>.cls-1{fill:none;stroke:#000;stroke-linecap:round;stroke-linejoin:round;stroke-width:3px;}</style></defs><g id="Layer_2" data-name="Layer 2"><g id="레이어_1" data-name="레이어 1"><path class="cls-1" d="M60.3,66.88,78.92,85.5a7.6,7.6,0,0,0,5.3-5.3L64.87,61.63,62.48,64,60,66.54"/><path class="cls-1" d="M44.55,47.76C40.9,46.3,36.69,43,36.23,39a2.48,2.48,0,0,1,.19-1.43,2.38,2.38,0,0,1,1.39-1.11c3.08-1.11,5.22,2,8.14,1.31a3.94,3.94,0,0,0,2.61-2,4.06,4.06,0,0,0,0-3c-1.22-3.74-7.52-7.23-13.27-6.26a11.46,11.46,0,0,0-5.58,2.64,12.68,12.68,0,0,0-3.4,5.83C25,40.16,28.29,47.51,35,53.73"/><path class="cls-1" d="M42.31,41.55c.23.11,4.27,2,7.85-.35a8.24,8.24,0,0,0,3.13-9.4"/><path class="cls-1" d="M42.4,32.38a8.7,8.7,0,0,0-6.37-1,7.57,7.57,0,0,0-4.79,4c-1.85,4.11,2.29,11.13,10.59,16.91"/><path class="cls-1" d="M24.32,47.28A18.47,18.47,0,0,1,21.38,34.6a14.19,14.19,0,0,1,4.19-8.55,15.67,15.67,0,0,1,7.79-3.7,22.32,22.32,0,0,1,11.21.5"/><path class="cls-1" d="M18.05,28.77a17.12,17.12,0,0,1,5.15-7.5,18.45,18.45,0,0,1,7.6-3.64,23.45,23.45,0,0,1,9.1-.47"/><path class="cls-1" d="M67.38,27.85A33.31,33.31,0,1,0,67.7,40M11.75,21.85a26.25,26.25,0,1,1-2.67,6.92"/><line class="cls-1" x1="57.52" y1="59.15" x2="62.53" y2="63.97"/></g></g></svg>