<svg xmlns="http://www.w3.org/2000/svg" viewBox="0 0 89.3 69.5"><defs><style>.cls-1{fill:none;stroke:#000;stroke-linecap:round;stroke-linejoin:round;stroke-width:3px;}</style></defs><g id="Layer_2" data-name="Layer 2"><g id="레이어_1" data-name="레이어 1"><polyline class="cls-1" points="82.61 1.5 82.61 52.41 8.45 52.41 8.45 1.5 55.02 1.5"/><line class="cls-1" x1="55.02" y1="1.5" x2="74.94" y2="1.5"/><rect class="cls-1" x="13.75" y="7.21" width="63.61" height="40"/><path class="cls-1" d="M19.53,68H7.73a11.1,11.1,0,0,1-3.18-2.34,11.74,11.74,0,0,1-3-7H87.8S86.7,65.92,81.51,68H29.85"/><path d="M28.49,20.64V33.15H26.64V20.64Z"/><path d="M35.74,27.74v1.59H31V27.74Z"/><path d="M38.19,20.64H43c2.48,0,4.17,1.39,4.17,3.69,0,2.49-1.81,3.77-4.26,3.77H40.06v5H38.19Zm1.87,5.92H42.8c1.62,0,2.49-.77,2.49-2.19a2.13,2.13,0,0,0-2.43-2.19h-2.8Z"/><path d="M51.32,20.64V33.15H49.46V20.64Z"/><path d="M54.65,33.15V20.64h2.41c1.75,2.91,5.46,8.91,6.14,10.27h0c-.12-1.55-.11-3.56-.11-5.61V20.64h1.73V33.15H62.57C61,30.49,57.07,24,56.32,22.55h0c.09,1.36.1,3.57.1,5.82v4.78Z"/></g></g></svg>