<svg xmlns="http://www.w3.org/2000/svg" viewBox="0 0 91 64"><defs><style>.cls-1{fill:#fff;}.cls-1,.cls-2{stroke:#000;stroke-linecap:round;stroke-linejoin:round;stroke-width:3px;}.cls-2{fill:none;}</style></defs><g id="Layer_2" data-name="Layer 2"><g id="레이어_1" data-name="레이어 1"><circle class="cls-1" cx="25.45" cy="22.25" r="7.25"/><path class="cls-1" d="M39.94,49.41H11.38a14,14,0,0,1,1.7-8.53c3.84-6.61,11.84-6.82,12.37-6.82s8.27,0,12.36,6.39A14.3,14.3,0,0,1,39.94,49.41Z"/><path class="cls-2" d="M56.11,62.5H15.67A14.22,14.22,0,0,1,1.5,48.33V15.67A14.18,14.18,0,0,1,7.81,3.9"/><line class="cls-2" x1="56.87" y1="62.5" x2="56.11" y2="62.5"/><path class="cls-2" d="M15.67,1.5H75.33A14.22,14.22,0,0,1,89.5,15.67V48.33A14.22,14.22,0,0,1,75.33,62.5H66.26"/><line class="cls-2" x1="50.5" y1="23.5" x2="78.5" y2="23.5"/><line class="cls-2" x1="50.5" y1="32.5" x2="78.5" y2="32.5"/><line class="cls-2" x1="50.5" y1="41.5" x2="78.5" y2="41.5"/></g></g></svg>