<svg xmlns="http://www.w3.org/2000/svg" viewBox="0 0 74.29 89.08"><defs><style>.cls-1,.cls-2,.cls-3{fill:none;}.cls-1,.cls-2,.cls-3,.cls-4{stroke:#000;stroke-width:3px;}.cls-1,.cls-3,.cls-4{stroke-linecap:round;}.cls-1,.cls-2{stroke-miterlimit:10;}.cls-3,.cls-4{stroke-linejoin:round;}.cls-4{fill:#fff;}</style></defs><g id="Layer_2" data-name="Layer 2"><g id="레이어_1" data-name="레이어 1"><path class="cls-1" d="M27.29,86.19l-10.5,1.34a5.6,5.6,0,0,1-6.28-4.86l-9-70.19A5.6,5.6,0,0,1,6.41,6.2L42.84,1.55a5.62,5.62,0,0,1,6.29,4.86l1.33,10.43"/><line class="cls-2" x1="43.63" y1="84.62" x2="31.29" y2="86.19"/><path class="cls-1" d="M51.79,27.25l6.3,49.35a5.62,5.62,0,0,1-4.86,6.28l-13.6,1.74"/><circle cx="31.79" cy="7.45" r="1"/><line class="cls-3" x1="21.79" y1="8.95" x2="27.29" y2="8.17"/><line class="cls-3" x1="1.97" y1="15.78" x2="49.45" y2="8.95"/><line class="cls-3" x1="14.97" y1="79.78" x2="61.29" y2="73.45"/><line class="cls-3" x1="8.79" y1="31.95" x2="12.79" y2="65.95"/><line class="cls-3" x1="7.79" y1="26.95" x2="7.29" y2="23.45"/><circle class="cls-4" cx="53.29" cy="67.45" r="19.5"/><path class="cls-4" d="M45,66.09l7,10.27,10.63-15.5"/></g></g></svg>