<svg xmlns="http://www.w3.org/2000/svg" viewBox="0 0 609.42 617.49"><defs><style>.cls-1{fill:#003a5e;}</style></defs><g id="Layer_2" data-name="Layer 2"><g id="Layer_1-2" data-name="Layer 1"><polygon class="cls-1" points="126.72 181.26 179.08 271.94 283.61 90.68 231.25 0 126.72 181.26"/><polygon class="cls-1" points="274.37 181.89 483.61 181.78 535.96 91.1 326.72 91.21 274.37 181.89"/><polygon class="cls-1" points="0 217.68 104.71 398.68 209.42 398.68 104.71 217.68 0 217.68"/><polygon class="cls-1" points="253.4 218.68 201.05 309.18 253.4 399.68 358.12 399.68 410.47 309.18 358.12 218.68 253.4 218.68"/><polygon class="cls-1" points="400 217.68 504.71 398.68 609.42 398.68 504.71 217.68 400 217.68"/><polygon class="cls-1" points="283.61 527.33 335.96 436.65 126.72 436.76 74.37 527.44 283.61 527.33"/><polygon class="cls-1" points="326.72 526.81 379.08 617.49 483.61 436.23 431.25 345.55 326.72 526.81"/></g></g></svg>