<svg xmlns="http://www.w3.org/2000/svg" xmlns:xlink="http://www.w3.org/1999/xlink" viewBox="0 0 327.02 145.59"><defs><style>.cls-1{fill:none;}.cls-2{isolation:isolate;}.cls-3{fill:url(#linear-gradient);}.cls-4{clip-path:url(#clip-path);}.cls-5{fill:url(#linear-gradient-2);}.cls-6{fill:url(#linear-gradient-3);}.cls-7{mix-blend-mode:screen;fill:url(#linear-gradient-4);}.cls-8{fill:url(#linear-gradient-5);}.cls-9{fill:url(#linear-gradient-6);}.cls-10{mix-blend-mode:multiply;}.cls-11{fill:url(#linear-gradient-7);}</style><linearGradient id="linear-gradient" x1="200.27" y1="4.63" x2="200.27" y2="102.39" gradientUnits="userSpaceOnUse"><stop offset="0" stop-color="#fff"/><stop offset="0.3" stop-color="#fbfbfb"/><stop offset="0.62" stop-color="#eee"/><stop offset="0.94" stop-color="#dadada"/><stop offset="1" stop-color="#d5d5d5"/></linearGradient><clipPath id="clip-path" transform="translate(73.52)"><rect class="cls-1" width="253.5" height="75.3"/></clipPath><linearGradient id="linear-gradient-2" x1="108.68" y1="31.36" x2="108.68" y2="119.36" gradientUnits="userSpaceOnUse"><stop offset="0" stop-color="#4a4b4c"/><stop offset="0.72" stop-color="#020104"/><stop offset="1" stop-color="#4a4b4c"/></linearGradient><linearGradient id="linear-gradient-3" x1="91.29" y1="8.21" x2="91.29" y2="23.48" xlink:href="#linear-gradient-2"/><linearGradient id="linear-gradient-4" x1="167.05" y1="11.87" x2="167.05" y2="71.36" xlink:href="#linear-gradient-2"/><linearGradient id="linear-gradient-5" x1="69.49" y1="69.63" x2="-108.56" y2="69.63" gradientUnits="userSpaceOnUse"><stop offset="0.34" stop-color="#00a2f4"/><stop offset="0.47" stop-color="#3cb8f7"/><stop offset="0.66" stop-color="#8fd6fa"/><stop offset="0.82" stop-color="#cbecfd"/><stop offset="0.94" stop-color="#f1fafe"/><stop offset="1" stop-color="#fff"/></linearGradient><linearGradient id="linear-gradient-6" x1="-85.94" y1="7.98" x2="-85.94" y2="59.28" gradientTransform="translate(66.01 36)" xlink:href="#linear-gradient-2"/><linearGradient id="linear-gradient-7" x1="155" y1="33.8" x2="155" y2="145.59" gradientUnits="userSpaceOnUse"><stop offset="0.27" stop-color="#dbdbdb"/><stop offset="0.62" stop-color="#d8dada"/><stop offset="0.76" stop-color="#d4d8d9"/><stop offset="0.77" stop-color="#d6dadb"/><stop offset="0.9" stop-color="#e6e7e7"/><stop offset="1" stop-color="#ececec"/></linearGradient></defs><g class="cls-2"><g id="Layer_2" data-name="Layer 2"><g id="Layer_1-2" data-name="Layer 1"><rect class="cls-3" x="73.52" width="253.5" height="75.3"/><g class="cls-4"><polygon class="cls-5" points="81.86 119.36 55.05 75.36 81.86 31.36 135.5 31.36 162.31 75.36 135.5 119.36 81.86 119.36"/><polygon class="cls-6" points="86.63 23.48 81.98 15.84 86.63 8.21 95.94 8.21 100.59 15.84 95.94 23.48 86.63 23.48"/><polygon class="cls-7" points="123.03 71.36 104.9 41.62 123.03 11.87 211.07 11.87 229.2 41.62 211.07 71.36 123.03 71.36"/><path class="cls-8" d="M17.87,44.25,33.34,69.63,17.87,95H-57.74L-73.22,69.63l15.48-25.38H17.87M18,44H-57.89L-73.52,69.63l15.63,25.65H18L33.65,69.63,18,44Z" transform="translate(73.52)"/><path class="cls-9" d="M17.87,44.25,33.34,69.63,17.87,95H-57.74L-73.22,69.63l15.48-25.38H17.87M18,44H-57.89L-73.52,69.63l15.63,25.65H18L33.65,69.63,18,44Z" transform="translate(73.52)"/><g class="cls-10"><polygon class="cls-11" points="120.93 145.59 86.87 89.69 120.93 33.8 189.07 33.8 223.13 89.69 189.07 145.59 120.93 145.59"/></g></g></g></g></g></svg>