<svg xmlns="http://www.w3.org/2000/svg" viewBox="0 0 109.12 67.83"><defs><style>.cls-1{fill:none;stroke:#231815;stroke-miterlimit:10;}</style></defs><g id="레이어_2" data-name="레이어 2"><g id="레이어_1-2" data-name="레이어 1"><path class="cls-1" d="M107.1,6.82a5.36,5.36,0,0,0,1.52-3.76A5.41,5.41,0,0,0,108,.5C105.69,3.17,94.66,13.7,78.5,15.12V13.61a.11.11,0,0,0-.12-.12H61c-.13-.81-.23-1.6-.33-2.28h0l0-.2a23.48,23.48,0,0,0-.8-4.14,6,6,0,0,0,1.86-2.21,5.72,5.72,0,0,0,.64-2.58V1.88L62.21,2a5.23,5.23,0,0,1-.81.36,10.92,10.92,0,0,1-4.64.48,26.64,26.64,0,0,0-3.37-.09A9.83,9.83,0,0,0,51,3.07a4.33,4.33,0,0,0-1.56.81,3.55,3.55,0,0,0-.68.79,11.08,11.08,0,0,0-3.26.3,2.49,2.49,0,0,0-1.43.9,2.78,2.78,0,0,0-.49,1.67v0h0A6.18,6.18,0,0,0,43.9,9.4a5.37,5.37,0,0,0,1.54,2.29l.14.12,0-.18c0-.05.18-1.14,1.8-1.17h.54a1,1,0,0,1,.76.26.92.92,0,0,1,.09.74,13.89,13.89,0,0,1-.41,1.75h0a1.6,1.6,0,0,0-.08.27H30.74a.11.11,0,0,0-.12.12v1.51C14.47,13.7,3.43,3.17,1.1.5A5.56,5.56,0,0,0,.5,3.06,5.38,5.38,0,0,0,2,6.82s0,0,0,0A6.2,6.2,0,0,0,4.12,14,8.12,8.12,0,0,0,4,15.24c0,1.62.58,4,3.56,6l.34.23c0,.63,0,5.31,6.74,7,.66,1.93,2.5,4.37,7,4.68a6.09,6.09,0,0,0,5.59,3.09,5.14,5.14,0,0,0,3.13,2,6.38,6.38,0,0,0,2.75.06,5.56,5.56,0,0,0,1.51.81,0,0,0,0,0,0,0,4,4,0,0,0-1.47,2.13c-.44,1.34-.44,2.62,1,4.46a5,5,0,0,1,.89,1.87A11.4,11.4,0,0,1,35.23,50a4.27,4.27,0,0,0,.4,1.83,3.64,3.64,0,0,0,1.13,1.38,3.42,3.42,0,0,0,.93.48,3.14,3.14,0,0,0-.47.93,3.69,3.69,0,0,0-.11,1.78,4.25,4.25,0,0,0,.76,1.72,12.14,12.14,0,0,1,1.27,2,4.83,4.83,0,0,1,.38,2c-.06,2.32.69,3.35,1.83,4.18s2.35,1.23,4.55.46A4.92,4.92,0,0,1,48,66.53a10.08,10.08,0,0,1,2.34.58,4,4,0,0,0,1.88.17,3.54,3.54,0,0,0,1.65-.63,3.29,3.29,0,0,0,.74-.75,3.29,3.29,0,0,0,.74.75,3.58,3.58,0,0,0,1.66.63,4,4,0,0,0,1.87-.17,10.2,10.2,0,0,1,2.34-.58,4.91,4.91,0,0,1,2,.27c2.19.77,3.4.37,4.55-.46s1.89-1.86,1.84-4.18a4.83,4.83,0,0,1,.37-2,11.67,11.67,0,0,1,1.28-2A4.23,4.23,0,0,0,72,56.36a3.58,3.58,0,0,0-.11-1.78,3.14,3.14,0,0,0-.47-.93,3.28,3.28,0,0,0,.93-.48,3.55,3.55,0,0,0,1.13-1.38,4.12,4.12,0,0,0,.4-1.83,11.3,11.3,0,0,1,.18-2.41A4.83,4.83,0,0,1,75,45.68c1.41-1.84,1.41-3.12,1-4.46a3.93,3.93,0,0,0-1.47-2.13h0A6.08,6.08,0,0,0,76,38.27a6.34,6.34,0,0,0,2.74-.06,5.19,5.19,0,0,0,3.14-2,6.09,6.09,0,0,0,5.58-3.09c4.51-.31,6.35-2.75,7-4.68,6.7-1.65,6.78-6.33,6.73-7l.34-.23c3-2,3.57-4.39,3.57-6A6,6,0,0,0,105,14a6.19,6.19,0,0,0,2.09-7.14Zm-25.53,18H74.34l0-.05L78,17Zm2.73-4.07a12.7,12.7,0,0,1-3.37.62l-1.15-2.45a53.37,53.37,0,0,0,7.58-1.61A4.24,4.24,0,0,1,84.3,20.71Zm.71.61a4.4,4.4,0,0,1-2.57,3.24L81.3,22.12a12.22,12.22,0,0,0,3.29-.64ZM66,37.61a.44.44,0,0,0-.29-.11.3.3,0,0,0-.13,0,.32.32,0,0,0-.16.09l-4,4a8.07,8.07,0,0,0-.9-.85l3.53-4.72a2.65,2.65,0,0,1,2-1.18A2.62,2.62,0,0,1,68.21,36,11.49,11.49,0,0,0,70,38.1l-7.33,5.12a10,10,0,0,0-.76-1.08l4.07-4a.4.4,0,0,0,.12-.28A.56.56,0,0,0,66,37.61Zm-4.7-3.32a.38.38,0,0,0-.2-.23.44.44,0,0,0-.32,0,.38.38,0,0,0-.23.2L58,39.33a10.7,10.7,0,0,0-1.25-.4c1-3.37,2.15-7.07,2.6-8.55a11.78,11.78,0,0,0,2.51,1.05,2.6,2.6,0,0,1,1.75,1.69,2.67,2.67,0,0,1-.5,2.27l-3.4,4.81a11.4,11.4,0,0,0-1.08-.6l2.6-5a.38.38,0,0,0,0-.19A.3.3,0,0,0,61.27,34.29Zm-6.71-4.06a.44.44,0,0,0-.43.45l.08,8a8,8,0,0,0-1.2.11c-1-3.56-2.21-7.51-2.62-8.87a6.14,6.14,0,0,0,1.16-1.25c1.23-1.69,2.13-1.78,3-1.78s1.78.09,3,1.78a6.39,6.39,0,0,0,1.14,1.25c-.4,1.36-1.56,5.31-2.6,8.87a8.12,8.12,0,0,0-1.21-.11l.09-8A.45.45,0,0,0,54.56,30.23Zm-6.68,4.38,2.6,5a10.43,10.43,0,0,0-1.09.6L46,35.39a2.6,2.6,0,0,1-.5-2.27,2.57,2.57,0,0,1,1.74-1.69,11.56,11.56,0,0,0,2.51-1.05l2.61,8.55a10.86,10.86,0,0,0-1.26.4l-2.49-5.09a.4.4,0,0,0-.24-.2.44.44,0,0,0-.32,0,.41.41,0,0,0-.2.23.59.59,0,0,0,0,.13A.3.3,0,0,0,47.88,34.61Zm-4.73,3.58,4.07,4a11.64,11.64,0,0,0-.76,1.08L39.13,38.1A11.1,11.1,0,0,0,40.91,36a2.43,2.43,0,0,1,4.14,0l3.54,4.72a10.41,10.41,0,0,0-.91.85l-4-4a.28.28,0,0,0-.16-.09.27.27,0,0,0-.13,0,.44.44,0,0,0-.29.11.48.48,0,0,0-.11.3A.36.36,0,0,0,43.15,38.19ZM73.48,20.13A5.37,5.37,0,0,1,76,19.25l-.69,1.46A13.23,13.23,0,0,1,73.48,20.13Zm1.44,1.31-.87,1.86a25,25,0,0,1-2.42-1.4,1.83,1.83,0,0,1,.13-.16,7,7,0,0,1,1-1A16,16,0,0,0,74.92,21.44ZM71,21.14A10.08,10.08,0,0,1,64.14,25c-.28-.85-.56-1.68-.83-2.51A10.82,10.82,0,0,0,70,19.17a8,8,0,0,1,6.07-2.85c.42,0,.84,0,1.26,0l-.94,2A6.72,6.72,0,0,0,71,21.14ZM64.7,32.83l0-.06a3.62,3.62,0,0,0,.45-.74c.17.66.29,1.26.38,1.8a3.38,3.38,0,0,0-.48.11l-.17.07c0-.06,0-.12,0-.18A3.27,3.27,0,0,0,64.7,32.83Zm-.34-.72a3.71,3.71,0,0,0-1.82-1.52A4.36,4.36,0,0,0,64,28.11c.35,1.07.67,2.09.94,3A4,4,0,0,1,64.36,32.11ZM44.27,34l-.17-.07a3.38,3.38,0,0,0-.48-.11A17.79,17.79,0,0,1,44,32a3.62,3.62,0,0,0,.45.74.14.14,0,0,0,0,.06,3,3,0,0,0-.16,1Zm0-2.87c.26-.94.58-2,.93-3a4.45,4.45,0,0,0,1.42,2.48,3.73,3.73,0,0,0-1.83,1.52A4,4,0,0,1,44.24,31.14ZM45.55,27c.07-.24.15-.48.23-.71l0-.05L46.53,24h0A5.5,5.5,0,0,0,48,27a3.82,3.82,0,0,1-1.23,2.8A3.86,3.86,0,0,1,45.55,27Zm2.76,1.38A3.91,3.91,0,0,0,49,29.62a10.4,10.4,0,0,1-1.84.75A4.58,4.58,0,0,0,48.31,28.36Zm.32-1.07A4.44,4.44,0,0,0,50,25.11a4.33,4.33,0,0,0,1.34,2l.09.07a7.87,7.87,0,0,0-.72.9,5.42,5.42,0,0,1-1,1.12A2.89,2.89,0,0,1,48.63,27.29ZM50.25,24a4.29,4.29,0,0,0,1.27-2.1A4.22,4.22,0,0,0,52.79,24a4.12,4.12,0,0,1-1.27,2.39A4.12,4.12,0,0,1,50.25,24Zm2.87.89a4.86,4.86,0,0,0,.55,1,3.5,3.5,0,0,0-1,.34,2.69,2.69,0,0,0-.29.16A5.31,5.31,0,0,0,53.12,24.85Zm.26-1a4.4,4.4,0,0,0,1.18-2,4.48,4.48,0,0,0,1.19,2,4.14,4.14,0,0,1-1.07,1.94h-.24A4.23,4.23,0,0,1,53.38,23.89Zm2.63,1a4.85,4.85,0,0,0,.76,1.55l-.29-.16a3.66,3.66,0,0,0-1-.34A4.85,4.85,0,0,0,56,24.85Zm.32-.89a4.22,4.22,0,0,0,1.27-2.1A4.29,4.29,0,0,0,58.87,24a4,4,0,0,1-1.27,2.39A4.12,4.12,0,0,1,56.33,24Zm1.44,3.15a4.25,4.25,0,0,0,1.34-2,4.35,4.35,0,0,0,1.39,2.18,2.93,2.93,0,0,1-1,1.91,5.44,5.44,0,0,1-1.05-1.12,7.87,7.87,0,0,0-.72-.9Zm3,1.25a4.58,4.58,0,0,0,1.11,2,11.21,11.21,0,0,1-1.85-.75A3.44,3.44,0,0,0,60.81,28.36ZM61.13,27a5.51,5.51,0,0,0,1.45-3h0c.24.73.49,1.48.74,2.21v.05l.24.71a3.89,3.89,0,0,1-1.23,2.86A3.82,3.82,0,0,1,61.13,27Zm8-8.67a10,10,0,0,1-6.18,2.93c-.39-1.26-.76-2.48-1.06-3.59l8.83-.79A13.37,13.37,0,0,0,69.11,18.37Zm-6.75,4.92a1.19,1.19,0,0,1-.22.2A3.74,3.74,0,0,1,60.88,21a3.49,3.49,0,0,0,.55-.62C61.72,21.31,62,22.29,62.36,23.29Zm-.37,1a4.36,4.36,0,0,1-1.32,2.27,4,4,0,0,1-1.27-2.59,4.38,4.38,0,0,0,1.18-1.87A4.11,4.11,0,0,0,62,24.26Zm-2.87-1a3.66,3.66,0,0,1-1.18-2.36,4.47,4.47,0,0,0,1.18-2.05,4.65,4.65,0,0,0,1.19,2.05A3.71,3.71,0,0,1,59.12,23.27Zm-1.52-3a3.68,3.68,0,0,1-1.18-2.33,4.37,4.37,0,0,0,1.18-2,4.45,4.45,0,0,0,1.19,2A3.72,3.72,0,0,1,57.6,20.27Zm-.33.64a3.71,3.71,0,0,1-1.19,2.36,3.66,3.66,0,0,1-1.18-2.36,4.56,4.56,0,0,0,1.18-2.05A4.65,4.65,0,0,0,57.27,20.91Zm-2.71-.64a3.68,3.68,0,0,1-1.18-2.33,4.37,4.37,0,0,0,1.18-2,4.37,4.37,0,0,0,1.18,2A3.63,3.63,0,0,1,54.56,20.27Zm-.33.64A3.71,3.71,0,0,1,53,23.27a3.71,3.71,0,0,1-1.19-2.36A4.55,4.55,0,0,0,53,18.86,4.55,4.55,0,0,0,54.23,20.91Zm-2.71-.64a3.67,3.67,0,0,1-1.19-2.33,4.37,4.37,0,0,0,1.19-2,4.37,4.37,0,0,0,1.18,2A3.68,3.68,0,0,1,51.52,20.27Zm-.33.64A3.71,3.71,0,0,1,50,23.27a3.71,3.71,0,0,1-1.19-2.36A4.55,4.55,0,0,0,50,18.86,4.46,4.46,0,0,0,51.19,20.91Zm-1.46,3a4,4,0,0,1-1.28,2.59,4.5,4.5,0,0,1-1.32-2.27h0a4.16,4.16,0,0,0,1.42-2.19A4.19,4.19,0,0,0,49.73,23.94ZM47,23.49a1.19,1.19,0,0,1-.23-.2c.33-1,.64-2,.93-2.92a3.08,3.08,0,0,0,.56.62A3.78,3.78,0,0,1,47,23.49Zm-.8-2.19A10,10,0,0,1,40,18.37a12.63,12.63,0,0,0-1.59-1.45l8.83.79C47,18.82,46.59,20,46.19,21.3Zm-7.08-2.13a10.77,10.77,0,0,0,6.7,3.31c-.27.83-.55,1.66-.83,2.51a10,10,0,0,1-6.83-3.85,6.75,6.75,0,0,0-5.44-2.83l-.94-2c.42,0,.84,0,1.26,0A8,8,0,0,1,39.11,19.17Zm-3.46,1a14.22,14.22,0,0,1-1.8.58l-.69-1.46A5.45,5.45,0,0,1,35.65,20.13Zm.73.57a7.56,7.56,0,0,1,1,1l.12.16a23.79,23.79,0,0,1-2.42,1.4l-.88-1.86A15.29,15.29,0,0,0,36.38,20.7Zm-.55,4.21L35.42,24A23.64,23.64,0,0,0,38,22.52a11.07,11.07,0,0,0,1.11,1.06c-.94,1.12-3.89,4.23-7.7,4.18a4.42,4.42,0,0,1-3.83-1.88,7.76,7.76,0,0,0,3.57.87,7.68,7.68,0,0,0,4.6-1.5A.24.24,0,0,0,35.83,24.91Zm3.93-.83a8.87,8.87,0,0,0,1.28.77c-.54,1-2.6,4.47-6,5a3.35,3.35,0,0,1-3.53-1.32C35.76,28.6,38.82,25.23,39.76,24.08Zm2,1.11a11.94,11.94,0,0,0,1.5.48c-.38,1.15-1.5,4-3.49,5.13a3.28,3.28,0,0,1-3.93-.25C39.35,29.59,41.28,26.15,41.77,25.19ZM40.21,31.5c2.34-1.34,3.49-4.5,3.86-5.68a6,6,0,0,0,.61.08c-.63,1.89-1.24,3.72-1.67,5.32a3.29,3.29,0,0,1-3.19.48Zm24.23-5.6a5.63,5.63,0,0,0,.61-.08c.37,1.18,1.53,4.34,3.86,5.68l.39.2a3.3,3.3,0,0,1-3.19-.48C65.68,29.62,65.07,27.79,64.44,25.9Zm1.41-.23a12.64,12.64,0,0,0,1.51-.48c.48,1,2.41,4.4,5.91,5.36a3.27,3.27,0,0,1-3.93.25C67.35,29.65,66.23,26.82,65.85,25.67Zm2.23-.82a7.9,7.9,0,0,0,1.28-.77c.94,1.15,4,4.52,8.27,4.5a3.34,3.34,0,0,1-3.52,1.32C70.68,29.32,68.62,25.87,68.08,24.85ZM70,23.58a12.26,12.26,0,0,0,1.11-1.06A23.25,23.25,0,0,0,73.7,24l-.41.87a.24.24,0,0,0,.06.34,7.71,7.71,0,0,0,4.6,1.5,7.81,7.81,0,0,0,3.58-.87,4.42,4.42,0,0,1-3.83,1.88C73.88,27.81,70.94,24.7,70,23.58Zm7.4-8.95v.54s-12.59,1-15.84,1.31c-.14-.59-.25-1.14-.33-1.63h0a1.43,1.43,0,0,0,0-.22Zm-16.19,5a2,2,0,0,1-.57.65,3.63,3.63,0,0,1-1.18-2.33,3.71,3.71,0,0,0,.92-1.44C60.58,17.44,60.87,18.5,61.21,19.62ZM48,9.3H47.4c-.28,0-1.52,0-1.87.77a4.6,4.6,0,0,1-.59-1.17,4.18,4.18,0,0,1-.22-1.34,1.73,1.73,0,0,1,.26-1,1.41,1.41,0,0,1,.8-.46,9.83,9.83,0,0,1,3-.27h.3a4.35,4.35,0,0,1,2.39,1.87,9.38,9.38,0,0,0,4.36-2.2,29.32,29.32,0,0,1-6,0,.11.11,0,0,1-.08-.17l0-.06s0,0,0,0a2.56,2.56,0,0,1,1.56-1h0a8.93,8.93,0,0,1,2.1-.29A30.73,30.73,0,0,1,56.67,4a13.58,13.58,0,0,0,4.18-.26A4.55,4.55,0,0,1,59.11,6h0l-.32.23-.36.24.16.4.16.35a21.42,21.42,0,0,1,.75,4l0,.2c.15,1.09.33,2.38.55,3.69a.17.17,0,0,1,0,.07,3,3,0,0,1-1,2.2h0a3.87,3.87,0,0,1-1.21-2.95h-.59a3.87,3.87,0,0,1-1.22,2.95h0a3.94,3.94,0,0,1-1.22-2.95h-.58a3.91,3.91,0,0,1-1.22,2.95h0a3.87,3.87,0,0,1-1.21-2.95h-.59A3.91,3.91,0,0,1,50,17.31h0a3,3,0,0,1-1-2.08c.2-.77.45-1.65.46-1.69a17.2,17.2,0,0,0,.45-1.9h0A2.08,2.08,0,0,0,49.6,10,2.12,2.12,0,0,0,48,9.3Zm.76,7.2a3.49,3.49,0,0,0,.92,1.44,3.67,3.67,0,0,1-1.19,2.33,2.15,2.15,0,0,1-.57-.65C48.25,18.5,48.54,17.44,48.75,16.5Zm-17-1.87H48c-.09.32-.16.65-.22.91h0c0,.29-.12.6-.2.92L31.72,15.17ZM31.17,17l3.59,7.78,0,.05H27.55Zm-6.64,4.53a12.37,12.37,0,0,0,3.29.64l-1.14,2.44a4.39,4.39,0,0,1-2.56-3.24Zm-2.77-4.21a53.37,53.37,0,0,0,7.58,1.61L28.2,21.33a12.85,12.85,0,0,1-3.38-.62A4.25,4.25,0,0,1,21.76,17.27ZM1.69,2.76C8.44,9.63,20,15.48,30.58,16.24L29.74,18a49.77,49.77,0,0,1-27-12.19A3.17,3.17,0,0,1,1.69,2.76ZM3,7.41A51,51,0,0,0,20.87,17a5,5,0,0,0,1.48,3.17c-5.62-.68-13.28-3.35-17.46-7C2.29,10.86,2.59,8.6,3,7.41Zm2.15,7.18c4.83,3.73,12.62,6,18,6.48a6.37,6.37,0,0,0,1.22,2.79c-4.89.37-11.46-.39-16.19-3.57C5.18,18.25,5,15.81,5.16,14.59ZM13.6,27C11.11,26.09,9.36,24.4,9.11,22c5,2.71,11.39,3.15,16.05,2.67a5,5,0,0,0,1.2.7,4.94,4.94,0,0,0,1.24,1.83C25.76,27.7,19.53,29.29,13.6,27Zm8.56,5C19,31.89,17,30.81,16,28.74a23.33,23.33,0,0,0,12.36-1,5.32,5.32,0,0,0,2.1.76,4.43,4.43,0,0,0,.86,1.16A18,18,0,0,1,22.16,32Zm.77,1a18.78,18.78,0,0,0,9.13-2.78,4.24,4.24,0,0,0,2.8.52,4.45,4.45,0,0,0,.61.55,13.56,13.56,0,0,1-6.89,3.6C26,35.34,24.18,34.71,22.93,33Zm7.85,4.16a3.93,3.93,0,0,1-2.31-1.24,13.37,13.37,0,0,0,7.75-4.16,3.87,3.87,0,0,0,2.61.31,2.2,2.2,0,0,0,.71.41C38.59,33.77,35.31,37.72,30.78,37.15Zm3.7.58a12.94,12.94,0,0,0,6-5,4.12,4.12,0,0,0,2.28-.31,12.93,12.93,0,0,0-.26,1.46,3.88,3.88,0,0,0-2.37,1.58c-1.2,1.63-1.85,2.37-3.45,2.88h0A5.23,5.23,0,0,1,34.48,37.73ZM35.1,45c-1.24-1.69-1-2.58-.76-3.41S35,39.92,37,39.27a6.35,6.35,0,0,0,1.55-.7l7.63,5.23a7.23,7.23,0,0,0-.49,1.1l-7.59-2.55a.44.44,0,1,0-.27.83l7.64,2.39a9.37,9.37,0,0,0-.25,1.17c-3.73-.09-7.83-.21-9.25-.25A6.57,6.57,0,0,0,35.1,45Zm2.35,7.13A2.58,2.58,0,0,1,36.38,50a12,12,0,0,0-.21-2.71l8.93.16c0,.25,0,.5,0,.76s0,.37,0,.56l-5.61.79a.39.39,0,0,0-.27.17.42.42,0,0,0-.08.3.44.44,0,0,0,.16.27.34.34,0,0,0,.12.06.32.32,0,0,0,.19,0l5.55-.93a12.32,12.32,0,0,0,.24,1.21l-5.63,1.74A2.58,2.58,0,0,1,37.45,52.14ZM38.8,57.4a2.42,2.42,0,0,1,1.32-3.92l5.58-1.91a11.55,11.55,0,0,0,.52,1.13l-5,2.5a.42.42,0,0,0-.14.12.31.31,0,0,0-.06.13.39.39,0,0,0,.27.51.35.35,0,0,0,.31,0l5-2.64a11.42,11.42,0,0,0,.78,1.05l-7.13,5.39A11.94,11.94,0,0,0,38.8,57.4Zm8.41,8a6.49,6.49,0,0,0-1.66.33c-2,.65-2.78.18-3.49-.33s-1.39-1.12-1.39-3.21a6.64,6.64,0,0,0-.2-1.69l7.33-5.65a8.86,8.86,0,0,0,.91.82l-4.79,6.42a.44.44,0,0,0,.72.51l4.63-6.52a9.76,9.76,0,0,0,1,.61C49.06,60.16,47.69,64,47.21,65.37ZM54,63.53A2.44,2.44,0,0,1,50.65,66,11.48,11.48,0,0,0,48,65.38c.51-1.47,1.76-5.11,2.92-8.45a8.34,8.34,0,0,0,1.25.42l-1,5.58a.39.39,0,0,0,.07.3.44.44,0,0,0,.28.17.37.37,0,0,0,.29-.06.35.35,0,0,0,.1-.11.29.29,0,0,0,.07-.17l.83-5.57a10.09,10.09,0,0,0,1.23.16Zm.58-15.36a4.22,4.22,0,0,1-7-4.69h0A8.44,8.44,0,0,1,63,48.17a8.34,8.34,0,0,1-1.42,4.68,4.22,4.22,0,0,0-7-4.68ZM58.47,66a2.43,2.43,0,0,1-3.32-2.48l-.09-5.88a9.84,9.84,0,0,0,1.23-.16l.83,5.57a.38.38,0,0,0,.07.17.52.52,0,0,0,.1.11.42.42,0,0,0,.57-.11.39.39,0,0,0,.07-.3l-1-5.58a9.66,9.66,0,0,0,1.25-.42c1.15,3.34,2.41,7,2.92,8.45A11.44,11.44,0,0,0,58.47,66Zm10-3.85c0,2.09-.68,2.69-1.4,3.21s-1.49,1-3.48.33a6.56,6.56,0,0,0-1.67-.33c-.48-1.34-1.85-5.21-3.1-8.71a9.76,9.76,0,0,0,1-.61l4.64,6.52a.44.44,0,1,0,.71-.51l-4.78-6.42a10.07,10.07,0,0,0,.9-.82c2.95,2.28,6.2,4.79,7.33,5.65A7.15,7.15,0,0,0,68.46,62.16Zm1.86-4.76a12.45,12.45,0,0,0-1.42,2.33l-7.13-5.39a11.52,11.52,0,0,0,.79-1.05l5,2.64a.36.36,0,0,0,.32,0,.43.43,0,0,0,.24-.2.43.43,0,0,0,0-.31l-.06-.13a.61.61,0,0,0-.15-.12l-5-2.5a11.47,11.47,0,0,0,.51-1.13L69,53.48A2.59,2.59,0,0,1,70.74,55,2.55,2.55,0,0,1,70.32,57.4ZM72.74,50a2.43,2.43,0,0,1-3.38,2.4l-5.63-1.74A10,10,0,0,0,64,49.41l5.55.93a.31.31,0,0,0,.19,0,.24.24,0,0,0,.11-.06.39.39,0,0,0,.09-.57.37.37,0,0,0-.26-.17L64,48.73c0-.19,0-.37,0-.56s0-.51,0-.76L73,47.25A12,12,0,0,0,72.74,50Zm2.05-8.36c.27.83.47,1.72-.77,3.41a7,7,0,0,0-.83,1.48c-1.42,0-5.52.16-9.24.25a9.4,9.4,0,0,0-.26-1.17l7.64-2.39a.44.44,0,1,0-.27-.83L63.47,44.9A9.88,9.88,0,0,0,63,43.8l7.63-5.23a6.11,6.11,0,0,0,1.54.7C74.15,39.92,74.52,40.76,74.79,41.6Zm-2.28-3.28h0c-1.6-.51-2.24-1.25-3.45-2.88a3.83,3.83,0,0,0-2.37-1.58,12.93,12.93,0,0,0-.26-1.46,4.12,4.12,0,0,0,2.28.31,13,13,0,0,0,6,5A5.23,5.23,0,0,1,72.51,38.32Zm5.83-1.17c-4.53.57-7.8-3.38-8.75-4.68a2.25,2.25,0,0,0,.7-.41,3.87,3.87,0,0,0,2.61-.31,13.4,13.4,0,0,0,7.75,4.16A3.93,3.93,0,0,1,78.34,37.15Zm2.2-2.27a13.56,13.56,0,0,1-6.89-3.6,4.45,4.45,0,0,0,.61-.55,4.28,4.28,0,0,0,2.81-.52A18.7,18.7,0,0,0,86.2,33C84.94,34.71,83.15,35.34,80.54,34.88ZM87,32a18.06,18.06,0,0,1-9.18-2.34,4,4,0,0,0,.86-1.16,5.26,5.26,0,0,0,2.1-.76,23.33,23.33,0,0,0,12.36,1C92.17,30.81,90.11,31.89,87,32Zm8.56-5c-5.93,2.25-12.16.66-14,.11a5.09,5.09,0,0,0,1.24-1.83,5.19,5.19,0,0,0,1.2-.7c4.65.48,11,0,16-2.67C99.76,24.4,98,26.09,95.52,27Zm5.39-6.75c-4.73,3.18-11.29,3.94-16.18,3.57a6.35,6.35,0,0,0,1.21-2.79c5.4-.45,13.2-2.75,18-6.48C104.11,15.81,103.94,18.25,100.91,20.29Zm3.32-7.15c-4.18,3.67-11.84,6.34-17.46,7A5,5,0,0,0,88.25,17a50.9,50.9,0,0,0,17.86-9.58C106.54,8.6,106.83,10.86,104.23,13.14ZM79.38,18l-.84-1.8c10.62-.76,22.15-6.61,28.9-13.48a3.21,3.21,0,0,1-1,3.09A49.86,49.86,0,0,1,79.38,18Z"/></g></g></svg>