<svg width="640" height="84" viewBox="0 0 640 84" fill="none" xmlns="http://www.w3.org/2000/svg">
<g filter="url(#filter0_d_41_66)">
<path d="M36.627 50.1855C35.7598 49.9043 34.5645 49.6523 33.041 49.4297C31.5176 49.207 30.3105 49.0957 29.4199 49.0957C27.0059 49.1543 24.416 49.7051 21.6504 50.748C18.8848 51.7793 16.5586 53.2441 14.6719 55.1426C12.7969 57.0527 11.8594 59.2383 11.8594 61.6992C11.8594 64.0547 13.1777 65.2324 15.8145 65.2324C17.9355 65.2324 20.1914 64.5762 22.582 63.2637C24.9727 61.9629 27.3633 60.1758 29.7539 57.9023C32.1562 55.6289 34.4473 53.0566 36.627 50.1855ZM37.998 50.6074C36.0762 53.1387 34.1367 55.4121 32.1797 57.4277C30.2344 59.4434 28.3242 61.1367 26.4492 62.5078C24.5859 63.8906 22.7812 64.9277 21.0352 65.6191C19.3008 66.3223 17.6543 66.6738 16.0957 66.6738C12.4043 66.5332 10.5586 64.8047 10.5586 61.4883C10.5586 58.3008 11.9766 55.3242 14.8125 52.5586C16.3828 51.0586 18.2871 49.7168 20.5254 48.5332C22.7637 47.3379 25.1484 46.4062 27.6797 45.7383C30.2109 45.0586 32.7129 44.7188 35.1855 44.7188C36.5332 44.7188 38.3086 44.9062 40.5117 45.2812L45.3281 38.0918C39.2227 36.8027 34.8105 35.7715 32.0918 34.998C29.2559 34.166 26.9121 32.9238 25.0605 31.2715C23.2207 29.6074 22.3008 27.6328 22.3008 25.3477C22.3008 23.6367 22.9453 21.8848 24.2344 20.0918L25.3945 20.5137C25.1484 21.2754 25.0254 21.9023 25.0254 22.3945C25.0254 23.8828 25.7227 25.166 27.1172 26.2441C28.5117 27.3105 30.3105 28.207 32.5137 28.9336C34.7168 29.6602 37.0781 30.2988 39.5977 30.8496C42.1289 31.4004 45.0762 32.0391 48.4395 32.7656L50.5137 29.6719C49.9746 29.5547 48.7676 29.3027 46.8926 28.916C45.0293 28.5176 43.2949 28.125 41.6895 27.7383C40.084 27.3516 38.6367 26.959 37.3477 26.5605C34.3008 25.5996 31.9395 24.3809 30.2637 22.9043C28.5996 21.416 27.7676 19.3477 27.7676 16.6992C27.7676 14.4844 28.5703 12.5918 30.1758 11.0215C31.7812 9.45117 33.75 8.2793 36.082 7.50586C38.4258 6.7207 40.6699 6.32812 42.8145 6.32812C48.2988 6.32812 53.0273 7.86914 57 10.9512L61.7461 7.69922L62.6074 8.71875L50.8125 16.8398C49.5469 14.9062 48.2812 13.3711 47.0156 12.2344C45.7617 11.0859 44.5137 10.2773 43.2715 9.80859C42.0293 9.32812 40.6992 9.05859 39.2812 9C36.8086 9 34.8105 9.49219 33.2871 10.4766C31.7637 11.4609 31.002 12.791 31.002 14.4668C31.1426 16.0488 32.2266 17.4199 34.2539 18.5801C35.4609 19.3418 36.9141 20.0215 38.6133 20.6191C40.3242 21.2051 42.0176 21.7031 43.6934 22.1133C45.3809 22.5234 47.3496 22.9688 49.5996 23.4492C51.8613 23.918 53.3906 24.2637 54.1875 24.4863C56.0742 22.3184 57.7031 20.5488 59.0742 19.1777C60.4453 17.7949 61.8281 16.5938 63.2227 15.5742C64.6289 14.5547 66.2051 13.6816 67.9512 12.9551L68.5137 13.9043C66.7324 14.7949 65.168 15.7559 63.8203 16.7871C62.4727 17.8184 61.2246 18.9316 60.0762 20.127C58.9277 21.3223 57.5156 22.8691 55.8398 24.7676C60.7969 26.0215 64.2305 27.6035 66.1406 29.5137C67.9219 31.4824 68.8125 34.125 68.8125 37.4414C68.8125 39.3164 68.1387 41.1445 66.791 42.9258C65.4551 44.707 63.8965 46.2949 62.1152 47.6895C60.3457 49.084 58.248 50.6074 55.8223 52.2598C53.3965 53.9121 51.8672 55.043 51.2344 55.6523H49.002C46.1191 53.707 42.4512 52.0254 37.998 50.6074ZM57.2812 45.8613C58.1953 45.0879 58.6523 44.3203 58.6523 43.5586C58.6523 42.7383 58.002 42.0352 56.7012 41.4492C55.4004 40.8516 53.543 40.2422 51.1289 39.6211C48.7266 39 47.25 38.584 46.6992 38.373L41.9531 45.4395C45.75 46.1543 49.9746 48.1699 54.627 51.4863C58.4238 49.002 61.1953 46.8281 62.9414 44.9648C64.6875 43.1016 65.5605 41.3379 65.5605 39.6738C65.5605 37.2363 64.5234 35.291 62.4492 33.8379C60.375 32.373 56.8301 31.125 51.8145 30.0938L49.9512 32.9062C51.3574 33.3047 52.8164 33.7266 54.3281 34.1719C55.8398 34.6055 57.1406 35.0859 58.2305 35.6133C59.332 36.1289 60.2168 36.8086 60.8848 37.6523C61.5645 38.4844 61.9043 39.5156 61.9043 40.7461C61.9043 42.9258 60.6562 44.8477 58.1602 46.5117L57.2812 45.8613ZM83.5781 38.6719L78.5332 33.627C76.9512 32.291 76.1602 31.0195 76.1602 29.8125C76.2305 28.9102 76.541 28.2188 77.0918 27.7383C77.6543 27.2461 78.375 27 79.2539 27C79.9102 27 80.5898 27.2402 81.293 27.7207C82.0078 28.1895 82.3828 28.8867 82.418 29.8125C82.418 30.5742 82.0078 31.3652 81.1875 32.1855V32.3262C82.2891 32.2441 83.5547 31.9512 84.9844 31.4473C86.4258 30.9434 87.7793 30.3105 89.0449 29.5488C90.3223 28.7754 91.3535 27.9258 92.1387 27H93.2988C93.873 28.1016 94.6348 29.0391 95.584 29.8125C96.5332 30.5742 97.3535 30.9551 98.0449 30.9551C98.3496 30.9551 98.6777 30.873 99.0293 30.709C99.3809 30.5332 99.873 30.2344 100.506 29.8125C101.15 29.3789 101.508 29.1387 101.578 29.0918L102.141 30.0938L96.8145 33.9082V47.8125L99.9082 50.3262L101.578 49.2539L102.299 50.1855L95.8125 54.8613H94.9512C94.0605 54.0762 93.334 53.4316 92.7715 52.9277C92.209 52.4121 91.8281 51.8613 91.6289 51.2754C91.4414 50.6777 91.3477 49.7168 91.3477 48.3926L80.625 54.8613H79.3945C79.043 54.8613 78.375 54.5801 77.3906 54.0176C76.418 53.4551 75.5332 52.6934 74.7363 51.7324C73.9512 50.7598 73.5586 49.6465 73.5586 48.3926C73.5586 46.6816 74.4023 44.9648 76.0898 43.2422C77.7773 41.5195 80.2734 39.9961 83.5781 38.6719ZM91.3477 34.207L88.1133 31.6055C86.4961 32.4258 85.207 32.9766 84.2461 33.2578C83.2852 33.5391 82.0781 33.7559 80.625 33.9082L87.9551 41.1855L87.0938 42.1875L84.5801 39.6738C82.4473 40.5879 81.0234 41.4668 80.3086 42.3105C79.5938 43.1543 79.1953 44.1973 79.1133 45.4395C79.1133 46.6465 79.5762 47.7363 80.502 48.709C81.4395 49.6816 82.7988 50.4141 84.5801 50.9062L91.3477 46.6523V34.207ZM110.736 48.6738V34.3477L107.643 31.4648L105.92 32.9062L104.83 31.9043L111.387 27H112.828C114.727 28.9922 115.711 30.1699 115.781 30.5332C115.922 30.9199 116.01 31.2949 116.045 31.6582C116.08 32.0215 116.109 32.6543 116.133 33.5566C116.156 34.4707 116.186 35.1914 116.221 35.7188L128.314 27H129.387C131.344 29.543 132.902 30.8145 134.062 30.8145C134.438 30.8145 134.777 30.7441 135.082 30.6035C135.387 30.4512 135.721 30.2402 136.084 29.9707C136.459 29.6895 136.916 29.3496 137.455 28.9512L138.316 29.9531L132.92 33.7676V45.1406C132.92 47.7891 133.998 49.4707 136.154 50.1855L137.736 49.0957L138.527 50.3262L132.34 54.8613H131.109C128.66 53.0449 127.436 51.2227 127.436 49.3945V34.0488L124.201 31.4648L116.221 37.6523V48.0938L119.314 50.0449L121.107 48.9551L122.109 49.7461L115.061 54.8613H114.129C112.066 52.7988 110.502 51.7676 109.436 51.7676C108.193 51.7676 107.115 52.418 106.201 53.7188L105.129 52.6992L110.736 48.6738ZM146.596 27V17.1387L152.062 13.7461V27H155.016C156.117 27 157.148 26.5195 158.109 25.5586L158.689 26.1387L156.668 30.8145H152.062V48.0938L155.314 50.1855L157.969 48.3926L158.83 49.2539L151.342 54.8613H150.48C147.867 52.6113 145.951 51.4863 144.732 51.4863C143.889 51.4863 142.951 51.8438 141.92 52.5586L141.27 51.7676L146.596 48.2344V30.8145H144.363C143.262 30.8145 142.494 31.2246 142.061 32.0449L141.27 31.7461L143.221 27H146.596ZM171.469 38.6719L166.424 33.627C164.842 32.291 164.051 31.0195 164.051 29.8125C164.121 28.9102 164.432 28.2188 164.982 27.7383C165.545 27.2461 166.266 27 167.145 27C167.801 27 168.48 27.2402 169.184 27.7207C169.898 28.1895 170.273 28.8867 170.309 29.8125C170.309 30.5742 169.898 31.3652 169.078 32.1855V32.3262C170.18 32.2441 171.445 31.9512 172.875 31.4473C174.316 30.9434 175.67 30.3105 176.936 29.5488C178.213 28.7754 179.244 27.9258 180.029 27H181.189C181.764 28.1016 182.525 29.0391 183.475 29.8125C184.424 30.5742 185.244 30.9551 185.936 30.9551C186.24 30.9551 186.568 30.873 186.92 30.709C187.271 30.5332 187.764 30.2344 188.396 29.8125C189.041 29.3789 189.398 29.1387 189.469 29.0918L190.031 30.0938L184.705 33.9082V47.8125L187.799 50.3262L189.469 49.2539L190.189 50.1855L183.703 54.8613H182.842C181.951 54.0762 181.225 53.4316 180.662 52.9277C180.1 52.4121 179.719 51.8613 179.52 51.2754C179.332 50.6777 179.238 49.7168 179.238 48.3926L168.516 54.8613H167.285C166.934 54.8613 166.266 54.5801 165.281 54.0176C164.309 53.4551 163.424 52.6934 162.627 51.7324C161.842 50.7598 161.449 49.6465 161.449 48.3926C161.449 46.6816 162.293 44.9648 163.98 43.2422C165.668 41.5195 168.164 39.9961 171.469 38.6719ZM179.238 34.207L176.004 31.6055C174.387 32.4258 173.098 32.9766 172.137 33.2578C171.176 33.5391 169.969 33.7559 168.516 33.9082L175.846 41.1855L174.984 42.1875L172.471 39.6738C170.338 40.5879 168.914 41.4668 168.199 42.3105C167.484 43.1543 167.086 44.1973 167.004 45.4395C167.004 46.6465 167.467 47.7363 168.393 48.709C169.33 49.6816 170.689 50.4141 172.471 50.9062L179.238 46.6523V34.207ZM228.158 32.3262H225.627C224.373 32.3262 223.424 32.7656 222.779 33.6445C222.135 34.5117 221.812 35.584 221.812 36.8613H220.02C219.633 35.9238 219.439 34.6992 219.439 33.1875C219.439 31.5234 219.885 30.0996 220.775 28.916C221.678 27.7324 222.961 27.1406 224.625 27.1406H228.158V21.8145C228.158 19.8574 228.703 18.1055 229.793 16.5586C230.883 15.0117 232.354 13.8574 234.205 13.0957L247.951 6.32812H248.953C250.723 7.28906 251.982 8.23828 252.732 9.17578C253.482 10.1133 253.857 11.2793 253.857 12.6738V15.9082L258.252 13.2539V8.2793C258.252 8.11523 258.176 7.93945 258.023 7.75195C257.883 7.55273 257.812 7.37109 257.812 7.20703C257.812 6.62109 258.199 6.32812 258.973 6.32812C259.688 6.32812 260.045 6.62109 260.045 7.20703C259.764 7.91016 259.623 8.26758 259.623 8.2793V12.2344L269.906 6.32812H270.627L276.533 10.6523L279.486 8.71875L280.418 9.7207L274.16 13.9043V46.4414C274.16 47.6953 275.361 49.1836 277.764 50.9062L280.066 49.3945L280.559 50.3262L276.252 53.5605C275.631 54.0059 275.104 54.3809 274.67 54.6855C274.236 54.9902 273.891 55.2012 273.633 55.3184C273.387 55.4473 273.129 55.5117 272.859 55.5117C272.168 55.5117 271.09 54.5742 269.625 52.6992C268.617 51.6445 268.113 50.3027 268.113 48.6738V32.3262H259.623V50.0449L262.418 48.0938L263.279 49.0957L253.857 55.5117H252.768C252.51 55.3828 251.824 54.9961 250.711 54.3516C249.609 53.707 248.613 53.2148 247.723 52.875C246.832 52.5234 245.924 52.3477 244.998 52.3477C244.541 52.3477 243.926 52.5293 243.152 52.8926C242.379 53.2441 241.746 53.6133 241.254 54L240.252 52.998L247.811 47.8125V32.3262H239.672V46.6523C239.672 47.5664 239.432 48.6973 238.951 50.0449C238.482 51.3926 237.469 52.6406 235.91 53.7891C234.352 54.9375 232.125 55.5117 229.23 55.5117C227.801 55.5117 226.541 55.4004 225.451 55.1777C224.373 54.9668 222.797 54.6211 220.723 54.1406C218.66 53.6602 217.248 53.4199 216.486 53.4199C213.076 53.5957 211.371 55.4238 211.371 58.9043C211.371 60.7559 211.928 62.3906 213.041 63.8086C214.154 65.2383 215.684 66.3457 217.629 67.1309C219.574 67.9277 221.76 68.373 224.186 68.4668C227.771 68.4668 230.531 68.0625 232.465 67.2539L233.484 68.3262C231.48 69.2871 228.381 69.7676 224.186 69.7676C220.33 69.6855 217.025 68.748 214.271 66.9551C211.529 65.1738 210.158 62.4902 210.158 58.9043C210.158 56.5371 210.645 54.5391 211.617 52.9102C212.602 51.2812 213.891 50.0742 215.484 49.2891C217.078 48.4922 218.807 48.0938 220.67 48.0938C221.643 48.0938 222.58 48.1875 223.482 48.375C224.396 48.5508 225.639 48.8379 227.209 49.2363C228.791 49.623 229.881 49.8809 230.479 50.0098C231.076 50.127 231.738 50.1855 232.465 50.1855C236.402 50.1855 238.371 48.3633 238.371 44.7188V12.6738C236.977 13.1895 235.934 13.8105 235.242 14.5371C234.551 15.252 234.205 16.2598 234.205 17.5605V38.9531C234.205 41.2031 233.625 42.9258 232.465 44.1211C231.305 45.3164 229.576 46.207 227.279 46.793L226.559 45.7207C227.625 45.3926 228.158 44.8184 228.158 43.998V43.6992V32.3262ZM247.811 27.1406V15.627C247.811 14.5957 247.459 13.7754 246.756 13.166C246.053 12.5566 244.723 11.7187 242.766 10.6523L239.672 12.0938V27.1406H247.811ZM268.113 27.1406V14.0449L264.158 11.373L259.623 13.9043V27.1406H268.113ZM253.857 48.2344L258.252 50.4668V14.9062L253.857 17.5605V48.2344ZM293.391 38.6719L288.346 33.627C286.764 32.291 285.973 31.0195 285.973 29.8125C286.043 28.9102 286.354 28.2188 286.904 27.7383C287.467 27.2461 288.188 27 289.066 27C289.723 27 290.402 27.2402 291.105 27.7207C291.82 28.1895 292.195 28.8867 292.23 29.8125C292.23 30.5742 291.82 31.3652 291 32.1855V32.3262C292.102 32.2441 293.367 31.9512 294.797 31.4473C296.238 30.9434 297.592 30.3105 298.857 29.5488C300.135 28.7754 301.166 27.9258 301.951 27H303.111C303.686 28.1016 304.447 29.0391 305.396 29.8125C306.346 30.5742 307.166 30.9551 307.857 30.9551C308.162 30.9551 308.49 30.873 308.842 30.709C309.193 30.5332 309.686 30.2344 310.318 29.8125C310.963 29.3789 311.32 29.1387 311.391 29.0918L311.953 30.0938L306.627 33.9082V47.8125L309.721 50.3262L311.391 49.2539L312.111 50.1855L305.625 54.8613H304.764C303.873 54.0762 303.146 53.4316 302.584 52.9277C302.021 52.4121 301.641 51.8613 301.441 51.2754C301.254 50.6777 301.16 49.7168 301.16 48.3926L290.438 54.8613H289.207C288.855 54.8613 288.188 54.5801 287.203 54.0176C286.23 53.4551 285.346 52.6934 284.549 51.7324C283.764 50.7598 283.371 49.6465 283.371 48.3926C283.371 46.6816 284.215 44.9648 285.902 43.2422C287.59 41.5195 290.086 39.9961 293.391 38.6719ZM301.16 34.207L297.926 31.6055C296.309 32.4258 295.02 32.9766 294.059 33.2578C293.098 33.5391 291.891 33.7559 290.438 33.9082L297.768 41.1855L296.906 42.1875L294.393 39.6738C292.26 40.5879 290.836 41.4668 290.121 42.3105C289.406 43.1543 289.008 44.1973 288.926 45.4395C288.926 46.6465 289.389 47.7363 290.314 48.709C291.252 49.6816 292.611 50.4141 294.393 50.9062L301.16 46.6523V34.207ZM321.34 47.8125V34.0488C321.199 33.9434 320.906 33.6387 320.461 33.1348C320.016 32.6309 319.641 32.25 319.336 31.9922C319.043 31.7344 318.727 31.6055 318.387 31.6055C318.199 31.6055 317.602 32.0391 316.594 32.9062L315.434 31.7461L321.779 27H322.781C324.105 28.0547 325.119 29.0918 325.822 30.1113C326.537 31.1191 326.895 32.291 326.895 33.627L333.293 27H334.453C335.191 28.1484 335.818 28.9512 336.334 29.4082C336.85 29.8652 337.588 30.0938 338.549 30.0938C339.557 30.0938 340.061 30.4805 340.061 31.2539C340.061 31.4883 339.756 31.8984 339.146 32.4844C338.537 33.0586 337.799 33.5742 336.932 34.0312C336.064 34.4766 335.238 34.6992 334.453 34.6992C332.754 34.6992 331.266 33.9082 329.988 32.3262L326.895 35.4199V47.8125L331.201 50.4668L334.312 48.5332L335.314 49.3945L327.246 54.8613H325.875C323.156 52.1309 321.24 50.7656 320.127 50.7656C319.412 50.7656 318.281 51.457 316.734 52.8398L315.732 52.0488L321.34 47.8125ZM348.252 33.3281L346.16 31.4648L343.857 32.7656L342.926 31.9043L350.186 26.7188H350.766C353.215 28.7812 354.75 29.8125 355.371 29.8125C355.898 29.8125 356.766 29.3555 357.973 28.4414L358.904 29.5137L353.719 33.4863V46.9512C353.719 47.5371 353.994 48.1641 354.545 48.832C355.096 49.4883 355.852 50.0332 356.812 50.4668L359.186 48.9551L359.906 49.7461L352.998 54.8613H351.346C349.283 53.2676 348.252 51.8027 348.252 50.4668V33.3281ZM344.297 18.2812L350.766 13.0957H351.627L355.02 15.9082L356.953 14.3262L357.832 15.3281L351.627 20.5137H350.625L347.232 17.5605L345.299 19.1602L344.297 18.2812ZM373.266 38.6719L368.221 33.627C366.639 32.291 365.848 31.0195 365.848 29.8125C365.918 28.9102 366.229 28.2188 366.779 27.7383C367.342 27.2461 368.062 27 368.941 27C369.598 27 370.277 27.2402 370.98 27.7207C371.695 28.1895 372.07 28.8867 372.105 29.8125C372.105 30.5742 371.695 31.3652 370.875 32.1855V32.3262C371.977 32.2441 373.242 31.9512 374.672 31.4473C376.113 30.9434 377.467 30.3105 378.732 29.5488C380.01 28.7754 381.041 27.9258 381.826 27H382.986C383.561 28.1016 384.322 29.0391 385.271 29.8125C386.221 30.5742 387.041 30.9551 387.732 30.9551C388.037 30.9551 388.365 30.873 388.717 30.709C389.068 30.5332 389.561 30.2344 390.193 29.8125C390.838 29.3789 391.195 29.1387 391.266 29.0918L391.828 30.0938L386.502 33.9082V47.8125L389.596 50.3262L391.266 49.2539L391.986 50.1855L385.5 54.8613H384.639C383.748 54.0762 383.021 53.4316 382.459 52.9277C381.896 52.4121 381.516 51.8613 381.316 51.2754C381.129 50.6777 381.035 49.7168 381.035 48.3926L370.312 54.8613H369.082C368.73 54.8613 368.062 54.5801 367.078 54.0176C366.105 53.4551 365.221 52.6934 364.424 51.7324C363.639 50.7598 363.246 49.6465 363.246 48.3926C363.246 46.6816 364.09 44.9648 365.777 43.2422C367.465 41.5195 369.961 39.9961 373.266 38.6719ZM381.035 34.207L377.801 31.6055C376.184 32.4258 374.895 32.9766 373.934 33.2578C372.973 33.5391 371.766 33.7559 370.312 33.9082L377.643 41.1855L376.781 42.1875L374.268 39.6738C372.135 40.5879 370.711 41.4668 369.996 42.3105C369.281 43.1543 368.883 44.1973 368.801 45.4395C368.801 46.6465 369.264 47.7363 370.189 48.709C371.127 49.6816 372.486 50.4141 374.268 50.9062L381.035 46.6523V34.207ZM429.656 14.3262C428.824 13.623 427.688 12.9785 426.246 12.3926C424.816 11.8066 423.34 11.5137 421.816 11.5137C420.445 11.5137 419.221 11.7598 418.143 12.252C417.064 12.7441 415.934 13.6758 414.75 15.0469L413.748 14.6074C414.463 12.8027 415.465 11.2734 416.754 10.0195C418.043 8.76562 419.449 7.83984 420.973 7.24219C422.496 6.63281 423.979 6.32812 425.42 6.32812C431.537 6.32812 437.918 11.707 444.562 22.4648C447.27 23.6133 449.982 24.1875 452.701 24.1875C455.502 24.1875 457.951 23.6133 460.049 22.4648V13.6055C458.256 13.4883 456.598 12.9844 455.074 12.0938L450.029 15.627L449.168 14.6074L460.33 6.32812H461.701C462.24 7.72266 463.512 8.41992 465.516 8.41992C466.652 8.41992 468.018 7.91602 469.611 6.9082L470.42 7.55859C468.58 11.5898 465.58 13.6055 461.42 13.6055V56.6719H460.189C459.475 56.2969 458.355 55.1484 456.832 53.2266C455.309 51.293 453.691 49.043 451.98 46.4766C450.27 43.8984 448.828 41.584 447.656 39.5332C444.504 38.1855 440.859 37.5117 436.723 37.5117C435.504 37.5117 433.582 37.7988 430.957 38.373V48.3926C433.816 48.5098 436.529 49.3477 439.096 50.9062L444.844 47.0918L445.723 48.0938L434.701 55.5117H432.328C429.961 53.8359 427.295 52.998 424.33 52.998C421.307 53.0684 418.811 53.9062 416.842 55.5117C414.873 57.1172 413.889 59.1328 413.889 61.5586C414.006 66.0703 416.648 68.3262 421.816 68.3262C422.824 68.3262 424.84 68.0859 427.863 67.6055L428.215 68.9062C425.367 69.4805 423.234 69.7676 421.816 69.7676C419.109 69.6855 416.906 68.9824 415.207 67.6582C413.52 66.3457 412.676 64.3125 412.676 61.5586C412.676 58.8867 413.531 56.5664 415.242 54.5977C416.953 52.6406 419.127 51.1406 421.764 50.0977C424.412 49.0547 427.043 48.4863 429.656 48.3926V33.9082C428.367 33.334 426.955 33.0469 425.42 33.0469C422.502 33.0469 420.961 34.1777 420.797 36.4395H419.514C419.514 33.8613 420.129 31.6699 421.359 29.8652C422.602 28.0488 424.43 27.1406 426.844 27.1406H429.656V14.3262ZM460.049 47.5137V23.7656C458.057 24.9141 455.607 25.4883 452.701 25.4883C452.408 25.4883 452.145 25.5117 451.91 25.5586C449.52 25.4883 447.357 25.0312 445.424 24.1875L445.283 24.3281C447.393 27.7969 452.268 35.5254 459.908 47.5137H460.049ZM446.355 37.5117C445.02 35.0156 443.414 32.3027 441.539 29.373C439.676 26.4316 437.789 23.6836 435.879 21.1289C433.98 18.5742 432.34 16.6406 430.957 15.3281V36.8613C433.418 36.4746 435.387 36.2812 436.863 36.2812C440.473 36.2812 443.637 36.6914 446.355 37.5117ZM476.326 48.6738V33.7676C475.119 33.0645 474.516 32.4434 474.516 31.9043C474.516 31.7754 474.551 31.6875 474.621 31.6406C474.703 31.5938 474.85 31.5645 475.061 31.5527C475.271 31.541 475.523 31.5117 475.816 31.4648C478.371 31.4297 481.143 30.9668 484.131 30.0762C487.131 29.1738 489.375 28.1484 490.863 27H492.234C493.57 28.2422 494.83 29.2148 496.014 29.918C497.209 30.6094 498.105 30.9551 498.703 30.9551C499.605 30.9551 500.643 30.3809 501.814 29.2324L502.676 30.2344L498.281 33.3281V47.9531C499.477 48.6445 500.074 49.1953 500.074 49.6055C500.074 50.0859 499.477 50.3262 498.281 50.3262C495.797 50.3262 493.225 50.6895 490.564 51.416C487.904 52.1426 485.654 53.291 483.814 54.8613H482.215C478.875 52.3184 476.742 51.0469 475.816 51.0469C475.289 51.0469 474.732 51.2754 474.146 51.7324C473.561 52.1895 473.203 52.4414 473.074 52.4883L472.143 51.627L476.326 48.6738ZM492.814 34.4883L486.029 31.0957L481.863 32.3262V47.5137L488.42 50.9062C490.33 50.1445 491.795 49.7109 492.814 49.6055V34.4883ZM508.248 47.6719V34.207C507.135 32.9297 506.338 31.8574 505.857 30.9902C505.377 30.1113 505.137 29.0215 505.137 27.7207C505.137 25.2012 505.963 22.8691 507.615 20.7246C509.279 18.5684 511.359 16.7871 513.855 15.3809C516.363 13.9746 518.859 13.0254 521.344 12.5332V13.7461C517.805 14.8125 515.168 16.3652 513.434 18.4043C511.699 20.4434 510.832 22.6582 510.832 25.0488C510.832 26.3379 511.037 27.4863 511.447 28.4941C511.869 29.4902 512.602 30.7207 513.645 32.1855L524.016 27H525.738C526.102 27.457 526.934 28.0898 528.234 28.8984C529.547 29.6953 530.443 30.0938 530.924 30.0938C531.334 30.0938 532.031 29.6133 533.016 28.6523L534.018 29.8125L530.203 32.9062V48.0938L531.645 48.6738V49.7461C522.949 50.1914 517.453 51.8965 515.156 54.8613H513.785C510.727 52.1309 508.564 50.7656 507.299 50.7656C506.396 50.7656 505.512 51.0996 504.645 51.7676L503.783 50.7656L508.248 47.6719ZM524.736 33.4863L519.551 30.9551L513.785 33.7676V47.2324L519.691 50.4668C521.566 49.7754 523.248 49.3711 524.736 49.2539V33.4863ZM539.52 48.8145V33.4863C538.359 32.8887 537.779 32.1914 537.779 31.3945C539.49 31.3945 541.623 30.9785 544.178 30.1465C546.732 29.3027 548.871 28.2539 550.594 27H551.473L557.871 35.5605V36.7207L544.986 43.998V47.6719L551.033 50.7656L556.799 47.5137L557.801 48.6738L546.498 54.8613H545.426C543.727 53.4902 542.402 52.4883 541.453 51.8555C540.504 51.2227 539.713 50.9062 539.08 50.9062C538.025 51.1641 537.141 51.5449 536.426 52.0488L535.406 51.3281L539.52 48.8145ZM553.125 37.793L547.5 30.2344L544.986 31.2539V42.627L553.125 37.793ZM566.221 48.9551V18.5801C566.221 16.0254 565.98 13.7695 565.5 11.8125L566.52 11.0918C567.141 12.5332 567.691 13.7051 568.172 14.6074C570 12.2988 571.922 10.1895 573.938 8.2793L574.799 9.43945C573.768 10.5293 572.994 12 572.479 13.8516C571.963 15.6914 571.705 17.2676 571.705 18.5801V48.0938L574.939 50.3262L576.732 49.0957L577.611 49.9043L571.125 54.8613H569.684C567.703 52.6113 566.068 51.4863 564.779 51.4863C564.275 51.4863 563.297 51.8906 561.844 52.6992L560.824 51.7676L566.221 48.9551ZM586.189 48.9551V18.5801C586.189 16.0254 585.949 13.7695 585.469 11.8125L586.488 11.0918C587.109 12.5332 587.66 13.7051 588.141 14.6074C589.969 12.2988 591.891 10.1895 593.906 8.2793L594.768 9.43945C593.736 10.5293 592.963 12 592.447 13.8516C591.932 15.6914 591.674 17.2676 591.674 18.5801V48.0938L594.908 50.3262L596.701 49.0957L597.58 49.9043L591.094 54.8613H589.652C587.672 52.6113 586.037 51.4863 584.748 51.4863C584.244 51.4863 583.266 51.8906 581.812 52.6992L580.793 51.7676L586.189 48.9551ZM610.781 38.6719L605.736 33.627C604.154 32.291 603.363 31.0195 603.363 29.8125C603.434 28.9102 603.744 28.2188 604.295 27.7383C604.857 27.2461 605.578 27 606.457 27C607.113 27 607.793 27.2402 608.496 27.7207C609.211 28.1895 609.586 28.8867 609.621 29.8125C609.621 30.5742 609.211 31.3652 608.391 32.1855V32.3262C609.492 32.2441 610.758 31.9512 612.188 31.4473C613.629 30.9434 614.982 30.3105 616.248 29.5488C617.525 28.7754 618.557 27.9258 619.342 27H620.502C621.076 28.1016 621.838 29.0391 622.787 29.8125C623.736 30.5742 624.557 30.9551 625.248 30.9551C625.553 30.9551 625.881 30.873 626.232 30.709C626.584 30.5332 627.076 30.2344 627.709 29.8125C628.354 29.3789 628.711 29.1387 628.781 29.0918L629.344 30.0938L624.018 33.9082V47.8125L627.111 50.3262L628.781 49.2539L629.502 50.1855L623.016 54.8613H622.154C621.264 54.0762 620.537 53.4316 619.975 52.9277C619.412 52.4121 619.031 51.8613 618.832 51.2754C618.645 50.6777 618.551 49.7168 618.551 48.3926L607.828 54.8613H606.598C606.246 54.8613 605.578 54.5801 604.594 54.0176C603.621 53.4551 602.736 52.6934 601.939 51.7324C601.154 50.7598 600.762 49.6465 600.762 48.3926C600.762 46.6816 601.605 44.9648 603.293 43.2422C604.98 41.5195 607.477 39.9961 610.781 38.6719ZM618.551 34.207L615.316 31.6055C613.699 32.4258 612.41 32.9766 611.449 33.2578C610.488 33.5391 609.281 33.7559 607.828 33.9082L615.158 41.1855L614.297 42.1875L611.783 39.6738C609.65 40.5879 608.227 41.4668 607.512 42.3105C606.797 43.1543 606.398 44.1973 606.316 45.4395C606.316 46.6465 606.779 47.7363 607.705 48.709C608.643 49.6816 610.002 50.4141 611.783 50.9062L618.551 46.6523V34.207Z" fill="white"/>
</g>
<defs>
<filter id="filter0_d_41_66" x="0.558594" y="0.328125" width="638.943" height="83.4395" filterUnits="userSpaceOnUse" color-interpolation-filters="sRGB">
<feFlood flood-opacity="0" result="BackgroundImageFix"/>
<feColorMatrix in="SourceAlpha" type="matrix" values="0 0 0 0 0 0 0 0 0 0 0 0 0 0 0 0 0 0 127 0" result="hardAlpha"/>
<feOffset dy="4"/>
<feGaussianBlur stdDeviation="5"/>
<feComposite in2="hardAlpha" operator="out"/>
<feColorMatrix type="matrix" values="0 0 0 0 0 0 0 0 0 0 0 0 0 0 0 0 0 0 0.4 0"/>
<feBlend mode="normal" in2="BackgroundImageFix" result="effect1_dropShadow_41_66"/>
<feBlend mode="normal" in="SourceGraphic" in2="effect1_dropShadow_41_66" result="shape"/>
</filter>
</defs>
</svg>
